<svg id="Layer_1" data-name="Layer 1" xmlns="http://www.w3.org/2000/svg" viewBox="0 0 741.16 741.17"><defs><style>.cls-1{fill:#6bf2fc;}.cls-2{fill:#fff;}.cls-3{fill:#16aabc;}.cls-4{fill:#6aca2f;}.cls-5{fill:#ffd659;}.cls-6{fill:#ffc444;}.cls-7{fill:#2fb1ea;}.cls-8{fill:#ffb32f;}.cls-9{fill:#ffe76e;}.cls-10{fill:#d4ffd4;}.cls-11{fill:#fff4c5;}</style></defs><g id="Layer_2" data-name="Layer 2"><path class="cls-1" d="M747.48,69V754.23L649.59,653.58,551.7,754.23,453.81,653.58,355.92,754.23,258,655.6l-97.89,98.63V69a42,42,0,0,1,42-41.95H705.53A42,42,0,0,1,747.48,69Z" transform="translate(-13.31 -20.06)"/><path class="cls-2" d="M707.28,69V661.58l-57.69-61.7L551.7,700.53,453.81,599.88,355.92,700.53,258,601.9l-97.89,98.63V69a42,42,0,0,1,42-41.95H665.32A42,42,0,0,1,707.28,69Z" transform="translate(-13.31 -20.06)"/><path class="cls-3" d="M747.48,761.22a7,7,0,0,1-5-2.13l-92.89-95.48L556.7,759.12a7.2,7.2,0,0,1-10,0l-92.86-95.51-92.89,95.51a7,7,0,0,1-5,2.1h0a7,7,0,0,1-5-2.06L258,665.53l-92.92,93.63a7,7,0,0,1-12-4.93V69A48.94,48.94,0,0,1,202.1,20.06H705.53A48.94,48.94,0,0,1,754.47,69V754.23A7,7,0,0,1,747.48,761.22ZM258,648.61a7,7,0,0,1,5,2.06l92.92,93.59,92.93-95.54a7.18,7.18,0,0,1,10,0l92.82,95.47,92.89-95.51a7.2,7.2,0,0,1,10,0L740.49,737V69a35,35,0,0,0-35-35H202.1a35,35,0,0,0-35,35V737.27l85.93-86.56A7,7,0,0,1,258,648.61Z" transform="translate(-13.31 -20.06)"/><path class="cls-4" d="M506.25,522.75H230.06a21,21,0,0,1,0-41.95H506.25a21,21,0,1,1,0,41.95Z" transform="translate(-13.31 -20.06)"/><path class="cls-4" d="M390.36,118H230.06a21,21,0,0,1,0-42h160.3a21,21,0,0,1,0,42Z" transform="translate(-13.31 -20.06)"/><path class="cls-4" d="M633.82,219.16H230.06a21,21,0,0,1,0-42H633.82a21,21,0,0,1,0,42Z" transform="translate(-13.31 -20.06)"/><path class="cls-4" d="M633.82,320.37H230.06a21,21,0,0,1,0-42H633.82a21,21,0,0,1,0,42Z" transform="translate(-13.31 -20.06)"/><path class="cls-4" d="M506.25,421.54H230.06a21,21,0,0,1,0-42H506.25a21,21,0,1,1,0,42Z" transform="translate(-13.31 -20.06)"/><rect class="cls-5" x="6.99" y="208.92" width="279.68" height="176.48"/><polygon class="cls-6" points="285.14 235.42 286.68 208.92 9.13 208.92 9.13 235.91 146.84 353.28 285.14 235.42"/><path class="cls-7" d="M300,412.45H20.3a7,7,0,0,1-7-7V229a7,7,0,0,1,7-7H300a7,7,0,0,1,7,7V405.46A7,7,0,0,1,300,412.45Zm-272.7-14H293V236H27.29Z" transform="translate(-13.31 -20.06)"/><polygon class="cls-8" points="286.68 385.4 146.84 297.16 6.99 385.4 286.68 385.4"/><polygon class="cls-6" points="235.99 370.58 145.79 318.91 57.69 370.58 235.99 370.58"/><path class="cls-7" d="M300,412.45H20.3a7,7,0,0,1-3.74-12.9L156.4,311.31a7,7,0,0,1,7.45,0l139.84,88.24a7,7,0,0,1-3.74,12.9Zm-255.5-14h231.3l-115.65-73Z" transform="translate(-13.31 -20.06)"/><polygon class="cls-9" points="286.68 208.92 146.84 328.07 6.99 208.92 286.68 208.92"/><path class="cls-3" d="M160.14,355.12a7,7,0,0,1-4.54-1.68L15.76,234.29A7,7,0,0,1,20.3,222H300a7,7,0,0,1,4.54,12.3L164.69,353.44A7,7,0,0,1,160.14,355.12ZM39.28,236,160.14,339,281,236Z" transform="translate(-13.31 -20.06)"/><path class="cls-9" d="M649.94,486H617.71a11.89,11.89,0,1,1,0-23.77h59.85a15.73,15.73,0,1,0,0-31.46h-28V418.92a15.73,15.73,0,1,0-31.46,0v11.89h-.39a43.35,43.35,0,0,0,0,86.7H650a11.91,11.91,0,1,1,0,23.81H590.16a15.73,15.73,0,0,0,0,31.46h28v11.89a15.73,15.73,0,0,0,31.46,0V572.78H650A43.37,43.37,0,1,0,650,486h0Z" transform="translate(-13.31 -20.06)"/><path class="cls-10" d="M772,118" transform="translate(-13.31 -20.06)"/><path class="cls-11" d="M548.2,782.2" transform="translate(-13.31 -20.06)"/></g></svg>