<svg id="Layer_1" data-name="Layer 1" xmlns="http://www.w3.org/2000/svg" viewBox="0 0 611.14 800"><defs><style>.cls-1{fill:#194f82;}.cls-2{fill:#16aabc;}.cls-3{fill:#ffc10d;}.cls-4{fill:#606060;}</style></defs><path class="cls-1" d="M266.73,204.37c2.26,0-1.06-1.06,0,0Z" transform="translate(-94.43 0)"/><path class="cls-1" d="M262.23,247.71c-2.12,0,1.19,1.2,0,0Z" transform="translate(-94.43 0)"/><polygon class="cls-2" points="435.65 724.45 535.59 624.39 435.65 624.39 435.65 724.45"/><path class="cls-3" d="M507.82,580h109V88.93H183.37V711.2H485.55v-109A22.5,22.5,0,0,1,507.82,580Z" transform="translate(-94.43 0)"/><path class="cls-2" d="M262.23,298.87a25.18,25.18,0,0,1-25.58-25.58,22.27,22.27,0,0,0-44.54,0c0,31.15,20,56.73,47.72,66.67v15.51a22.27,22.27,0,0,0,44.53,0V340c27.83-8.88,47.71-35.52,47.71-66.67,0-36.71-28.89-66.66-64.41-70-19,1.06-30-12.19-30-25.58a25.58,25.58,0,1,1,51.16,0,22.27,22.27,0,1,0,44.53,0c0-31.14-20-56.72-47.71-66.66V96.62a22.27,22.27,0,1,0-44.54,0v15.51c-27.83,8.88-47.71,35.52-47.71,66.67,0,36.71,27.83,67.72,70,70A25.18,25.18,0,0,1,289,274.36,26.86,26.86,0,0,1,262.23,298.87Z" transform="translate(-94.43 0)"/><path class="cls-4" d="M683.43,0H116.7A22.32,22.32,0,0,0,94.43,22.27V777.73A22.31,22.31,0,0,0,116.7,800H507.82a22,22,0,0,0,15.51-6.62L698.94,617.76a21.6,21.6,0,0,0,6.63-15.51v-580A22.2,22.2,0,0,0,683.43,0ZM530.09,724.45V624.39H630.15ZM661.17,580H507.82a22.32,22.32,0,0,0-22.27,22.26V755.6H139V44.4h522.2Z" transform="translate(-94.43 0)"/><path class="cls-2" d="M400.07,136.65H595.69a22.27,22.27,0,0,0,0-44.54H400.07a22.27,22.27,0,1,0,0,44.54Z" transform="translate(-94.43 0)"/><path class="cls-2" d="M400.07,251.16H595.69a22.27,22.27,0,1,0,0-44.53H400.07a22.27,22.27,0,1,0,0,44.53Z" transform="translate(-94.43 0)"/><path class="cls-2" d="M400.07,365.54H595.69a22.27,22.27,0,1,0,0-44.53H400.07a22.27,22.27,0,1,0,0,44.53Z" transform="translate(-94.43 0)"/><path class="cls-2" d="M197.81,478.86H595.56a22.27,22.27,0,1,0,0-44.53H197.81a22.27,22.27,0,0,0,0,44.53Z" transform="translate(-94.43 0)"/><path class="cls-2" d="M197.81,593.37H393.44a22.27,22.27,0,1,0,0-44.53H197.81a22.27,22.27,0,0,0,0,44.53Z" transform="translate(-94.43 0)"/><path class="cls-2" d="M197.81,707.75H393.44a22.27,22.27,0,1,0,0-44.53H197.81a22.27,22.27,0,0,0,0,44.53Z" transform="translate(-94.43 0)"/></svg>