<svg id="Layer_1" data-name="Layer 1" xmlns="http://www.w3.org/2000/svg" viewBox="0 0 734.94 756.45"><defs><style>.cls-1{fill:#464c4f;}.cls-2{fill:#606265;}.cls-3{fill:#9a9a9b;}.cls-4{fill:#16aabc;}.cls-5{fill:#6aca2f;}</style></defs><path class="cls-1" d="M556.25,657.25s-.06,23.5-.06,26.38,12.81,9,36,9.25,36.5-5.63,36.5-7.69-.19-27.57-.19-27.57-16.81-16.31-32-16.68-40.25,16.31-40.25,16.31Z" transform="translate(-36.62 -19.54)"/><path class="cls-2" d="M161.69,19.56c-6.5.06-9.81.69-9.81,15.44s1.37,467.81,1.37,472.75,4.94,7,13.37,7h34.44c5.63,0,7.75-3.5,7-12.62s-.81-466.38-.81-472-2.56-10-11.5-10.32c-7.31-.25-26.38-.31-34.06-.25Z" transform="translate(-36.62 -19.54)"/><path class="cls-1" d="M102.56,185s-1-25.75,17.13-42.38C136.44,127.31,152,128.44,152,128.44l.13,25.5s9.5-3.32,25.62-2.63a95,95,0,0,1,29.37,6.25V130.81s8.94-.37,22.38,15.44c6.75,7.94,12.31,24.44,14.12,33.06,2.38,11.06,6.44,16.25,17.13,17a229.14,229.14,0,0,0,25.44.44c9.43-.31-20.06-51.56-20.06-51.56s-32.94-49.75-43.69-50.07-77.31,1.38-83.69,4.69-48.06,32.63-48.06,32.63L85,177.81s15.81,18.5,15.81,17.13c.13-1.19,1.75-9.94,1.75-9.94Z" transform="translate(-36.62 -19.54)"/><path class="cls-1" d="M70.63,185,39.25,160.31s-6.69,50.88,18.69,81.5c18.56,22.44,40.31,31.63,59.5,40a371.47,371.47,0,0,0,35.19,13.25l.06,30.06,54.87,29.19-.06-39.44s20.81,11.32,31.25,22.44,11.44,24.88,11.75,33.63-4.06,22.5-4.06,22.5l-6.06,26.87,69.93-70.56-165-109.56Z" transform="translate(-36.62 -19.54)"/><path class="cls-1" d="M43,342.81S34.62,350,37.06,369.5c2.25,18.12,12.44,46.37,43,71.25s73.13,29.62,73.13,29.62v20.75l54.62-.12-.06-20.63s32.63-1.37,60.19-18.87c28.81-18.31,49.94-55.63,48.69-90.63-.44-12.31-8.25-10.37-8.25-10.37s-100.26,86.94-106.94,87.62-71.94-10.75-71.94-10.75L68.69,361.19Z" transform="translate(-36.62 -19.54)"/><path class="cls-2" d="M68.62,335.56c-20.43,2-27.56,6.06-27.87,12.13s17.5,111.68,141.81,109.93C301.87,455.94,316,383.37,317,355.12c1.19-33.93-18.81-62.18-63.87-88.75-33.57-19.75-114.63-49.43-128.07-57.81-12.37-7.75-29.56-24.87-27.25-50.44s30.25-50.75,81.69-50.43,71.69,36.12,75.62,46.75c6.32,17.06,5.13,39.25,14.44,42.18,4.38,1.38,17.13.82,24.5-.18s17.88-6.69,18.5-21.5C313.25,157.81,295.44,62,176.44,63,62.81,63.94,34.88,133.62,39.25,173.62c4.13,37.94,35,73.57,84.75,93.75s137.81,44.69,136.81,90.07c-.87,40.68-48.12,55.12-87.06,53.12-39.31-2-60.81-24.87-68.88-51.75C97.19,333,82.44,334.25,68.62,335.56Z" transform="translate(-36.62 -19.54)"/><path class="cls-3" d="M87.5,348.44c-4.19-7.82-32.19-6.63-35.81,6.62s9.19,33.81,17.81,32c11.75-2.44,1.81-16.62,6.38-22S92.69,358.12,87.5,348.44Z" transform="translate(-36.62 -19.54)"/><path class="cls-3" d="M177.5,26.56c-8.19-.19-17.38-.31-17.81,10.75-.44,10.63.25,18.81,4.43,19.25,4.69.5,11.32-9.62,14.19-14C181.87,37,186.31,26.81,177.5,26.56Z" transform="translate(-36.62 -19.54)"/><path class="cls-3" d="M114.69,91.37c-3.13-4.56-20.69-8.18-44.94,21.75S54.44,158.94,60,159.62c7.56.94,11.75-5.25,16.38-15.43,6.62-14.5,14.49-23.32,26.81-32.63,10.5-7.94,16.87-12.31,11.5-20.18Z" transform="translate(-36.62 -19.54)"/><path class="cls-1" d="M462.56,527.94v11.18c0,3.75,3.19,6.82,10.82,7.13s241.18.62,242.56.5c2.37-.25,2.44-3.06,2.44-4.81.18-6.88.12-13.94.12-13.94L499.38,516.5Z" transform="translate(-36.62 -19.54)"/><path class="cls-1" d="M462.62,591.94v17.87c.07,3.31,2.63,3.94,7.32,4H709.69c3.37,0,6.06-1.94,6.18-5.69.19-5.12.07-16.18.07-16.18L589.62,578.62Z" transform="translate(-36.62 -19.54)"/><path class="cls-2" d="M462.5,499.06h256v29.13h-256Z" transform="translate(-36.62 -19.54)"/><path class="cls-2" d="M462.56,564.94H716v27.18H462.56Z" transform="translate(-36.62 -19.54)"/><path class="cls-2" d="M556.25,657.25l3.25-158.31S414.31,281.31,415.94,278s85.62-1.75,89.81.75,86.94,133.19,90.56,133.12,82.63-128.5,85.94-131,89.31-3.25,89.31.13S627.94,499.31,627.94,499.31l.56,158.82s-22,1.43-36.13,1.43S556.25,657.25,556.25,657.25Z" transform="translate(-36.62 -19.54)"/><path class="cls-3" d="M494.56,292.69c.19,4.43-25.12,28.87-30.12,28.87s-17.69-17.06-20.44-27c-1.88-6.75,19.75-7.94,28-7.94s22.31.32,22.56,6.07Z" transform="translate(-36.62 -19.54)"/><path class="cls-3" d="M690.94,294.25c-2.69,1.62-26.06,28.06-15.75,36.31,7.31,5.88,22-8.43,33.25-13.44s29.81-9.12,29.62-18.37C737.81,287.38,700.75,288.25,690.94,294.25Z" transform="translate(-36.62 -19.54)"/><path class="cls-4" d="M341.69,104c6.43,8.81,31.56-4.13,52.75-7.25s55.87-8.81,107.06,15.5,81.19,59.5,80.69,62.06-47.57,14.81-61,21.56c-11.25,5.63-15.94,13.5-14,22.94,1.81,8.94,8.87,13.75,19.18,16.32,18,4.5,142.07,16.56,160.69-1.07,23.38-22.06,17.44-138.62,16-152.37-2.12-21.06-8-28.19-18.62-29.94-9.32-1.56-18.63,2.56-24.32,16.69-6.43,15.87-17.5,56.19-20.62,56.19S602.87,74,543.37,53.31s-112.18-11.37-143.75.5C365.87,66.56,333.44,92.63,341.69,104Z" transform="translate(-36.62 -19.54)"/><path class="cls-5" d="M264.63,644.31c-2.07,2.75,26.18,51.25,87.68,69.44s133.31-14.19,141.19,1.12c10.25,19.94-77.19,86.57-185,50.69-90.5-30.12-105.31-88.25-108.12-87.69s-24.88,29.19-30.75,35.88c-13.75,15.62-46.13,6.25-37.57-23.31,11.57-40.13,42.19-131.19,58.63-137.19,22-8.06,130.94,46.06,138.87,50.69,14.82,8.56,18.19,35.31-8.56,37-16.5,1-54.62,1.12-56.37,3.37Z" transform="translate(-36.62 -19.54)"/></svg>