<?xml version="1.0" encoding="utf-8"?>
<!-- Generator: Adobe Illustrator 24.1.1, SVG Export Plug-In . SVG Version: 6.00 Build 0)  -->
<svg version="1.1" id="Layer_1" xmlns="http://www.w3.org/2000/svg" xmlns:xlink="http://www.w3.org/1999/xlink" x="0px" y="0px"
	 viewBox="0 0 800 800" style="enable-background:new 0 0 800 800;" xml:space="preserve">
<style type="text/css">
	.st0{fill:#EFF3F6;}
	.st1{fill:#DEE0E0;}
	.st2{fill:#67D839;}
	.st3{fill:#5B5A57;}
	.st4{fill:#16AABC;}
	.st5{fill:#747371;}
	.st6{fill:#449120;}
	.st7{fill:#FDCD60;}
	.st8{fill:#5546CB;}
	.st9{fill:#FFFFFF;}
	.st10{fill:#F97744;}
	.st11{fill:#F4F4F9;}
	.st12{fill:#AFBCF3;}
</style>
<g id="_x34_81_x2C__university_x2C__bank_x2C__campus_x2C__court">
	<g>
		<path class="st0" d="M32.8,251.6c127.5-69,230.5-115.6,365.3-187.5l369,187.5h-78.1H110.9H32.8z"/>
		<path class="st1" d="M402.3,80.2l337.3,171.4h27.6l-369-187.5C263.3,136,160.3,182.5,32.8,251.6h34.3
			C181.1,191.1,278.3,146.3,402.3,80.2z"/>
		<polygon class="st2" points="704.7,673.4 704.7,735.9 95.3,735.9 95.3,673.4 143.1,673.4 656.9,673.4 		"/>
		<polygon class="st3" points="108.9,688.8 156.6,688.8 670.5,688.8 704.7,688.8 704.7,673.4 656.9,673.4 143.1,673.4 95.3,673.4 
			95.3,735.9 108.9,735.9 		"/>
		<polygon class="st0" points="656.9,610.9 656.9,673.4 143.1,673.4 143.1,610.9 173.4,610.9 251.6,610.9 360.9,610.9 439.1,610.9 
			548.4,610.9 626.6,610.9 		"/>
		<polygon class="st1" points="156.6,624.7 187,624.7 265.1,624.7 374.5,624.7 452.6,624.7 562,624.7 640.1,624.7 656.9,624.7 
			656.9,610.9 626.6,610.9 548.4,610.9 439.1,610.9 360.9,610.9 251.6,610.9 173.4,610.9 143.1,610.9 143.1,673.4 156.6,673.4 		"/>
		<polygon class="st4" points="689.1,251.6 689.1,314.1 110.1,314.1 110.9,251.6 		"/>
		<polygon class="st5" points="125,267.7 689.1,267.7 689.1,251.6 110.9,251.6 110.1,314.1 124.4,314.1 		"/>
		<path class="st2" d="M400,126.6c21.6,0,39.1,17.5,39.1,39.1s-17.5,39.1-39.1,39.1s-39.1-17.5-39.1-39.1S378.4,126.6,400,126.6z"/>
		<path class="st6" d="M372.4,184.4c0-21.6,17.5-39.1,39.1-39.1c10.1,0,19.3,3.8,26.3,10.1c-4.5-16.6-19.7-28.9-37.7-28.9
			c-21.6,0-39.1,17.5-39.1,39.1c0,11.5,4.9,21.8,12.8,28.9C372.9,191.3,372.4,187.9,372.4,184.4z"/>
		<path d="M689.1,321.9h-579c-2.1,0-4.1-0.8-5.6-2.3c-1.5-1.5-2.3-3.5-2.3-5.6l0.9-62.5c0.1-4.3,3.5-7.7,7.8-7.7c0,0,0.1,0,0.1,0
			c4.3,0.1,7.8,3.6,7.7,7.9l-0.7,54.6h563.3v-54.7c0-4.3,3.5-7.8,7.8-7.8s7.8,3.5,7.8,7.8v62.5C696.9,318.4,693.4,321.9,689.1,321.9
			z"/>
		<path d="M143.1,681.3c-4.3,0-7.8-3.5-7.8-7.8v-62.5c0-4.3,3.5-7.8,7.8-7.8h30.4c4.3,0,7.8,3.5,7.8,7.8s-3.5,7.8-7.8,7.8h-22.6
			v54.7C150.9,677.8,147.4,681.3,143.1,681.3z"/>
		<path d="M360.9,618.8H251.6c-4.3,0-7.8-3.5-7.8-7.8s3.5-7.8,7.8-7.8h109.4c4.3,0,7.8,3.5,7.8,7.8S365.3,618.8,360.9,618.8z"/>
		<path d="M548.4,618.8H439.1c-4.3,0-7.8-3.5-7.8-7.8s3.5-7.8,7.8-7.8h109.4c4.3,0,7.8,3.5,7.8,7.8S552.8,618.8,548.4,618.8z"/>
		<path d="M656.9,681.3c-4.3,0-7.8-3.5-7.8-7.8v-54.7h-22.6c-4.3,0-7.8-3.5-7.8-7.8s3.5-7.8,7.8-7.8h30.4c4.3,0,7.8,3.5,7.8,7.8
			v62.5C664.8,677.8,661.3,681.3,656.9,681.3z"/>
		<path d="M767.2,259.4H32.8c-3.6,0-6.7-2.4-7.6-5.9c-0.9-3.5,0.7-7.1,3.9-8.8c66.5-36,125.2-65.3,187.4-96.4
			c55.8-27.9,113.5-56.7,178-91.1c2.3-1.2,4.9-1.2,7.2-0.1l369,187.5c3.2,1.6,4.9,5.3,4.1,8.8C773.9,256.9,770.8,259.4,767.2,259.4z
			 M63.9,243.7h670.7L398.2,72.9c-63.3,33.7-120,62-174.8,89.4C170.1,188.9,119.2,214.3,63.9,243.7z"/>
		<path d="M704.7,743.8c-4.3,0-7.8-3.5-7.8-7.8v-54.7H103.1v54.7c0,4.3-3.5,7.8-7.8,7.8s-7.8-3.5-7.8-7.8v-62.5
			c0-4.3,3.5-7.8,7.8-7.8h609.4c4.3,0,7.8,3.5,7.8,7.8v62.5C712.5,740.3,709,743.8,704.7,743.8z"/>
		<path d="M400,212.5c-25.8,0-46.9-21-46.9-46.9s21-46.9,46.9-46.9s46.9,21,46.9,46.9S425.8,212.5,400,212.5z M400,134.4
			c-17.2,0-31.3,14-31.3,31.3s14,31.3,31.3,31.3s31.3-14,31.3-31.3S417.2,134.4,400,134.4z"/>
		<path d="M228.1,214.6H118.8c-4.3,0-7.8-3.5-7.8-7.8c0-4.3,3.5-7.8,7.8-7.8h109.4c4.3,0,7.8,3.5,7.8,7.8
			C235.9,211.1,232.4,214.6,228.1,214.6z"/>
		<path d="M767.2,743.8H32.8c-4.3,0-7.8-3.5-7.8-7.8s3.5-7.8,7.8-7.8h734.4c4.3,0,7.8,3.5,7.8,7.8S771.5,743.8,767.2,743.8z"/>
	</g>
</g>
<g id="Layer_1_1_">
</g>
<g>
	<path class="st7" d="M511.7,377.9 M511.7,320.6 M218,577.6l-15.3-3.5l15.3-3.5l3.3-14.2l3.7,14.2l15.3,3.5l-15.3,3.5l-3.7,14.2
		L218,577.6z"/>
	<path class="st7" d="M554.6,368.4l-9.3-2.1l9.3-2.1l2.2-8.7l2.2,8.7l9.3,2.1l-9.3,2.1l-2.2,8.7L554.6,368.4z M237.8,452.4l-8.6-1.7
		l8.6-2.1l2.2-8l1.9,8l8.9,2.1l-8.9,1.7l-1.9,8.3L237.8,452.4z"/>
	<path class="st8" d="M552.3,571.2c-5.1,0-9.3-3.9-9.3-8.7c0-4.8,4.2-8.7,9.3-8.7s9.3,3.9,9.3,8.7
		C561.6,567.3,557.5,571.2,552.3,571.2L552.3,571.2z M552.3,558.7c-2.1,0-3.7,1.6-3.7,3.5c0,1.9,1.7,3.5,3.7,3.5s3.7-1.6,3.7-3.5
		c-0.2-1.8-1.8-3.1-3.7-3.1V558.7z"/>
	<path class="st9" d="M525.2,380.5H272.4c-6.6,0-11.9,5-11.9,11.1v8.3h276.2v-8.3C536.7,385.6,531.6,380.7,525.2,380.5z"/>
	<path class="st4" d="M525.2,373.6H272.4c-10.7,0-19.4,8.1-19.4,18.1v145.1c0,10,8.7,18.1,19.4,18.1h252.7
		c10.7,0,19.4-8.1,19.4-18.1V391.6C544.5,381.7,535.9,373.6,525.2,373.6z M537.1,536.8v1c0,5.8-5,10.4-11.2,10.4H272.1
		c-6.2,0-11.2-4.7-11.2-10.4V431.6h275.8L537.1,536.8z M260.9,424.6v-17.7h275.8v17.4L260.9,424.6z M260.5,400.3v-8.7
		c0-6.1,5.3-11.1,11.9-11.1h252.7c6.6,0,11.9,5,11.9,11.1v8.3L260.5,400.3z"/>
	<path class="st2" d="M260.5,431.6v105.9c0,5.8,5,10.4,11.2,10.4h254.2c6.2,0,11.2-4.7,11.2-10.4V431.6H260.5z M353.2,529.2h-80.4
		v-6.9h80.4V529.2z M392.3,505.2H272.8v-6.9h119.5V505.2z M392.3,484.7H272.8v-6.6h119.5V484.7z M524,529.2H434v-51.4H524V529.2z
		 M417.2,446.5l5.2-4.9l6,5.6l6-5.6l5.2,4.9l-6,5.6l6.3,5.9l-5.2,4.9l-6.3-5.9l-6.3,5.9l-5.2-4.9l6.3-5.9L417.2,446.5z M387.8,446.5
		l5.2-4.9l6,5.6l6-5.6l5.2,4.9l-6,5.6l6.3,5.9l-5.2,4.9l-6.3-5.9l-6.3,5.9l-5.2-4.9l6.3-5.9L387.8,446.5z M358.4,446.5l5.2-4.9
		l6,5.6l6-5.6l5.2,4.9l-6,5.6l6.3,5.9l-5.2,4.9l-6.3-5.9l-6.3,5.9l-5.2-4.9l6.3-5.9L358.4,446.5z M329,446.5l5.2-4.9l6,5.6l6-5.6
		l5.2,4.9l-6,5.6l6.3,5.9l-5.2,4.9l-6.3-5.9l-6.3,5.9l-5.2-4.9l6.3-5.9L329,446.5z M299.6,446.5l5.2-4.9l6,5.6l6-5.6l5.2,4.9l-6,5.6
		l6.3,5.9l-5.2,4.9l-6.3-5.9l-6.3,5.9l-5.2-4.9l6.3-5.9L299.6,446.5z M270.2,446.5l5.2-4.9l6,5.6l6-5.6l5.2,4.9l-6,5.6l6.3,5.9
		l-5.2,4.9l-6.3-5.9l-6.3,5.9l-5.2-4.9l6.3-5.9L270.2,446.5z"/>
	<path class="st10" d="M275.4,462.8l6.7-5.9l6.3,5.9l5.2-4.9l-6.3-5.9l5.6-5.6l-5.2-4.9l-5.6,5.6l-6-5.6l-5.2,4.9l6,5.6l-6.7,5.9
		L275.4,462.8z M304.8,462.8l6.3-5.9l6.3,5.9l5.6-4.9l-6.7-5.9l6-5.6l-5.2-4.9l-6,5.6l-5.6-5.6l-5.6,4.9l6,5.6l-6.3,5.9L304.8,462.8
		z M334.2,462.8l6.3-5.9l6.3,5.9l5.2-4.9l-6.3-5.9l6-5.6l-5.6-4.9l-5.6,5.6l-6-5.6l-5.2,4.9l6,5.6l-6.7,5.9L334.2,462.8z
		 M363.3,462.8l6.3-5.9l6.3,5.9l5.6-4.9l-6.7-5.9l6-5.6l-5.2-4.9l-6,5.6l-5.6-5.6l-5.6,4.9l6,5.6l-6.3,5.9L363.3,462.8z
		 M392.7,462.8l6.3-5.9l6.3,5.9l5.2-4.9l-6.3-5.9l6-5.6l-5.2-4.9l-6,5.6l-6-5.6l-5.2,4.9l6,5.6l-6.3,5.9L392.7,462.8z M421.7,462.8
		l6.3-5.9l6.7,5.9l5.2-4.9l-6.3-5.9l5.6-5.6l-5.2-4.9l-6,5.6l-5.6-5.6l-5.2,4.9l5.6,5.6l-6.3,5.9L421.7,462.8z"/>
	<path class="st11" d="M272.8,478.1h119.1v6.9H272.8V478.1z M272.8,498.2h119.1v6.9H272.8V498.2z M272.8,522.2h80v6.9h-80V522.2z"/>
	<path class="st9" d="M441.4,484.7h74.8v37.4h-74.8V484.7z"/>
	<path class="st4" d="M434,529.2H524v-51.4H434V529.2z M441.4,484.7h75.2v37.5h-75.2V484.7z"/>
	<path class="st12" d="M260.9,406.9h275.8v17.5H260.9V406.9z"/>
</g>
<rect x="143.1" y="314.1" class="st4" width="38.2" height="289.1"/>
<rect x="622.7" y="314.1" class="st4" width="35" height="289.1"/>
</svg>
