<svg id="Layer_1" data-name="Layer 1" xmlns="http://www.w3.org/2000/svg" viewBox="0 0 767.33 767.33"><defs><style>.cls-1,.cls-2{fill:none;stroke-miterlimit:333.33;stroke-width:64px;}.cls-1{stroke:#6aca2f;}.cls-2{stroke:#16aabc;}.cls-3{fill:#16aabc;}</style></defs><g id="roll_brush" data-name="roll brush"><path class="cls-1" d="M303.67,593.33H415.33a48,48,0,0,0,48-48h0a47.67,47.67,0,0,0-47.33-48H382a48,48,0,0,1-48-48h0A48.33,48.33,0,0,1,381.31,400h114" transform="translate(-15.67 -17.67)"/><line class="cls-1" x1="383.67" y1="288" x2="383.67" y2="383.67"/><line class="cls-1" x1="383.67" y1="575.67" x2="383.67" y2="671.33"/><rect class="cls-2" x="32" y="32" width="703.33" height="703.33"/><polygon class="cls-1" points="735.33 224 526.33 224 462.33 224 32 224 32 32 735.33 32 735.33 224"/><line class="cls-2" x1="128" y1="128" x2="192" y2="128"/><line class="cls-2" x1="256" y1="128" x2="319.67" y2="128"/><line class="cls-2" x1="383.83" y1="128" x2="447.5" y2="128"/><line class="cls-3" x1="383.67" y1="128" x2="447.67" y2="128"/></g></svg>