<svg id="Layer_1" data-name="Layer 1" xmlns="http://www.w3.org/2000/svg" viewBox="0 0 657.09 753.73"><defs><style>.cls-1{fill:#e5e5e5;}.cls-2{fill:#6aca2f;}.cls-3{fill:#16aabc;}.cls-4{fill:#f2a50c;}.cls-4,.cls-5,.cls-6,.cls-7{fill-rule:evenodd;}.cls-5{fill:#fcca3d;}.cls-6{fill:#808b9b;}.cls-7{fill:#fcfcfc;}</style></defs><path class="cls-1" d="M481.72,775H75l62.58-201V121.77c0-55.51,56-100.5,125.16-100.5H669.46l-62.58,201V674.5C606.88,730,550.84,775,481.72,775Z" transform="translate(-74.95 -21.27)"/><path class="cls-2" d="M669.46,21.27h0C704,21.27,732,43.77,732,71.52V222.26H606.88V71.52C606.88,43.77,634.9,21.27,669.46,21.27Z" transform="translate(-74.95 -21.27)"/><path class="cls-2" d="M106.24,775h0C89,775,75,752.5,75,724.75V574h62.58V724.75C137.53,752.5,123.52,775,106.24,775Z" transform="translate(-74.95 -21.27)"/><rect class="cls-3" x="109.52" y="301.49" width="31.29" height="25.12"/><rect class="cls-3" x="172.1" y="301.49" width="31.29" height="25.12"/><rect class="cls-3" x="234.68" y="301.49" width="31.29" height="25.12"/><rect class="cls-3" x="297.26" y="301.49" width="187.74" height="25.12"/><rect class="cls-3" x="109.52" y="351.74" width="375.48" height="25.12"/><rect class="cls-3" x="453.71" y="401.99" width="31.29" height="25.12"/><rect class="cls-3" x="391.13" y="401.99" width="31.29" height="25.12"/><rect class="cls-3" x="328.55" y="401.99" width="31.29" height="25.12"/><rect class="cls-3" x="109.52" y="401.99" width="187.74" height="25.12"/><rect class="cls-3" x="109.52" y="452.24" width="375.48" height="25.12"/><rect class="cls-3" x="109.52" y="502.49" width="31.29" height="25.12"/><rect class="cls-3" x="172.1" y="502.49" width="31.29" height="25.12"/><rect class="cls-3" x="234.68" y="502.49" width="31.29" height="25.12"/><rect class="cls-3" x="297.26" y="502.49" width="187.74" height="25.12"/><rect class="cls-3" x="109.52" y="552.74" width="375.48" height="25.12"/><rect class="cls-3" x="453.71" y="602.98" width="31.29" height="25.12"/><rect class="cls-3" x="391.13" y="602.98" width="31.29" height="25.12"/><rect class="cls-3" x="328.55" y="602.98" width="31.29" height="25.12"/><rect class="cls-3" x="109.52" y="602.98" width="187.74" height="25.12"/><rect class="cls-3" x="109.52" y="653.23" width="375.48" height="25.12"/><g id="layer1"><path id="path15077" class="cls-4" d="M317.6,170.63c0-36.53,28.9-66.14,64.56-66.14s64.56,29.61,64.56,66.14-28.91,66.14-64.56,66.14S317.6,207.16,317.6,170.63Z" transform="translate(-74.95 -21.27)"/><path id="path73068" class="cls-5" d="M382.16,104.49c-35.66,0-64.56,29.61-64.56,66.14A66.31,66.31,0,0,0,353.76,230c37.24-8.95,65-43.17,65-84.06a88,88,0,0,0-6.81-34,63.07,63.07,0,0,0-29.77-7.45Z" transform="translate(-74.95 -21.27)"/><path id="path15079" class="cls-6" d="M382.16,119.4a7,7,0,0,0-6.93,7v8.18a22.21,22.21,0,0,0-15.51,21c0,12.28,10.28,22.08,22.44,22.08a8.22,8.22,0,0,1,8.57,8c0,4.35-3.6,8-8.57,8s-8.58-3.67-8.58-8a6.93,6.93,0,1,0-13.86,0,22.21,22.21,0,0,0,15.51,21v8.17a6.93,6.93,0,1,0,13.86,0v-8.17a22,22,0,0,0-6.93-43,8.23,8.23,0,0,1-8.58-8c0-4.35,3.6-8,8.58-8s8.57,3.67,8.57,8a6.93,6.93,0,1,0,13.86,0,22.2,22.2,0,0,0-15.5-21v-8.18A7,7,0,0,0,382.16,119.4Z" transform="translate(-74.95 -21.27)"/><path id="path72837" class="cls-7" d="M287.46,236.08a6.86,6.86,0,0,0-3.3,1.38,7.19,7.19,0,0,0-1.33,9.89,124.7,124.7,0,0,0,36.82,33.24C367.12,308.68,425.3,301,464.17,265.48a7.19,7.19,0,0,0,.56-10h0a6.79,6.79,0,0,0-9.72-.57c-34.52,31.51-86.15,38.47-128.45,13.43a110.84,110.84,0,0,1-32.75-29.54,6.8,6.8,0,0,0-6.35-2.75Z" transform="translate(-74.95 -21.27)"/><path id="path72835" class="cls-7" d="M494.63,125.77a6.87,6.87,0,0,0-3.57.22,7.11,7.11,0,0,0-4.36,8.93h0a115.13,115.13,0,0,1-6.94,88.27L475.56,195a6.91,6.91,0,0,0-7.85-5.91,7,7,0,0,0-5.77,8l7.05,47.5a6.92,6.92,0,0,0,7.85,5.92,6.38,6.38,0,0,0,1.48-.41L522,232.62a7.12,7.12,0,0,0,3.92-9.14,6.85,6.85,0,0,0-8.93-4l-24.81,9.94a129.8,129.8,0,0,0,7.63-98.95,7,7,0,0,0-5.16-4.69Z" transform="translate(-74.95 -21.27)"/><path id="path72833" class="cls-7" d="M287.5,90.68a6.86,6.86,0,0,0-2,.47l-43.66,17.49a7.11,7.11,0,0,0-3.92,9.14,6.84,6.84,0,0,0,8.92,4h0l24.81-9.94a129.87,129.87,0,0,0-4.52,107.49,6.83,6.83,0,0,0,9,3.83h0a7.13,7.13,0,0,0,3.72-9.23h0a115.26,115.26,0,0,1,4.18-95.87l4.2,28.24a6.92,6.92,0,0,0,7.84,5.92,7,7,0,0,0,5.78-8l-7.06-47.5a6.94,6.94,0,0,0-7.32-6Z" transform="translate(-74.95 -21.27)"/><path id="path15875" class="cls-7" d="M383,43.62a122.34,122.34,0,0,0-83.38,32.16,7.18,7.18,0,0,0-.55,10h0a6.77,6.77,0,0,0,9.73.56h0C343.34,54.81,395,47.85,437.27,72.88a110.9,110.9,0,0,1,36.5,35,6.79,6.79,0,0,0,9.56,1.94,7.16,7.16,0,0,0,1.89-9.79,124.89,124.89,0,0,0-41.06-39.33A121.1,121.1,0,0,0,383,43.62Z" transform="translate(-74.95 -21.27)"/></g></svg>