<svg id="Layer_1" data-name="Layer 1" xmlns="http://www.w3.org/2000/svg" viewBox="0 0 748.46 748.46"><defs><style>.cls-1{fill:#231f20;}.cls-2{fill:#16aabc;}.cls-3{fill:#fff;}.cls-4{fill:#6aca2f;}.cls-5{fill:#d12200;}.cls-6{fill:#00a1d3;}.cls-7{fill:#ddbc19;}</style></defs><path class="cls-1" d="M739.84,36.43H43.7A26.2,26.2,0,0,0,17.54,62.59V98.06A26.2,26.2,0,0,0,43.7,124.22H70.1V602.84a45.66,45.66,0,0,0,27.27,41.72l-25.74,90.1a39.37,39.37,0,0,0,37.88,50.22h3.22a39.56,39.56,0,0,0,37.87-28.55l30.8-107.85H602.14l30.8,107.85a39.59,39.59,0,0,0,37.88,28.55H674a39.38,39.38,0,0,0,37.88-50.22l-25.74-90.1a45.64,45.64,0,0,0,27.27-41.72V124.22h26.4A26.2,26.2,0,0,0,766,98.06V62.59A26.2,26.2,0,0,0,739.84,36.43Z" transform="translate(-17.54 -36.43)"/><path class="cls-2" d="M133,751.29a21.23,21.23,0,0,1-20.31,15.34h-3.22a21.15,21.15,0,0,1-20.32-27l26.07-91.27h47.16Z" transform="translate(-17.54 -36.43)"/><path class="cls-2" d="M694.35,739.68a21.12,21.12,0,0,1-14.48,26.13,21.34,21.34,0,0,1-5.84.82h-3.21a21.24,21.24,0,0,1-20.32-15.34L621.13,648.48h47.15Z" transform="translate(-17.54 -36.43)"/><path class="cls-3" d="M695.19,602.84a27.38,27.38,0,0,1-27.38,27.39H115.74a27.38,27.38,0,0,1-27.38-27.39V124.22H695.19Z" transform="translate(-17.54 -36.43)"/><rect class="cls-2" x="18.26" y="18.26" width="711.95" height="51.28" rx="7.9"/><path class="cls-4" d="M398.05,439.19H649.17a9.13,9.13,0,0,0,0-18.26H625.89V233.34a9.13,9.13,0,0,0-18.25,0V420.93H563.83V271a9.13,9.13,0,0,0-18.26,0V420.93H501.76V313.57a9.13,9.13,0,0,0-18.26,0V420.93H439.69V357.51a9.13,9.13,0,0,0-18.25,0v63.42H398.05a9.13,9.13,0,0,0,0,18.26Z" transform="translate(-17.54 -36.43)"/><circle class="cls-1" cx="223.53" cy="285.51" r="115.86"/><path class="cls-5" d="M337.77,312.81H250.15V225.18A97.1,97.1,0,0,1,337.77,312.81Z" transform="translate(-17.54 -36.43)"/><path class="cls-6" d="M232,225.26v79.08l-64.71-45.55A96.69,96.69,0,0,1,232,225.26Z" transform="translate(-17.54 -36.43)"/><path class="cls-7" d="M156.74,273.74l79.08,55.72c.16.11.38,0,.57.18a8.9,8.9,0,0,0,4.67,1.48h96.75a97.34,97.34,0,1,1-181.07-57.38Z" transform="translate(-17.54 -36.43)"/><path class="cls-4" d="M649.17,483H285.56a9.13,9.13,0,0,0,0,18.25H649.17a9.13,9.13,0,1,0,0-18.25Z" transform="translate(-17.54 -36.43)"/><path class="cls-4" d="M649.17,536.41H285.56a9.13,9.13,0,0,0,0,18.26H649.17a9.13,9.13,0,0,0,0-18.26Z" transform="translate(-17.54 -36.43)"/></svg>