<svg id="Layer_1" data-name="Layer 1" xmlns="http://www.w3.org/2000/svg" viewBox="0 0 755.38 755.53"><defs><style>.cls-1{fill:#6aca2f;}.cls-2{fill:#16aabc;}.cls-3,.cls-4{fill:none;stroke-linecap:round;stroke-linejoin:round;stroke-width:33.33px;}.cls-3{stroke:#2f74ed;}.cls-4{stroke:#ff0025;}</style></defs><path class="cls-1" d="M297.54,400.36H165a21,21,0,0,1,0-42.05H297.41a21,21,0,0,1,.13,42.05Z" transform="translate(-22.31 -8.28)"/><path class="cls-1" d="M483.68,515H165.15a21,21,0,1,1,0-42.05H483.68a21,21,0,0,1,0,42.05Z" transform="translate(-22.31 -8.28)"/><path class="cls-1" d="M297.54,629.68H165a21,21,0,0,1,0-42.06H297.41a21,21,0,0,1,.13,42.06Z" transform="translate(-22.31 -8.28)"/><path class="cls-1" d="M468,664.56h-1.74a20.89,20.89,0,0,1-15.31-8.83l-8.46-12-14.56,14.56a21,21,0,1,1-29.73-29.61l32-32.1a20.93,20.93,0,0,1,32,2.73l8.46,11.95L485,596.88a21,21,0,0,1,21.89-5.11l45.67,16.05a21,21,0,0,1-13.94,39.57L505.41,635.7l-22.64,22.64A20.62,20.62,0,0,1,468,664.56Z" transform="translate(-22.31 -8.28)"/><path class="cls-2" d="M714.73,215.59H667.08L757.66,125a68.2,68.2,0,0,0,0-96.43c-30.61-28.24-69.81-25.88-96.43,0L474.47,215.22l-390-.5c-34.21,0-62.21,28.5-62.21,63.71V700.85a63,63,0,0,0,63,63H714.73a63,63,0,0,0,63-63V278.55A63,63,0,0,0,714.73,215.59ZM442.62,306.67,691,58.32c9.95-10,27.25-10,37.08,0a26.29,26.29,0,0,1,0,37.08L479.57,343.63l-43.3,6.22ZM735.76,700.85a21,21,0,0,1-21,21H85.39a21,21,0,0,1-21-21V278.55c0-12.07,9.08-21.77,20.28-21.77l348,.5L408,281.91a21.14,21.14,0,0,0-6,11.95l-11.19,77.89a21.34,21.34,0,0,0,6,17.79,20.85,20.85,0,0,0,17.79,6l77.89-11.2a21.38,21.38,0,0,0,11.94-6L625.39,257.4l89.59.13a21,21,0,0,1,21,21v422.3Z" transform="translate(-22.31 -8.28)"/><path class="cls-3" d="M653.22,440.82V312.3m0,0-34.73,53.55m34.73-53.55L688,365.85" transform="translate(-22.31 -8.28)"/><path class="cls-4" d="M653.22,651.84V505M618,590.67l35.23,61.17m35.24-61.17-35.24,61.17" transform="translate(-22.31 -8.28)"/></svg>