<svg id="Layer_1" data-name="Layer 1" xmlns="http://www.w3.org/2000/svg" viewBox="0 0 570.22 729.86"><defs><style>.cls-1{fill:#e6e6e8;}.cls-2{fill:#d9dddd;}.cls-3{fill:#67d839;}.cls-4{fill:#16aabc;}.cls-5{fill:#b3b3b3;}.cls-6{fill:#f8b64c;}.cls-7{fill:#ffd15c;}</style></defs><path class="cls-1" d="M522.92,35.07H133.67c-8.92,0-18.78,7.3-18.78,16.22V748.72c0,8.92,9.86,16.21,18.78,16.21H668.89c8.92,0,13.66-7.29,13.66-16.21V205.37Z" transform="translate(-114.89 -35.07)"/><path class="cls-2" d="M539.14,205.37c-8.92,0-18.78-7.3-18.78-16.22V35.07l164.75,170.3Z" transform="translate(-114.89 -35.07)"/><path class="cls-3" d="M228.43,108.06c-32.44,0-62.32,29.05-62.32,64.87h62.32Z" transform="translate(-114.89 -35.07)"/><path class="cls-4" d="M236.54,116.17V181H174.21a64.88,64.88,0,0,0,64.88,64.89h0c35.83,0,63.59-29,63.59-64.89S277.08,116.17,236.54,116.17Z" transform="translate(-114.89 -35.07)"/><rect class="cls-4" x="227.03" y="89.2" width="145.97" height="16.22"/><rect class="cls-5" x="227.03" y="129.75" width="145.97" height="8.11"/><rect class="cls-5" x="45.07" y="291.94" width="259.5" height="8.11"/><rect class="cls-5" x="45.07" y="316.27" width="259.5" height="8.11"/><rect class="cls-5" x="45.07" y="340.59" width="259.5" height="8.11"/><rect class="cls-5" x="45.07" y="364.92" width="259.5" height="8.11"/><rect class="cls-5" x="45.07" y="389.26" width="259.5" height="8.11"/><rect class="cls-5" x="227.03" y="527.11" width="259.5" height="8.11"/><rect class="cls-5" x="227.03" y="551.44" width="259.5" height="8.11"/><rect class="cls-5" x="227.03" y="575.77" width="259.5" height="8.11"/><rect class="cls-5" x="227.03" y="600.1" width="259.5" height="8.11"/><rect class="cls-5" x="227.03" y="624.43" width="259.5" height="8.11"/><rect class="cls-5" x="227.03" y="145.97" width="145.97" height="8.11"/><rect class="cls-5" x="227.03" y="162.19" width="145.97" height="8.11"/><rect class="cls-5" x="227.03" y="178.41" width="145.97" height="8.11"/><ellipse class="cls-6" cx="121.3" cy="579.83" rx="71.94" ry="85.43"/><ellipse class="cls-7" cx="121.3" cy="579.83" rx="53.52" ry="63.61"/><path class="cls-6" d="M243.33,606.16c-7.48-3.49-8.92-5.34-8.92-7.09,0-3.49,1.44-5.34,5.94-5.34s7.48,1.75,8.92,3.49l3,1.75,4.51-14.18-3-1.75c-3-1.75-5.95-3.49-8.92-3.49V569H231.44v10.59C224,583,218,590.13,218,599c0,12.33,8.91,17.68,16.39,21.17s7.48,5.35,7.48,8.84-3,5.34-7.48,5.34c-3,0-7.48-1.74-10.45-3.49l-4.51-3.49L215,643.26l3,1.75a87.39,87.39,0,0,0,11.88,5.24v10.59h13.43V648.51c8.91-3.6,13.42-10.59,13.42-21.17C259.72,616.85,250.8,609.76,243.33,606.16Z" transform="translate(-114.89 -35.07)"/></svg>