<svg id="Layer_1" data-name="Layer 1" xmlns="http://www.w3.org/2000/svg" viewBox="0 0 747.84 666.93"><defs><style>.cls-1{fill:#16aabc;}.cls-2{fill:#fff;}.cls-3{fill:#f2f2f2;}.cls-4{fill:#40596b;}.cls-5{fill:#ffb92c;}.cls-6{fill:#67d839;}</style></defs><path class="cls-1" d="M58.22,653.46H651.51a26.89,26.89,0,0,0,26.88-26.88V517.66a62.19,62.19,0,0,0-13.51-38.73L557.23,343.76a62.08,62.08,0,0,0-48.53-23.44H398.75V519.19H31.34V626.58A27,27,0,0,0,58.22,653.46Z" transform="translate(-31.34 -61.95)"/><path class="cls-2" d="M634.31,497.91,529.21,366.06a26.08,26.08,0,0,0-20.51-9.81h-74V498H634.31Z" transform="translate(-31.34 -61.95)"/><path class="cls-3" d="M371.87,208.59H58.22a27,27,0,0,0-26.88,26.88V519.06H398.75V235.47A26.89,26.89,0,0,0,371.87,208.59Z" transform="translate(-31.34 -61.95)"/><circle class="cls-4" cx="128.42" cy="591.51" r="75.42"/><circle class="cls-4" cx="525.39" cy="591.51" r="75.42"/><circle class="cls-2" cx="128.42" cy="591.51" r="37.45"/><circle class="cls-2" cx="525.39" cy="591.51" r="37.45"/><rect class="cls-5" x="31.34" y="179.26" width="304.86" height="35.8"/><rect class="cls-5" x="31.34" y="249.07" width="304.86" height="35.8"/><rect class="cls-5" x="31.34" y="318.88" width="304.86" height="35.8"/><rect class="cls-5" x="31.34" y="388.83" width="304.86" height="35.8"/><path class="cls-6" d="M670.62,319.77s108.56-85,108.56-146.49S730.58,62,670.62,62,562.07,111.79,562.07,173.28,670.62,319.77,670.62,319.77Zm0-244.19c52.48,0,95,43.46,95,97.07S670.9,303.54,670.9,303.54s-95.28-77.28-95.28-130.89,42.53-97.07,95-97.07Zm0,149.2a33.92,33.92,0,0,0,33.93-33.92V177.29a33.93,33.93,0,0,0-67.85,0v13.57A33.92,33.92,0,0,0,670.62,224.78Zm-20.35-47.49a20.36,20.36,0,0,1,40.71,0v13.57a20.36,20.36,0,0,1-40.71,0V177.29Zm88.2,149.27-40.71.14v-.14H575.64s-14,0-13.57-13.57,13.57-13.57,13.57-13.57H596s6.57-.22,6.79-6.79-6.79-6.78-6.79-6.78H575.64S548.5,285.42,548.5,313s27.14,27.13,27.14,27.13h47.49v.32H738.47s14,0,13.57,13.46-13.57,13.47-13.57,13.47H684.19s-6.78.11-6.78,6.68,6.78,6.78,6.78,6.78h54.28s27.14.42,27.14-26.92-27.14-27.35-27.14-27.35Z" transform="translate(-31.34 -61.95)"/></svg>