<svg id="svg5" xmlns="http://www.w3.org/2000/svg" viewBox="0 0 737.65 746.16"><defs><style>.cls-1{fill:#f8f8f8;}.cls-1,.cls-2,.cls-3,.cls-4,.cls-5,.cls-6,.cls-7,.cls-8,.cls-9{fill-rule:evenodd;}.cls-2{fill:#e4e9ef;}.cls-3{fill:#16aabc;}.cls-4{fill:#808b9b;}.cls-5{fill:#67d839;}.cls-6{fill:#f2a50c;}.cls-7{fill:#f7c63d;}.cls-8{fill:#fff;}.cls-9{fill:#ebcfb2;}</style></defs><g id="layer1"><path id="rect19954" class="cls-1" d="M35.32,30H413.5L583.83,202.16,583.72,757H35.31Z" transform="translate(-35.31 -29.97)"/><path id="path25329" class="cls-2" d="M35.32,183.59V757H486.08c-21.11-114.87-82-239.35-170.22-348-81.6-100.11-180.93-179.92-280.54-225.4Z" transform="translate(-35.31 -29.97)"/><path id="rect19969" class="cls-2" d="M583.83,202.16H413.6V30Z" transform="translate(-35.31 -29.97)"/><path id="rect19974" class="cls-3" d="M75,73.56H375.78V235H75Z" transform="translate(-35.31 -29.97)"/><path id="path19976" class="cls-4" d="M107.43,431.75a19.13,19.13,0,0,0,0,38.26H343.56a19.13,19.13,0,0,0,0-38.26Z" transform="translate(-35.31 -29.97)"/><path id="path19978" class="cls-4" d="M105.92,508.28a19.13,19.13,0,0,0,0,38.26H286.27a19.13,19.13,0,0,0,0-38.26Z" transform="translate(-35.31 -29.97)"/><path id="path19980" class="cls-4" d="M103.63,584.81a19.13,19.13,0,0,0,0,38.26H288.56a19.13,19.13,0,0,0,0-38.26Z" transform="translate(-35.31 -29.97)"/><path id="path19982" class="cls-4" d="M107.84,661.34a19.13,19.13,0,0,0,0,38.26H319a19.13,19.13,0,0,0,0-38.26Z" transform="translate(-35.31 -29.97)"/><path id="path20716" class="cls-5" d="M113.09,278.69a19.13,19.13,0,0,0,0,38.26H449.33a19.13,19.13,0,0,0,0-38.26Z" transform="translate(-35.31 -29.97)"/><path id="path20718" class="cls-5" d="M111,355.22a19.13,19.13,0,0,0,0,38.26H356.86a19.13,19.13,0,0,0,0-38.26Z" transform="translate(-35.31 -29.97)"/><path id="path19956" class="cls-6" d="M773,584.81c0,105.66-84.68,191.32-189.14,191.32S394.69,690.47,394.69,584.81s84.68-191.33,189.14-191.33S773,479.14,773,584.81Z" transform="translate(-35.31 -29.97)"/><path id="path24291" class="cls-7" d="M583.83,393.48c-104.46,0-189.14,85.66-189.14,191.33A191.48,191.48,0,0,0,503.81,758.2C600.47,727.66,670.6,636.36,670.6,528.53A241.3,241.3,0,0,0,634,400.32,187.25,187.25,0,0,0,583.83,393.48Z" transform="translate(-35.31 -29.97)"/><path id="path24192" class="cls-8" d="M583.83,437.88a19,19,0,0,0-19,19v24.62c-26,7.9-45.43,31.5-45.43,59.72,0,34.78,29.52,62.59,64.46,62.59,15.24,0,26.41,11.23,26.41,24.55s-11.17,24.47-26.41,24.47-26.41-11.15-26.41-24.47a19,19,0,0,0-19-19.06h0a19,19,0,0,0-19,19v0c0,28.22,19.44,51.81,45.43,59.71v24.59a19,19,0,0,0,19,19.06h0a19,19,0,0,0,19-19.06h0V688.09c26-7.89,45.43-31.48,45.43-59.71,0-34.78-29.48-62.59-64.42-62.59-15.25,0-26.41-11.24-26.41-24.55s11.16-24.48,26.41-24.48,26.41,11.16,26.41,24.48a19,19,0,0,0,19,19h0a19,19,0,0,0,19-19h0c0-28.24-19.43-51.83-45.43-59.72V456.93a19,19,0,0,0-19-19.05Z" transform="translate(-35.31 -29.97)"/><path id="path24184" class="cls-9" d="M583.83,497.71V456.93" transform="translate(-35.31 -29.97)"/><path id="path24196" class="cls-9" d="M583.83,712.69V671.9" transform="translate(-35.31 -29.97)"/></g></svg>