<?xml version="1.0" encoding="utf-8"?>
<!-- Generator: Adobe Illustrator 24.1.1, SVG Export Plug-In . SVG Version: 6.00 Build 0)  -->
<svg version="1.1" id="Layer_1" xmlns="http://www.w3.org/2000/svg" xmlns:xlink="http://www.w3.org/1999/xlink" x="0px" y="0px"
	 viewBox="0 0 778.1 613" style="enable-background:new 0 0 778.1 613;" xml:space="preserve">
<style type="text/css">
	.st0{fill:#797979;}
	.st1{fill:#FFD479;}
	.st2{fill:#16AABC;}
	.st3{fill:#C0C0C0;}
	.st4{fill:#FFFFFF;}
	.st5{fill:#E2B566;}
	.st6{fill:#67D839;}
	.st7{fill:none;stroke:#F9F9F9;stroke-width:15;stroke-linecap:round;stroke-linejoin:round;}
</style>
<path class="st0" d="M348.8,546.4c0-36.8-30-66.6-67.1-66.6s-67.1,29.8-67.1,66.6s30,66.6,67.1,66.6S348.8,583.2,348.8,546.4"/>
<path class="st0" d="M697.6,546.4c0-36.8-30-66.6-67.1-66.6s-67.1,29.8-67.1,66.6s30,66.6,67.1,66.6S697.6,583.2,697.6,546.4"/>
<path class="st1" d="M496.4,159.9H265.6c-12.4,60.8-66.6,106.6-131.5,106.6v106.6h241.5c74.1,0,134.1-59.6,134.1-133.2v-66.7
	C509.8,165.9,503.8,159.9,496.4,159.9"/>
<path class="st2" d="M769.7,409.8L711,386.5l-35.2-139.7c-3-11.9-13.7-20.2-26-20.2h-140v13.4c0,73.6-60,133.2-134.1,133.2H134.2
	v159.9c0,7.4,6,13.3,13.4,13.3c0,0,0,0,0,0h67.1c0-36.8,30-66.6,67.1-66.6s67.1,29.8,67.1,66.6h214.6c0-36.8,30-66.6,67.1-66.6
	s67.1,29.8,67.1,66.6h67.1c7.4,0,13.4-5.9,13.4-13.3c0,0,0,0,0,0V422.1C778.1,416.7,774.7,411.8,769.7,409.8"/>
<path class="st3" d="M281.7,573c-14.7-0.1-26.6-12.1-26.5-26.8c0.1-14.7,12.1-26.6,26.8-26.5c14.7,0.1,26.5,12,26.5,26.7
	C308.5,561.2,296.5,573.1,281.7,573"/>
<path class="st3" d="M630.5,573c-14.7-0.1-26.6-12.1-26.5-26.8s12.1-26.6,26.8-26.5c14.7,0.1,26.5,12,26.5,26.7
	C657.3,561.2,645.3,573.1,630.5,573"/>
<path class="st4" d="M590.3,453.1h-26.8c-7.4,0.2-13.5-5.6-13.7-13s5.6-13.5,13-13.7c0.2,0,0.5,0,0.7,0h26.8
	c7.4-0.2,13.5,5.6,13.7,13s-5.6,13.5-13,13.7C590.8,453.1,590.5,453.1,590.3,453.1"/>
<path class="st5" d="M415.9,239.9H229.9c-7.4,0.2-13.5-5.6-13.7-13c-0.2-7.4,5.6-13.5,13-13.7c0.2,0,0.5,0,0.7,0h185.9
	c7.4-0.2,13.5,5.6,13.7,13s-5.6,13.5-13,13.7C416.4,239.9,416.1,239.9,415.9,239.9"/>
<path class="st5" d="M389,319.8H201.2c-7.4,0.2-13.5-5.6-13.7-13c-0.2-7.4,5.6-13.5,13-13.7c0.2,0,0.5,0,0.7,0H389
	c7.4-0.2,13.5,5.6,13.7,13s-5.6,13.5-13,13.7C389.5,319.8,389.3,319.8,389,319.8"/>
<path class="st6" d="M268.3,133.3C268.3,59.7,208.3,0,134.2,0S0.1,59.7,0.1,133.3s60,133.3,134.1,133.3S268.3,206.9,268.3,133.3"/>
<path class="st4" d="M144.5,239.9c-2.3,0-4.5-0.9-6.1-2.5l-34.7-33.6c-3.4-3.2-3.4-8.5-0.1-11.8c0,0,0,0,0.1-0.1
	c3.4-3.3,8.9-3.3,12.3,0l27.2,26.3l46.1-67c2.7-3.9,8-4.9,12-2.3c4,2.5,5,7.7,2.4,11.6c0,0,0,0,0,0l-52,75.5
	c-1.4,2.1-3.8,3.4-6.3,3.7C145.1,239.8,144.8,239.9,144.5,239.9"/>
<path class="st4" d="M576.9,356.2v-63c-0.2-7.4-6.4-13.3-13.8-13c-7.1,0.2-12.9,5.9-13,13v63c0.1,24.1,19.7,43.6,43.9,43.6h150.7
	L711,386.5l-3.3-13.3H593.9C584.5,373.2,576.9,365.6,576.9,356.2"/>
<path class="st7" d="M59,155.8c0-23.3,18.9-42.3,42.3-42.3s42.3,18.9,42.3,42.3 M125.4,71.3c0,13.3-10.8,24.1-24.1,24.1
	S77.1,84.6,77.1,71.3c0-13.3,10.8-24.1,24.1-24.1C114.5,47.2,125.4,58,125.4,71.3C125.4,71.3,125.4,71.3,125.4,71.3z"/>
</svg>
