<svg id="Layer_1" data-name="Layer 1" xmlns="http://www.w3.org/2000/svg" viewBox="0 0 766.67 766.67"><defs><style>.cls-1{fill:#158a93;}.cls-2{fill:#16aabc;}.cls-3{fill:#353535;}.cls-4{fill:#e6e6e6;}.cls-5{fill:#67d839;}.cls-6{fill:#b3b3b3;}</style></defs><path class="cls-1" d="M683.33,33.33a16.66,16.66,0,0,0-16.66-16.66H133.33a16.66,16.66,0,0,0-16.66,16.66V200H683.33V33.33Z" transform="translate(-16.67 -16.67)"/><path class="cls-2" d="M716.67,183.33H83.33A66.66,66.66,0,0,0,16.67,250V583.33A33.34,33.34,0,0,0,50,616.67H166.67A16.67,16.67,0,0,0,183.33,600H616.65a16.67,16.67,0,0,0,16.67,16.67H750a33.34,33.34,0,0,0,33.33-33.34h0V250a66.66,66.66,0,0,0-66.66-66.67Z" transform="translate(-16.67 -16.67)"/><path class="cls-3" d="M683.33,616.67H116.67v-200A16.66,16.66,0,0,1,133.33,400H666.67a16.66,16.66,0,0,1,16.66,16.67Z" transform="translate(-16.67 -16.67)"/><path class="cls-4" d="M150,433.33V766.67a16.66,16.66,0,0,0,16.67,16.66H633.33A16.66,16.66,0,0,0,650,766.67V433.33Z" transform="translate(-16.67 -16.67)"/><path class="cls-5" d="M621.67,278.31a61.66,61.66,0,1,0,61.66-61.66A61.66,61.66,0,0,0,621.67,278.31Z" transform="translate(-16.67 -16.67)"/><path class="cls-5" d="M55,278.31a30.83,30.83,0,1,0,30.83-30.83A30.83,30.83,0,0,0,55,278.31Z" transform="translate(-16.67 -16.67)"/><path class="cls-6" d="M533.33,533.33H266.65a16.67,16.67,0,1,1,0-33.33H533.33a16.67,16.67,0,1,1,0,33.33Zm0,83.34H266.65a16.67,16.67,0,0,1,0-33.34H533.33a16.67,16.67,0,0,1,0,33.34ZM400,700H266.65a16.67,16.67,0,1,1,0-33.33H400A16.67,16.67,0,1,1,400,700Z" transform="translate(-16.67 -16.67)"/></svg>