<svg id="Layer_1" data-name="Layer 1" xmlns="http://www.w3.org/2000/svg" viewBox="0 0 753.1 706.36"><defs><style>.cls-1{fill:#797979;}.cls-2{fill:silver;}.cls-3{fill:#c69666;}.cls-4{fill:#16aabc;}.cls-5{fill:#f89954;}.cls-6{fill:#67d839;}.cls-7{fill:#e8d5b2;}.cls-8{fill:#0f8891;}.cls-9{fill:#ffe14d;}.cls-10{fill:#fc3;}.cls-11{fill:#ff9f19;}.cls-12{fill:#f28618;}</style></defs><path class="cls-1" d="M284.13,680.26A86.84,86.84,0,1,0,197.29,767a86.82,86.82,0,0,0,86.84-86.78" transform="translate(-25.68 -60.68)"/><path class="cls-1" d="M778.78,671.72c0-44.18-35.64-80-79.58-80s-79.58,35.83-79.58,80,35.64,80,79.58,80,79.58-35.83,79.58-80" transform="translate(-25.68 -60.68)"/><path class="cls-2" d="M197.29,715A34.71,34.71,0,1,1,232,680.26,34.73,34.73,0,0,1,197.29,715" transform="translate(-25.68 -60.68)"/><path class="cls-2" d="M699.2,703.72a32,32,0,1,1,31.83-32,31.92,31.92,0,0,1-31.83,32" transform="translate(-25.68 -60.68)"/><polygon class="cls-3" points="0 433.6 180.2 433.6 180.2 243.9 0 243.9 0 433.6"/><path class="cls-4" d="M373.2,128.43c0-37.41-28.82-67.75-64.36-67.75S244.49,91,244.49,128.43s28.81,67.75,64.35,67.75,64.36-30.34,64.36-67.75" transform="translate(-25.68 -60.68)"/><polygon class="cls-5" points="617.82 284.55 592.08 284.55 566.34 271 566.34 216.8 592.08 203.25 617.82 203.25 617.82 284.55"/><path class="cls-4" d="M445.15,438.56c-4.52-15.22-17.9-25.58-33-25.58H347.46l0-67.75H461.92c12.82,0,24.72-9.23,26.77-22.55,2.62-17-9.75-31.65-25.39-31.65H373.2V243.6c0-26.19-20.17-47.42-45.05-47.42H302.41c-24.89,0-45.05,21.23-45.05,47.42V446.85c0,26.2,20.16,47.43,45.05,47.43h96.53l38.62,135.5h64.35Z" transform="translate(-25.68 -60.68)"/><path class="cls-6" d="M753.37,553.08c-17.69-21.18-44.27-31.69-71-31.69H669.24c-8-42.28-35.78-77.42-73.8-93.42L592,426.54V277.48H463.3V291c14.22,0,25.74,12.13,25.74,27.1s-11.52,27.1-25.74,27.1v13.55h77.23v271H334.58l17.61-42A175.07,175.07,0,0,0,360.32,535c0-22.45-17.28-40.7-38.61-40.7H77.15c-21.32,0-38.61,18.19-38.61,40.65v16.81c0,6.91,3.73,12.9,9.2,16.73,16.52,11.58,21.56,34.72,11.5,52.71L42.83,650.56c-7.77,10.23-4.61,25.39,6.52,31.24A18.62,18.62,0,0,0,58.09,684H90c0-59.78,46.19-108.4,103-108.4S296,624.2,296,684H592c0-59.77,46.21-108.4,103-108.4,45.86,0,60.54,9.53,77.23,27.1,0-18.71-7.2-35.64-18.84-49.6" transform="translate(-25.68 -60.68)"/><polygon class="cls-7" points="64.36 298.1 115.84 298.1 115.84 243.9 64.36 243.9 64.36 298.1"/><path class="cls-8" d="M347.46,358.78c-21.28,0-38.6-18.22-38.6-40.64V277.48c0-7.48,5.75-13.55,12.87-13.55S334.6,270,334.6,277.48v40.66c0,7.47,5.77,13.54,12.86,13.54s12.87,6.07,12.87,13.55-5.75,13.55-12.87,13.55" transform="translate(-25.68 -60.68)"/><path class="cls-9" d="M128.29,281.13c-49.87,0-90.45-42.72-90.45-95.22s40.58-95.22,90.45-95.22,90.45,42.72,90.45,95.22S178.17,281.13,128.29,281.13Z" transform="translate(-25.68 -60.68)"/><path class="cls-10" d="M218.74,185.91c0-52.5-40.57-95.22-90.45-95.22V281.13C178.17,281.13,218.74,238.41,218.74,185.91Z" transform="translate(-25.68 -60.68)"/><path class="cls-11" d="M128.29,103.11c-43.37,0-78.65,37.15-78.65,82.8s35.28,82.8,78.65,82.8S207,231.57,207,185.91,171.66,103.11,128.29,103.11Zm0,153.18c-36.86,0-66.85-31.57-66.85-70.38s30-70.38,66.85-70.38,66.86,31.57,66.86,70.38S165.16,256.29,128.29,256.29Z" transform="translate(-25.68 -60.68)"/><path class="cls-12" d="M195.15,185.91c0,38.81-30,70.38-66.86,70.38v12.42c43.37,0,78.66-37.14,78.66-82.8s-35.29-82.8-78.66-82.8v12.42C165.16,115.53,195.15,147.1,195.15,185.91Z" transform="translate(-25.68 -60.68)"/><path class="cls-11" d="M149.92,202.47a22.71,22.71,0,0,1-15.73,21.9v2.94a5.91,5.91,0,1,1-11.8,0v-2.94a22.72,22.72,0,0,1-15.73-21.9,5.91,5.91,0,1,1,11.8,0,9.84,9.84,0,1,0,19.66,0,1.87,1.87,0,0,0-.07-.58c-.48-3.23-4.88-6.13-9.76-8.94-.9-.5-1.85-1-2.75-1.53-8.42-4.68-18.88-10.52-18.88-22.07a22.72,22.72,0,0,1,15.73-21.9v-2.94a5.91,5.91,0,1,1,11.8,0v2.94a22.71,22.71,0,0,1,15.73,21.9,5.91,5.91,0,1,1-11.8,0,9.84,9.84,0,1,0-19.66,0c0,3.44,4.64,6.54,9.83,9.52l2.76,1.54C139.46,185.08,149.92,190.92,149.92,202.47Z" transform="translate(-25.68 -60.68)"/><path class="cls-12" d="M149.92,202.47a22.71,22.71,0,0,1-15.73,21.9v2.94a6,6,0,0,1-5.9,6.21v-20.7a10.1,10.1,0,0,0,9.83-10.35,1.87,1.87,0,0,0-.07-.58c-.48-3.23-4.88-6.12-9.76-8.94V178.87l2.76,1.54C139.46,185.08,149.92,190.92,149.92,202.47Z" transform="translate(-25.68 -60.68)"/><path class="cls-12" d="M138.12,169.35a5.91,5.91,0,1,0,11.8,0c0-10.4-6.66-19.17-15.73-21.88v-3a6.06,6.06,0,0,0-5.9-6.21V159A10.11,10.11,0,0,1,138.12,169.35Z" transform="translate(-25.68 -60.68)"/></svg>