<svg id="svg5" xmlns="http://www.w3.org/2000/svg" viewBox="0 0 664.25 729.05"><defs><style>.cls-1{fill:#f8f8f8;}.cls-1,.cls-2,.cls-3,.cls-4,.cls-5,.cls-6{fill-rule:evenodd;}.cls-2{fill:#e4e9ef;}.cls-3{fill:#16aabc;}.cls-4{fill:#808b9b;}.cls-12,.cls-5{fill:#67d839;}.cls-6{fill:#ebcfb2;}.cls-7{fill:#45aab8;}.cls-8{fill:#f9ebb2;}.cls-9{fill:#f76d57;}.cls-10{fill:#394240;}.cls-11{fill:#fff;}</style></defs><g id="layer1"><path id="rect19954" class="cls-1" d="M35.32,30H413.5L583.83,202.16,583.72,757H35.31Z" transform="translate(-35.31 -29.97)"/><path id="path25329" class="cls-2" d="M35.32,183.59V757H486.08c-21.11-114.87-82-239.35-170.22-348-81.6-100.11-180.93-179.92-280.54-225.4Z" transform="translate(-35.31 -29.97)"/><path id="rect19969" class="cls-2" d="M583.83,202.16H413.6V30Z" transform="translate(-35.31 -29.97)"/><path id="rect19974" class="cls-3" d="M75,73.56H375.78V235H75Z" transform="translate(-35.31 -29.97)"/><path id="path19976" class="cls-4" d="M107.43,431.75a19.13,19.13,0,0,0,0,38.26H343.56a19.13,19.13,0,0,0,0-38.26Z" transform="translate(-35.31 -29.97)"/><path id="path19978" class="cls-4" d="M105.92,508.28a19.13,19.13,0,0,0,0,38.26H286.27a19.13,19.13,0,0,0,0-38.26Z" transform="translate(-35.31 -29.97)"/><path id="path19980" class="cls-4" d="M103.63,584.81a19.13,19.13,0,0,0,0,38.26H288.56a19.13,19.13,0,0,0,0-38.26Z" transform="translate(-35.31 -29.97)"/><path id="path19982" class="cls-4" d="M107.84,661.34a19.13,19.13,0,0,0,0,38.26H319a19.13,19.13,0,0,0,0-38.26Z" transform="translate(-35.31 -29.97)"/><path id="path20716" class="cls-5" d="M113.09,278.69a19.13,19.13,0,0,0,0,38.26H449.33a19.13,19.13,0,0,0,0-38.26Z" transform="translate(-35.31 -29.97)"/><path id="path20718" class="cls-5" d="M111,355.22a19.13,19.13,0,0,0,0,38.26H356.86a19.13,19.13,0,0,0,0-38.26Z" transform="translate(-35.31 -29.97)"/><path id="path24184" class="cls-6" d="M583.83,497.71V456.93" transform="translate(-35.31 -29.97)"/><path id="path24196" class="cls-6" d="M583.83,712.69V671.9" transform="translate(-35.31 -29.97)"/></g><polygon class="cls-7" points="571.15 647.88 525.77 693.26 423.77 693.26 378.38 647.88 378.38 510.35 571.15 510.35 571.15 647.88"/><path class="cls-8" d="M413.7,715.28a8,8,0,0,0,7.95,8h26.19L413.7,689.09Z" transform="translate(-35.31 -29.97)"/><path class="cls-8" d="M572.33,723.23h26.19a8,8,0,0,0,8-8V689.09Z" transform="translate(-35.31 -29.97)"/><path class="cls-9" d="M622.37,524.41a8,8,0,0,1-8,8H405.75a8,8,0,0,1-8-8V492.6a8,8,0,0,1,8-8H614.42a8,8,0,0,1,8,8Z" transform="translate(-35.31 -29.97)"/><path class="cls-10" d="M614.42,476.7H405.75a15.9,15.9,0,0,0-15.91,15.9v31.81a15.9,15.9,0,0,0,15.91,15.91v175a15.89,15.89,0,0,0,15.9,15.9H598.52a15.89,15.89,0,0,0,15.9-15.9v-175a15.9,15.9,0,0,0,15.91-15.91V492.6A15.9,15.9,0,0,0,614.42,476.7Zm-7.95,201.15-45.39,45.38h-102L413.7,677.85V540.32H606.47ZM413.7,715.28V689.09l34.14,34.14H421.65A8,8,0,0,1,413.7,715.28Zm184.82,8H572.33l34.14-34.14v26.19A8,8,0,0,1,598.52,723.23Zm23.85-198.82a8,8,0,0,1-8,8H405.75a8,8,0,0,1-8-8V492.6a8,8,0,0,1,8-8H614.42a8,8,0,0,1,8,8Z" transform="translate(-35.31 -29.97)"/><path class="cls-10" d="M473.34,603.94h73.48a11.93,11.93,0,0,0,0-23.86H473.34a11.93,11.93,0,0,0,0,23.86Zm0-15.91h73.48a4,4,0,0,1,0,8H473.34a4,4,0,0,1,0-8Z" transform="translate(-35.31 -29.97)"/><path class="cls-11" d="M473.34,588h73.48a4,4,0,0,1,0,8H473.34a4,4,0,0,1,0-8Z" transform="translate(-35.31 -29.97)"/><polygon class="cls-7" points="640.4 675.72 595.01 721.1 493.01 721.1 447.63 675.72 447.63 538.19 640.4 538.19 640.4 675.72"/><path class="cls-8" d="M482.94,743.11a8,8,0,0,0,8,7.95h26.18l-34.14-34.14Z" transform="translate(-35.31 -29.97)"/><path class="cls-8" d="M641.57,751.06h26.19a7.94,7.94,0,0,0,8-7.95V716.92Z" transform="translate(-35.31 -29.97)"/><path class="cls-12" d="M691.62,552.25a8,8,0,0,1-8,8H475a8,8,0,0,1-7.95-8V520.44a8,8,0,0,1,7.95-8H683.66a8,8,0,0,1,8,8Z" transform="translate(-35.31 -29.97)"/><path class="cls-10" d="M683.66,504.53H475a15.9,15.9,0,0,0-15.9,15.91v31.81a15.89,15.89,0,0,0,15.9,15.9v175A15.9,15.9,0,0,0,490.9,759H667.76a15.9,15.9,0,0,0,15.9-15.91v-175a15.89,15.89,0,0,0,15.91-15.9V520.44A15.9,15.9,0,0,0,683.66,504.53Zm-7.95,201.16-45.38,45.37h-102l-45.39-45.37V568.15H675.71ZM482.94,743.11V716.92l34.14,34.14H490.9A8,8,0,0,1,482.94,743.11Zm184.82,7.95H641.57l34.14-34.14v26.19A7.94,7.94,0,0,1,667.76,751.06Zm23.86-198.81a8,8,0,0,1-8,8H475a8,8,0,0,1-7.95-8V520.44a8,8,0,0,1,7.95-8H683.66a8,8,0,0,1,8,8Z" transform="translate(-35.31 -29.97)"/><path class="cls-10" d="M542.59,631.77h73.48a11.93,11.93,0,1,0,0-23.85H542.59a11.93,11.93,0,1,0,0,23.85Zm0-15.9h73.48a4,4,0,0,1,0,8H542.59a4,4,0,1,1,0-8Z" transform="translate(-35.31 -29.97)"/><path class="cls-11" d="M542.59,615.87h73.48a4,4,0,0,1,0,8H542.59a4,4,0,1,1,0-8Z" transform="translate(-35.31 -29.97)"/></svg>