<?xml version="1.0" encoding="utf-8"?>
<!-- Generator: Adobe Illustrator 24.1.1, SVG Export Plug-In . SVG Version: 6.00 Build 0)  -->
<svg version="1.1" id="Layer_1" xmlns="http://www.w3.org/2000/svg" xmlns:xlink="http://www.w3.org/1999/xlink" x="0px" y="0px"
	 viewBox="0 0 762.8 605.2" style="enable-background:new 0 0 762.8 605.2;" xml:space="preserve">
<style type="text/css">
	.st0{fill:#797979;}
	.st1{fill:#FFD479;}
	.st2{fill:#16AABC;}
	.st3{fill:#C0C0C0;}
	.st4{fill:#FFFAFA;}
	.st5{fill:#E2B566;}
	.st6{fill:#67D839;}
	.st7{fill:#FFFFFF;}
</style>
<path class="st0" d="M670.4,528.1c0-42.6-34.5-77.1-77.1-77.1s-77.1,34.5-77.1,77.1s34.5,77.1,77.1,77.1l0,0
	C635.8,605.2,670.3,570.7,670.4,528.1"/>
<path class="st1" d="M439.1,81.1H145.2c-2.6,4.9-5.3,10-8,15.4C91.5,185.6,22.9,296.9,22.9,296.9v30.8h277.5
	c85.1,0,154.1-69,154.1-154.1V96.5C454.5,88,447.6,81.1,439.1,81.1"/>
<path class="st2" d="M753.2,370.1l-67.4-27l-40.4-161.6c-3.4-13.7-15.8-23.4-29.9-23.4h-161v15.4c0,85.1-69,154.1-154.1,154.1l0,0
	H22.9v185c0,8.5,6.9,15.4,15.4,15.4l0,0h77.1c-0.5-42.6,33.6-77.5,76.2-78s77.5,33.6,78,76.2c0,0.6,0,1.2,0,1.8h246.6
	c0-42.6,34.6-77.1,77.1-77c42.5,0,77,34.5,77,77h77.1c8.5,0,15.4-6.9,15.4-15.4l0,0V384.4C762.9,378.1,759,372.4,753.2,370.1"/>
<path class="st0" d="M269.6,528.1c0-42.6-34.5-77.1-77.1-77.1s-77.1,34.5-77.1,77.1s34.5,77.1,77.1,77.1l0,0
	C235.1,605.2,269.6,570.7,269.6,528.1"/>
<path class="st3" d="M192.5,558.9c-17,0-30.8-13.8-30.8-30.8s13.8-30.8,30.8-30.8s30.8,13.8,30.8,30.8
	C223.3,545.1,209.5,558.9,192.5,558.9"/>
<path class="st3" d="M593.3,558.9c-17,0-30.8-13.8-30.8-30.8s13.8-30.8,30.8-30.8s30.8,13.8,30.8,30.8
	C624.1,545.1,610.3,558.9,593.3,558.9"/>
<path class="st4" d="M547,420.2h-30.8c-8.5,0.2-15.6-6.5-15.8-15c-0.2-8.5,6.5-15.6,15-15.8c0.3,0,0.5,0,0.8,0H547
	c8.5,0.2,15.2,7.3,15,15.8C561.9,413.4,555.2,420,547,420.2"/>
<path class="st5" d="M346.6,173.6H104.1c-8.5-0.2-15.2-7.3-15-15.8c0.2-8.2,6.8-14.8,15-15h242.5c8.5-0.2,15.6,6.5,15.8,15
	s-6.5,15.6-15,15.8C347.2,173.6,346.9,173.6,346.6,173.6"/>
<path class="st5" d="M315.8,266H100c-8.5,0-15.4-6.9-15.4-15.4c0-8.5,6.9-15.4,15.4-15.4l0,0h215.8c8.5,0,15.4,6.9,15.4,15.4
	C331.2,259.1,324.3,266,315.8,266"/>
<path class="st6" d="M88.7,0C37.3,0,0,40.2,0,84.2c0,26.4,9.8,40.9,23,66.5C49.3,202,88.7,266,88.7,266s39.5-64,65.7-115.3
	c13.1-25.6,22.9-40.1,22.9-66.5C177.4,40.2,140.1,0,88.7,0"/>
<path class="st7" d="M133,88.7c0-24.5-19.8-44.4-44.3-44.4S44.3,64.2,44.3,88.6S64.2,133,88.7,133l0,0C113.2,133,133,113.2,133,88.7
	"/>
<path class="st4" d="M531.6,308.1v-72.9c-0.2-8.5-7.3-15.2-15.8-15c-8.2,0.2-14.8,6.8-15,15v72.9c0,27.8,22.6,50.4,50.4,50.4h173.1
	l-38.5-15.4l-3.8-15.4H551.2C540.4,327.7,531.6,319,531.6,308.1"/>
</svg>
