<svg id="Layer_1" data-name="Layer 1" xmlns="http://www.w3.org/2000/svg" viewBox="0 0 749.3 749.3"><defs><style>.cls-1{fill:#d29b6e;}.cls-2{fill:#67d839;}.cls-3{fill:#16aabc;}.cls-4{fill:#c7cfe2;}.cls-5{fill:#f0c087;}.cls-6{fill:#5a4146;}</style></defs><path class="cls-1" d="M547.58,621.44V559.86a37.56,37.56,0,0,0-24.36-35.16L463.7,502.38c-9.76-3.66-16.24-15.21-16.24-25.64H347.35c0,10.44-6.47,22-16.24,25.64L271.59,524.7a37.56,37.56,0,0,0-24.36,35.16v61.58S288,671.5,397.41,671.5,547.58,621.44,547.58,621.44Z" transform="translate(-22.75 -34.04)"/><path class="cls-2" d="M397.41,671.5c109.42,0,150.17-50.06,150.17-50.06V559.86a37.56,37.56,0,0,0-24.36-35.16l-48.14-18.05L413.43,558a25,25,0,0,1-32.05,0l-61.65-51.38L271.59,524.7a37.56,37.56,0,0,0-24.36,35.16v61.58S288,671.5,397.41,671.5Z" transform="translate(-22.75 -34.04)"/><path class="cls-3" d="M756.53,356.72a12.53,12.53,0,0,0-12.44-10.6H716.71a323.78,323.78,0,0,0-49.26-119l19.32-19.33a12.52,12.52,0,0,0,1.29-16.31A364.75,364.75,0,0,0,614.6,118a12.54,12.54,0,0,0-16.32,1.29L579,138.65A323.61,323.61,0,0,0,460,89.39V62a12.52,12.52,0,0,0-10.6-12.44,357.35,357.35,0,0,0-103.95,0A12.53,12.53,0,0,0,334.83,62V89.39a323.61,323.61,0,0,0-119,49.26l-19.32-19.33A12.56,12.56,0,0,0,180.21,118a365.06,365.06,0,0,0-73.46,73.47A12.53,12.53,0,0,0,108,207.81l19.33,19.33a323.37,323.37,0,0,0-49.26,119H50.72a12.52,12.52,0,0,0-12.44,10.6,358.21,358.21,0,0,0,0,103.94,12.52,12.52,0,0,0,12.44,10.6H78.1a323.54,323.54,0,0,0,49.26,119L108,609.57a12.52,12.52,0,0,0-1.29,16.31,364.8,364.8,0,0,0,73.46,73.47,12.56,12.56,0,0,0,16.32-1.29l19.32-19.33a323.54,323.54,0,0,0,119,49.26v27.39a12.51,12.51,0,0,0,10.6,12.43,357.35,357.35,0,0,0,104,0A12.51,12.51,0,0,0,460,755.38V728a323.57,323.57,0,0,0,119-49.26l19.33,19.33a12.55,12.55,0,0,0,16.31,1.29,364.85,364.85,0,0,0,73.47-73.47,12.53,12.53,0,0,0-1.29-16.31l-19.32-19.33a323.53,323.53,0,0,0,49.25-119h27.39a12.52,12.52,0,0,0,12.44-10.6,358.21,358.21,0,0,0,0-103.94ZM397.41,659c-138.24,0-250.29-112.06-250.29-250.29S259.17,158.4,397.41,158.4,647.69,270.46,647.69,408.69,535.64,659,397.41,659Z" transform="translate(-22.75 -34.04)"/><path class="cls-4" d="M397.41,120.86c-159,0-287.84,128.87-287.84,287.83S238.44,696.52,397.41,696.52,685.24,567.66,685.24,408.69,556.37,120.86,397.41,120.86Zm0,538.12c-138.24,0-250.29-112.06-250.29-250.29S259.17,158.4,397.41,158.4,647.69,270.46,647.69,408.69,535.64,659,397.41,659Z" transform="translate(-22.75 -34.04)"/><path class="cls-5" d="M481.45,324.42l-7.81,117.13a37.52,37.52,0,0,1-14.94,27.54l-26.25,19.7a37.58,37.58,0,0,1-22.53,7.5h-25a37.53,37.53,0,0,1-22.52-7.5l-26.26-19.7a37.56,37.56,0,0,1-14.94-27.54l-7.81-117.13A50.07,50.07,0,0,1,363.31,271H431.5A50.07,50.07,0,0,1,481.45,324.42Z" transform="translate(-22.75 -34.04)"/><path class="cls-6" d="M431.5,271H363.31a50.07,50.07,0,0,0-49.95,53.39l3.12,46.7c4.3-.3,111.64-8,164.21-35.31l.76-11.39A50.07,50.07,0,0,0,431.5,271Z" transform="translate(-22.75 -34.04)"/><path d="M397.41,146.67c-144.48,0-262,117.54-262,262s117.55,262,262,262,262-117.55,262-262S541.88,146.67,397.41,146.67Zm-72.34,177a38.32,38.32,0,0,1,38.24-40.87H431.5a38.32,38.32,0,0,1,38.24,40.87h0l-.11,1.73c-39.88,22.71-119.81,31.5-142.2,33.57Zm142.75,28.79-3.09,46.31c-1.29,19.39-18.8,35.77-38.23,35.77H397.41a11.73,11.73,0,1,0,0,23.46H426.5a60.83,60.83,0,0,0,34.09-10.64,25.71,25.71,0,0,1-8.92,12.38L425.41,479.4a26,26,0,0,1-15.49,5.16h-25a26,26,0,0,1-15.49-5.16l-26.25-19.69a25.77,25.77,0,0,1-10.27-18.94L329,382.37C349.9,380.51,421.21,372.88,467.82,352.43ZM354.13,497.28l1.19.89A49.59,49.59,0,0,0,384.89,508h25a49.54,49.54,0,0,0,29.56-9.86l1.19-.89a37.16,37.16,0,0,0,10.55,11.61l-53.81,35.88-53.82-35.88A37.13,37.13,0,0,0,354.13,497.28ZM535.85,602.86A237.21,237.21,0,0,1,409.14,647V565.15L477,519.9l42.1,15.79a25.92,25.92,0,0,1,16.75,24.16v43Zm-218-83,67.86,45.25V647A237.21,237.21,0,0,1,259,602.86v-43a25.94,25.94,0,0,1,16.75-24.17Zm241.5,63.82V559.86a49.5,49.5,0,0,0-32-46.14L467.82,491.4a13.39,13.39,0,0,1-8-8.47l5.93-4.45a49.22,49.22,0,0,0,19.6-36.15l2.8-42h0l5-75.08a61.79,61.79,0,0,0-61.65-65.9H363.31a61.79,61.79,0,0,0-61.65,65.9l7.81,117.14a49.22,49.22,0,0,0,19.6,36.14l5.93,4.45a13.34,13.34,0,0,1-8,8.47l-59.52,22.32a49.5,49.5,0,0,0-32,46.14v23.86a237.93,237.93,0,0,1-76.65-175c0-131.54,107-238.55,238.55-238.55S636,277.15,636,408.69A237.93,237.93,0,0,1,559.31,583.72Z" transform="translate(-22.75 -34.04)"/><path d="M768.14,355a24.35,24.35,0,0,0-24-20.65H726.23A333.29,333.29,0,0,0,682.48,228.7l12.59-12.59a24.35,24.35,0,0,0,2.38-31.64,376.27,376.27,0,0,0-75.82-75.83A24.35,24.35,0,0,0,590,111L577.4,123.62A333.31,333.31,0,0,0,471.71,79.86V62a24.35,24.35,0,0,0-20.65-24,369.16,369.16,0,0,0-107.31,0A24.35,24.35,0,0,0,323.1,62V79.87a333.29,333.29,0,0,0-105.69,43.75L204.82,111a24.35,24.35,0,0,0-31.64-2.38,376.22,376.22,0,0,0-75.82,75.82,24.35,24.35,0,0,0,2.38,31.64l12.59,12.59A333.29,333.29,0,0,0,68.58,334.39H50.72a24.36,24.36,0,0,0-24,20.65,369.16,369.16,0,0,0,0,107.31,24.36,24.36,0,0,0,24,20.65H68.58a333.47,333.47,0,0,0,43.75,105.68l-12.59,12.6a24.35,24.35,0,0,0-2.38,31.64,376.74,376.74,0,0,0,75.82,75.82,24.35,24.35,0,0,0,31.64-2.38l12.59-12.59A333.52,333.52,0,0,0,323.1,737.52v17.86a24.36,24.36,0,0,0,20.65,24,370.1,370.1,0,0,0,107.31,0,24.36,24.36,0,0,0,20.65-24V737.52A333.52,333.52,0,0,0,577.4,693.77L590,706.36a24.35,24.35,0,0,0,31.64,2.38,376.53,376.53,0,0,0,75.83-75.82,24.37,24.37,0,0,0-2.39-31.65l-12.59-12.59A333.35,333.35,0,0,0,726.24,483H744.1a24.33,24.33,0,0,0,24-20.64,369.16,369.16,0,0,0,0-107.31ZM744.92,459a.83.83,0,0,1-.83.55H716.71A11.74,11.74,0,0,0,705.19,469a310.44,310.44,0,0,1-47.47,114.67,11.73,11.73,0,0,0,1.43,14.85l19.33,19.33a.83.83,0,0,1,.19,1,352.76,352.76,0,0,1-71.1,71.1.85.85,0,0,1-1-.19l-19.32-19.32A11.75,11.75,0,0,0,572.4,669a310.35,310.35,0,0,1-114.66,47.48A11.72,11.72,0,0,0,448.25,728v27.39a.81.81,0,0,1-.55.82,345.47,345.47,0,0,1-100.58,0,.82.82,0,0,1-.55-.82V728a11.73,11.73,0,0,0-9.49-11.51A310.46,310.46,0,0,1,222.41,669a11.73,11.73,0,0,0-14.85,1.44l-19.33,19.32a.85.85,0,0,1-1,.19,352.76,352.76,0,0,1-71.1-71.1.84.84,0,0,1,.19-1l19.33-19.33a11.73,11.73,0,0,0,1.43-14.85A310.44,310.44,0,0,1,89.62,469a11.73,11.73,0,0,0-11.52-9.49H50.72a.83.83,0,0,1-.83-.55,346.4,346.4,0,0,1,0-100.58.83.83,0,0,1,.83-.55H78.1a11.73,11.73,0,0,0,11.52-9.49A310.33,310.33,0,0,1,137.09,233.7a11.72,11.72,0,0,0-1.43-14.85l-19.33-19.33a.87.87,0,0,1-.19-1,353,353,0,0,1,71.1-71.1.85.85,0,0,1,1,.19L207.56,147a11.74,11.74,0,0,0,14.85,1.43,310.33,310.33,0,0,1,114.66-47.47,11.73,11.73,0,0,0,9.49-11.52V62a.83.83,0,0,1,.55-.83,346.4,346.4,0,0,1,100.58,0,.84.84,0,0,1,.56.83V89.39a11.73,11.73,0,0,0,9.48,11.52A310.44,310.44,0,0,1,572.4,148.38,11.73,11.73,0,0,0,587.25,147l19.33-19.33a.85.85,0,0,1,1-.19,353,353,0,0,1,71.1,71.1.85.85,0,0,1-.19,1l-19.33,19.33a11.73,11.73,0,0,0-1.43,14.85,310.3,310.3,0,0,1,47.47,114.67,11.73,11.73,0,0,0,11.52,9.48h27.38a.84.84,0,0,1,.83.56,346.33,346.33,0,0,1,0,100.57Z" transform="translate(-22.75 -34.04)"/></svg>