<svg id="Layer_1" data-name="Layer 1" xmlns="http://www.w3.org/2000/svg" viewBox="0 0 774.72 617.65"><defs><style>.cls-1{fill:#22acdd;}.cls-2{fill:#f60;}.cls-3{fill:#919191;}.cls-4{fill:#67d839;}.cls-5{fill:#16aabc;}</style></defs><rect class="cls-1" y="586.41" width="774.72" height="31.24"/><rect class="cls-2" x="575.16" y="479.79" width="199.56" height="53.55"/><rect class="cls-2" x="277.16" y="479.79" width="199.56" height="53.55"/><rect class="cls-2" y="479.79" width="199.56" height="53.55"/><ellipse class="cls-3" cx="204.12" cy="106.15" rx="74.26" ry="99.12"/><path class="cls-4" d="M214.88,541.23l-71.76-207.6S67.87,335,67.87,427.38V541.23Z" transform="translate(-14.28 -105.43)"/><path class="cls-4" d="M221.91,541.23l71.76-207.6s75.25,1.35,75.25,93.75V541.23Z" transform="translate(-14.28 -105.43)"/><polygon class="cls-1" points="204.12 228.2 152.44 228.2 204.12 380.89 255.79 228.2 204.12 228.2"/><ellipse class="cls-3" cx="567.33" cy="99.12" rx="74.26" ry="99.12"/><path class="cls-5" d="M578.09,534.2,506.33,326.59s-75.25,1.36-75.25,93.75V534.2Z" transform="translate(-14.28 -105.43)"/><path class="cls-5" d="M585.12,534.2l71.76-207.61s75.25,1.36,75.25,93.75V534.2Z" transform="translate(-14.28 -105.43)"/><polygon class="cls-1" points="567.33 221.17 515.65 221.17 567.33 373.86 619 221.17 567.33 221.17"/></svg>