<svg id="Layer_1" data-name="Layer 1" xmlns="http://www.w3.org/2000/svg" viewBox="0 0 726.3 561.45"><defs><style>.cls-1,.cls-6{fill:#fff;}.cls-2{fill:#67d839;}.cls-3,.cls-4,.cls-7{fill:none;stroke:#515f76;}.cls-3,.cls-4,.cls-6,.cls-7{stroke-miterlimit:54.79;}.cls-3,.cls-6,.cls-7{stroke-width:13.15px;}.cls-4,.cls-6,.cls-7{stroke-linecap:round;}.cls-4{stroke-width:10.96px;}.cls-5{fill:#16aabc;}.cls-6{stroke:#fff;}.cls-8{fill:#a4e0b3;}</style></defs><path class="cls-1" d="M367.07,211.44a59.48,59.48,0,0,1,59.49,59.49c0,32.84-26.64,69.83-59.49,69.83s-59.48-37-59.48-69.83a59.48,59.48,0,0,1,59.48-59.49Z" transform="translate(-53.24 -96.24)"/><path class="cls-2" d="M620.53,190.56v171H618a38.8,38.8,0,0,0-38.8,38.79,22.38,22.38,0,0,0,0,2.59H149.69a18.66,18.66,0,0,0,0-2.59,38.79,38.79,0,0,0-38.79-38.79h-2.59v-171h2.59a38.79,38.79,0,0,0,38.79-38.8,18.51,18.51,0,0,0,0-2.58H579.34a22.21,22.21,0,0,0,0,2.58,38.8,38.8,0,0,0,38.8,38.8Zm-194,80.3a59.49,59.49,0,1,0-59.49,59.49h0a59.49,59.49,0,0,0,59.49-59.42Z" transform="translate(-53.24 -96.24)"/><path class="cls-1" d="M667.09,102.82a5.17,5.17,0,0,1,5.17,5.17h0V444.21a5.17,5.17,0,0,1-5.17,5.17h-600a5.17,5.17,0,0,1-5.17-5.17h0V108a5.17,5.17,0,0,1,5.17-5.17ZM620.53,361.45V190.56H618a38.8,38.8,0,0,1-38.8-38.8,22.21,22.21,0,0,1,0-2.58H149.69a18.51,18.51,0,0,1,0,2.58,38.79,38.79,0,0,1-38.79,38.8h-2.59v171h2.59a38.79,38.79,0,0,1,38.79,38.79,18.66,18.66,0,0,1,0,2.59H579.34a22.38,22.38,0,0,1,0-2.59,38.8,38.8,0,0,1,38.8-38.79Z" transform="translate(-53.24 -96.24)"/><path class="cls-3" d="M672.26,214V444.21a5.17,5.17,0,0,1-5.17,5.17h-600a5.17,5.17,0,0,1-5.17-5.17h0V108a5.17,5.17,0,0,1,5.17-5.17h600a5.17,5.17,0,0,1,5.17,5.17h0V214Z" transform="translate(-53.24 -96.24)"/><circle class="cls-3" cx="313.83" cy="174.69" r="59.49"/><line class="cls-4" x1="154.19" y1="130.72" x2="212.38" y2="130.72"/><line class="cls-4" x1="115.4" y1="175.98" x2="212.38" y2="175.98"/><line class="cls-4" x1="154.19" y1="221.24" x2="212.38" y2="221.24"/><line class="cls-4" x1="477.48" y1="124.25" x2="419.29" y2="124.25"/><line class="cls-4" x1="516.28" y1="169.51" x2="419.29" y2="169.51"/><line class="cls-4" x1="477.48" y1="214.77" x2="419.29" y2="214.77"/><line class="cls-4" x1="5.48" y1="408.75" x2="580.93" y2="408.75"/><line class="cls-4" x1="5.48" y1="466.94" x2="561.54" y2="466.94"/><line class="cls-4" x1="5.48" y1="518.66" x2="580.93" y2="518.66"/><circle class="cls-5" cx="643.31" cy="478.46" r="76.41"/><line class="cls-6" x1="625.48" y1="456.59" x2="641" y2="446.25"/><line class="cls-6" x1="643.59" y1="497.97" x2="643.59" y2="446.25"/><line class="cls-6" x1="628.07" y1="503.15" x2="659.1" y2="503.15"/><circle class="cls-7" cx="643.31" cy="478.46" r="76.41"/><path class="cls-8" d="M126.55,211.25h-1.3c16.49,0,31-16.1,36.73-23.47a10.25,10.25,0,0,1,7.69-3.95c47.33-1.94,413.81-11.38,413.81-11.38-2.84-10.34-4.52-11.57-4.52-18.1a12.46,12.46,0,0,1,0-2.59H149.69a2.11,2.11,0,0,1,0,1.36A37.88,37.88,0,0,1,117.37,190c-14.42,2.26-3.3.52-11.77.32V361.58a8,8,0,1,0,2.58,0c4.53,0,18.11.84,18.11,2.26V211.25Z" transform="translate(-53.24 -96.24)"/><path class="cls-3" d="M615.68,190.62a39.83,39.83,0,0,1-36.4-36.4,23.48,23.48,0,0,1,0-3.75,1,1,0,0,0-1-1.1H150.79a1,1,0,0,0-1,1v.07a25.11,25.11,0,0,1,0,3.68,39.84,39.84,0,0,1-36.4,36.41,25.25,25.25,0,0,1-3.69,0,1,1,0,0,0-1.1,1V360.35a1,1,0,0,0,1,1h.07a26.08,26.08,0,0,1,3.75,0,40,40,0,0,1,36.4,36.4,23.47,23.47,0,0,1,0,3.75,1,1,0,0,0,1,1.1H578.25a1,1,0,0,0,1-1.09h0a23.47,23.47,0,0,1,0-3.75,39.83,39.83,0,0,1,36.4-36.4,26.08,26.08,0,0,1,3.75,0,1,1,0,0,0,1.1-1V191.72a1,1,0,0,0-1-1h-.06A23.94,23.94,0,0,1,615.68,190.62Z" transform="translate(-53.24 -96.24)"/></svg>