<svg id="Layer_1" data-name="Layer 1" xmlns="http://www.w3.org/2000/svg" viewBox="0 0 475.25 729.28"><defs><style>.cls-1{fill:#d2f0ea;}.cls-2{fill:#16aabc;}.cls-3{fill:#fff;}.cls-4{fill:#67d839;}</style></defs><path class="cls-1" d="M560.05,35.36H231a45.52,45.52,0,0,0-45.58,45.58V719.06A45.52,45.52,0,0,0,231,764.64H560.21a45.52,45.52,0,0,0,45.58-45.58V80.94A45.75,45.75,0,0,0,560.05,35.36Z" transform="translate(-185.39 -35.36)"/><rect class="cls-2" x="18.54" y="97.39" width="383.33" height="501.38"/><rect class="cls-3" x="138.41" y="49.68" width="143.58" height="16.26"/><circle class="cls-3" cx="395.51" cy="701.44" r="30.39" transform="translate(-545.61 944.12) rotate(-80.78)"/><path class="cls-4" d="M643,227.25l-131.88-43.6a27,27,0,0,0-16.26,0L363,227.25a25.64,25.64,0,0,0-17.63,24.46V416a112.16,112.16,0,0,0,42.85,88.12l93.59,73.24a34.46,34.46,0,0,0,42.39,0l93.59-73.24A111.73,111.73,0,0,0,660.63,416V251.71A25.84,25.84,0,0,0,643,227.25Z" transform="translate(-185.39 -35.36)"/><path class="cls-3" d="M425.75,456.22A50.84,50.84,0,0,1,406.15,416v-139l96.78-32.05,96.78,32.05V416a51.06,51.06,0,0,1-19.6,40.27l-77.18,60.46Z" transform="translate(-185.39 -35.36)"/></svg>