<svg id="Layer_1" data-name="Layer 1" xmlns="http://www.w3.org/2000/svg" viewBox="0 0 769.37 673.82"><defs><style>.cls-1{fill:#67d839;}.cls-2{fill:#e5e2df;}.cls-3{fill:#300604;}.cls-4{fill:#16aabc;}.cls-5{fill:#231f20;}</style></defs><path class="cls-1" d="M203,386.64c0,134.6,108.89,243.75,243.32,243.79s243.42-109,243.47-243.63v-.16c0-134.6-109-243.72-243.4-243.72S203,252,203,386.64Z" transform="translate(-9.29 -53.8)"/><path class="cls-2" d="M248.58,386.64c0,109.38,88.55,198.05,197.78,198.05S644.15,496,644.15,386.64,555.62,188.58,446.38,188.57s-197.79,88.65-197.8,198v0Z" transform="translate(-9.29 -53.8)"/><path class="cls-3" d="M447.38,603.3c-119,0-215.78-96.93-215.78-216.07s96.8-216.07,215.78-216.07,215.78,96.93,215.78,216.07S566.36,603.3,447.38,603.3Zm0-411c-107.36,0-194.71,87.46-194.71,195s87.35,195,194.71,195,194.71-87.46,194.71-195S554.74,192.26,447.38,192.26Z" transform="translate(-9.29 -53.8)"/><path class="cls-3" d="M447.38,649C303.25,649,186,531.55,186,387.23S303.25,125.49,447.38,125.49,708.77,242.91,708.77,387.23,591.51,649,447.38,649Zm0-502.37c-132.51,0-240.32,108-240.32,240.64S314.87,627.87,447.38,627.87s240.32-108,240.32-240.64S579.89,146.59,447.38,146.59Z" transform="translate(-9.29 -53.8)"/><path class="cls-3" d="M447.38,649C303.25,649,186,531.55,186,387.23S303.25,125.49,447.38,125.49,708.77,242.91,708.77,387.23,591.51,649,447.38,649Zm0-502.37c-132.51,0-240.32,108-240.32,240.64S314.87,627.87,447.38,627.87s240.32-108,240.32-240.64S579.89,146.59,447.38,146.59ZM197.59,200.15,180.74,187.5A334.75,334.75,0,0,1,310.79,83.06l8.66,19.24A313.71,313.71,0,0,0,197.59,200.15Zm500.64,1.43C639.58,122.26,545.81,74.9,447.38,74.9V53.8c105.07,0,205.18,50.55,267.79,135.23l-16.94,12.55Z" transform="translate(-9.29 -53.8)"/><path class="cls-3" d="M436.85,208h21.06v26.3H436.85ZM367,226.76l13.14,22.77-18.25,10.55L348.75,237.3Zm-69.33,61.73,22.74,13.15-10.54,18.27-22.74-13.15ZM268.4,376.68h26.26v21.1H268.4Zm41.46,77.9,10.53,18.27L297.65,486l-10.53-18.27Zm52,59.83L380.13,525,367,547.74l-18.24-10.55Zm75,25.75h21.06v26.29H436.85Zm96-25.75L546,537.18l-18.24,10.55L514.61,525Zm52.09-59.84,22.74,13.16L597.15,486,574.4,472.84Zm15.17-77.89h26.26v21.1H600.11Zm-3-88.18,10.54,18.27-22.74,13.15-10.54-18.27Zm-69.38-61.73L546,237.32l-13.14,22.77-18.24-10.55Z" transform="translate(-9.29 -53.8)"/><path class="cls-3" d="M416.9,458.6l-18.06-10.86,38-63.43V275.13h21.06v115Z" transform="translate(-9.29 -53.8)"/><path class="cls-4" d="M236.61,523.35A69.53,69.53,0,1,1,196.53,397h.25c-.13-3.24-.25-6.48-.25-9.75a250.74,250.74,0,0,1,19-96,6.29,6.29,0,0,0-4.47-1.89H182a6.33,6.33,0,0,0-6.26,5.44l-3.82,26.74a6.36,6.36,0,0,1-5,5.31,141,141,0,0,0-37.19,13.56,6.37,6.37,0,0,1-7.27-.83l-20.09-18a6.31,6.31,0,0,0-8.28-.13L71.76,340.1a6.34,6.34,0,0,0-1.3,8.2l14.25,23a6.38,6.38,0,0,1-.45,7.31,142.64,142.64,0,0,0-19.83,34.31,6.37,6.37,0,0,1-6.1,4L31.4,416A6.34,6.34,0,0,0,25,421.27l-5.05,28.67a6.33,6.33,0,0,0,4.26,7.12l25.66,8.42a6.38,6.38,0,0,1,4.36,5.89,154.42,154.42,0,0,0,6.6,39.38,6.37,6.37,0,0,1-2.11,6.89L37.74,534.1a6.33,6.33,0,0,0-1.57,8.15L50.7,567.46a6.34,6.34,0,0,0,7.84,2.71l23.11-9.29a6.25,6.25,0,0,1,7,1.63,128.4,128.4,0,0,0,32,26.33,6.27,6.27,0,0,1,2.93,6.73l-5.22,24.88a6.34,6.34,0,0,0,4,7.26l27.32,9.95a6.31,6.31,0,0,0,7.74-3l12.71-23.81a6.36,6.36,0,0,1,6.51-3.27,145.72,145.72,0,0,0,39.64,0,6.35,6.35,0,0,1,6.54,3.27l12.72,23.82a6.31,6.31,0,0,0,7.74,3l27.32-9.95a6.34,6.34,0,0,0,4-7.26L269.13,594a6.39,6.39,0,0,1,2.91-6.71,142,142,0,0,0,12.61-9A252,252,0,0,1,236.61,523.35Z" transform="translate(-9.29 -53.8)"/><path class="cls-3" d="M241.17,648.6a16.86,16.86,0,0,1-14.87-8.92L214.94,618.4a155.91,155.91,0,0,1-36.84,0l-11.35,21.24a17.11,17.11,0,0,1-20.63,7.91l-27.31-10a16.94,16.94,0,0,1-10.73-19.35l4.6-21.92a138.17,138.17,0,0,1-29.84-24.58L62.46,580a17.17,17.17,0,0,1-20.88-7.22L27.05,547.53a17,17,0,0,1,4.19-21.73l18.68-14.69a165.47,165.47,0,0,1-6.14-36.52l-22.88-7.5a17,17,0,0,1-11.35-19l5-28.66a16.83,16.83,0,0,1,16.59-13.95l24.58.8a153.52,153.52,0,0,1,18.46-32L61.51,353.87A17,17,0,0,1,65,332L87.27,313.3a17.28,17.28,0,0,1,22.07.36l17.92,16.08a152.29,152.29,0,0,1,34.64-12.62l3.4-23.84A17,17,0,0,1,182,278.78h29.08a16.71,16.71,0,0,1,12,5l4.92,5-2.68,6.46a239.67,239.67,0,0,0-18.21,92c0,3.13.13,6.24.24,9.34l.42,11-11.55,0a59,59,0,1,0,34.36,107.23l9-6.35,5.95,9.23a241.53,241.53,0,0,0,46,52.66l9.76,8.35-10.08,8c-3.95,3.12-7.62,5.8-11.14,8.12l5,23.58a17,17,0,0,1-10.72,19.34l-27.33,10a16.62,16.62,0,0,1-5.76,1ZM217.24,597a16.87,16.87,0,0,1,14.92,8.89l11,20.62,20.46-7.46-4.8-22.86a17,17,0,0,1,7.64-17.82c.48-.31,1-.61,1.46-.94A262.3,262.3,0,0,1,233.5,537.6a79.2,79.2,0,0,1-37,9.1A80.15,80.15,0,0,1,186,387.11a260.54,260.54,0,0,1,14.94-87.23h-15.3L182.35,323A17,17,0,0,1,169,337.15a130.63,130.63,0,0,0-34.42,12.54,17.24,17.24,0,0,1-19.25-2.29L98,331.82l-16.68,14,12.33,19.86a17,17,0,0,1-1.11,19.38A132.42,132.42,0,0,0,74.2,416.84a16.86,16.86,0,0,1-15.66,10.63L34.7,426.7l-3.78,21.48,22.19,7.27A17,17,0,0,1,64.71,471a144.18,144.18,0,0,0,6.17,36.69,16.82,16.82,0,0,1-5.7,18.22L47.12,540.14,58,559l19.73-7.92a17,17,0,0,1,18.89,4.47A118,118,0,0,0,126,579.73a16.77,16.77,0,0,1,8,18l-4.46,21.3,20.45,7.45,11-20.58a16.93,16.93,0,0,1,17.2-8.75,136.44,136.44,0,0,0,36.78,0,17,17,0,0,1,2.36-.16Z" transform="translate(-9.29 -53.8)"/><path class="cls-3" d="M196.53,546.7a80.14,80.14,0,0,1,0-160.28l10.39,0,.38,10.14a240.13,240.13,0,0,0,38.16,121.05l5.48,8.49L242.69,532A79.41,79.41,0,0,1,196.53,546.7Zm-9.64-138.39a59.05,59.05,0,0,0,9.64,117.3,58.36,58.36,0,0,0,25.5-5.84,261.39,261.39,0,0,1-35.14-111.46Z" transform="translate(-9.29 -53.8)"/><path class="cls-5" d="M331.66,661.61l14.23,15.56L326,695.45l8.26,25.71-20.06,6.47L301.76,689Z" transform="translate(-9.29 -53.8)"/><path class="cls-3" d="M717,229l18.34-10.38a335.53,335.53,0,0,1,43.25,161.23l-21.07.2A314.23,314.23,0,0,0,717,229Z" transform="translate(-9.29 -53.8)"/><path class="cls-3" d="M446.73,725.09a331,331,0,0,1-133.61-27.87l8.32-19.06A313.07,313.07,0,0,0,758,423.39l20.66,2.13A333.91,333.91,0,0,1,446.73,725.09Z" transform="translate(-9.29 -53.8)"/></svg>