<svg id="Layer_1" data-name="Layer 1" xmlns="http://www.w3.org/2000/svg" viewBox="0 0 738.88 712.5"><defs><style>.cls-1{fill:#d6d6d6;}.cls-2{fill:#67d839;}.cls-3{fill:#f7eac9;}.cls-4{fill:#eabe92;}.cls-5{fill:#16aabc;}.cls-6{fill:#dda15e;}.cls-7{fill:#274c77;}.cls-8{fill:#eda874;}.cls-9{fill:#8b8c89;}.cls-10{fill:#e7ecef;}.cls-11{fill:#a3cef1;}.cls-12{fill:#6096ba;}.cls-13{fill:#fff;}</style></defs><circle class="cls-1" cx="567.36" cy="171.53" r="171.53"/><path class="cls-2" d="M727,179a121.75,121.75,0,0,0-19.26-46.71,26.62,26.62,0,0,1-30.88-30.87,120,120,0,0,0-46.7-19.26,26.83,26.83,0,0,1-43.81,0,121.75,121.75,0,0,0-46.71,19.26,26.62,26.62,0,0,1-30.87,30.87A120.26,120.26,0,0,0,489.51,179a26.81,26.81,0,0,1,0,43.81,121.92,121.92,0,0,0,19.27,46.71,26.62,26.62,0,0,1,30.87,30.87,120,120,0,0,0,46.71,19.26,26.83,26.83,0,0,1,43.81,0,121.64,121.64,0,0,0,46.7-19.26,26.72,26.72,0,0,1,7.39-23.49,26.44,26.44,0,0,1,23.49-7.38A120.09,120.09,0,0,0,727,222.79,26.81,26.81,0,0,1,727,179Z" transform="translate(-40.91 -29.36)"/><circle class="cls-3" cx="567.36" cy="171.53" r="65.97"/><path class="cls-4" d="M338.83,465.3l-39.58,17a52.9,52.9,0,0,1-41.56,0l-39.58-17a52.78,52.78,0,0,1-31.93-48.55V346a79.22,79.22,0,0,1,79.16-79.16h26.39A79.23,79.23,0,0,1,370.9,346v70.73A52.8,52.8,0,0,1,339,465.3Z" transform="translate(-40.91 -29.36)"/><path class="cls-5" d="M451.78,543.94a131.88,131.88,0,0,0-94.21-39.58H318a39.59,39.59,0,0,1-79.17,0H199.24A132,132,0,0,0,67.29,636.3v92.36H357.57l52.78-184.72Z" transform="translate(-40.91 -29.36)"/><path class="cls-6" d="M212.43,675.88h26.39a26.47,26.47,0,0,1,26.39,26.39v26.39H212.43V675.88Z" transform="translate(-40.91 -29.36)"/><path class="cls-7" d="M146.46,368.85a26.4,26.4,0,1,1,1.85-44.47" transform="translate(-40.91 -29.36)"/><path class="cls-7" d="M410.35,368.85a26.4,26.4,0,1,0-1.85-44.47" transform="translate(-40.91 -29.36)"/><path class="cls-8" d="M238.82,474.14l18.74,8.05a52.12,52.12,0,0,0,41.69,0L318,474.14v30.22a39.59,39.59,0,0,1-79.17,0Z" transform="translate(-40.91 -29.36)"/><polyline class="cls-9" points="316.67 699.3 369.44 514.58 659.72 514.58 606.94 699.3"/><path class="cls-7" d="M362.85,311.45h-.13a71,71,0,0,0-27.18-5c-57.14,0-57.14,52.78-114.4,52.78-14.91,0-26-3.56-35.1-8.84V346a79.23,79.23,0,0,1,79.17-79.16H291.6a79,79,0,0,1,71.12,44.59Z" transform="translate(-40.91 -29.36)"/><path class="cls-10" d="M370.76,406.72V346a79.22,79.22,0,0,0-79.16-79.16H265.21A79.23,79.23,0,0,0,186,346V398.8H159.65a13.23,13.23,0,0,1-13.19-13.19V346a131.95,131.95,0,0,1,263.89,0v42a13.17,13.17,0,0,1-10.56,12.93Z" transform="translate(-40.91 -29.36)"/><path class="cls-11" d="M529.1,623.1a13.2,13.2,0,0,1,0,26.39Z" transform="translate(-40.91 -29.36)"/><path class="cls-12" d="M568.94,367.93c-.13,1.45-.26,3-.26,4.48a39.59,39.59,0,1,0,79.17,0c0-1.45-.14-3-.27-4.48a174.79,174.79,0,0,1-78.64,0Z" transform="translate(-40.91 -29.36)"/><circle class="cls-12" cx="514.58" cy="422.22" r="26.39"/><circle class="cls-12" cx="448.61" cy="475" r="26.39"/><path class="cls-12" d="M278.4,425.19h0a13.22,13.22,0,0,1,10.3-15.57L397.15,388V350.25c0-63.21-47.63-118.49-110.57-122.71C217.45,222.92,159.65,277.81,159.65,346v39.59H186V412H159.65a26.46,26.46,0,0,1-26.38-26.39V350.25c0-75.48,55.94-141.71,131.15-148.7,86.29-8.19,159.12,59.77,159.12,144.47v42a26.39,26.39,0,0,1-21.24,25.86L293.84,435.48a13.23,13.23,0,0,1-15.57-10.29Z" transform="translate(-40.91 -29.36)"/><path class="cls-13" d="M278.4,728.66H252V702.27a13.23,13.23,0,0,0-13.2-13.19H146.46a13.23,13.23,0,0,1-13.19-13.2V623.1a13.61,13.61,0,0,1,3.82-9.36l17-17a13.14,13.14,0,0,1,18.61,0h0a13.15,13.15,0,0,1,0,18.6l-13.2,13.19v34.18h79.17a39.53,39.53,0,0,1,39.58,39.58v26.39Z" transform="translate(-40.91 -29.36)"/><rect class="cls-11" y="686.11" width="659.72" height="26.39"/></svg>