<svg id="Layer_1" data-name="Layer 1" xmlns="http://www.w3.org/2000/svg" viewBox="0 0 400.01 720.05"><defs><style>.cls-1{fill:#333;}.cls-2{fill:#dfe0de;}.cls-3{fill:#ccc;}.cls-4{fill:#fff;}.cls-5{fill:#67d839;}.cls-6{fill:#e5e5e5;}.cls-7{fill:#16aabc;}</style></defs><path class="cls-1" d="M544.17,751.24H255.64A55.9,55.9,0,0,1,199.9,695.5V86.92a55.9,55.9,0,0,1,55.74-55.73H544.17a55.9,55.9,0,0,1,55.74,55.73V695.5A55.93,55.93,0,0,1,544.17,751.24Z" transform="translate(-199.9 -31.19)"/><rect class="cls-2" x="26.38" y="56.82" width="347.24" height="567.83"/><path class="cls-3" d="M452,65.54H380.92a5.82,5.82,0,0,1-5.8-5.81h0a5.82,5.82,0,0,1,5.8-5.8H452a5.82,5.82,0,0,1,5.81,5.8h0A5.82,5.82,0,0,1,452,65.54Z" transform="translate(-199.9 -31.19)"/><circle class="cls-3" cx="147.92" cy="28.54" r="5.81"/><path class="cls-3" d="M399.9,731a27.46,27.46,0,1,1,27.46-27.46h0A27.51,27.51,0,0,1,399.9,731Zm0-49.29a21.83,21.83,0,1,0,21.83,21.82h0a21.84,21.84,0,0,0-21.83-21.87h0v.05Z" transform="translate(-199.9 -31.19)"/><rect class="cls-4" x="53.74" y="416.5" width="292.52" height="173.31"/><rect class="cls-5" x="87.02" y="441.45" width="225.92" height="10.83"/><rect class="cls-6" x="87.02" y="471.92" width="225.92" height="8.28"/><rect class="cls-6" x="87.02" y="493.31" width="225.92" height="8.28"/><rect class="cls-6" x="87.02" y="514.69" width="225.92" height="8.28"/><rect class="cls-6" x="87.02" y="536.08" width="225.92" height="8.28"/><rect class="cls-6" x="87.02" y="557.45" width="225.92" height="8.28"/><rect class="cls-4" x="53.74" y="219.7" width="292.52" height="173.31"/><rect class="cls-5" x="87.02" y="229.53" width="225.92" height="25.96"/><rect class="cls-6" x="87.02" y="275.15" width="225.92" height="8.28"/><rect class="cls-6" x="87.02" y="296.54" width="225.92" height="8.28"/><rect class="cls-6" x="87.02" y="317.95" width="225.92" height="8.28"/><rect class="cls-6" x="87.02" y="339.32" width="225.92" height="8.28"/><rect class="cls-6" x="87.02" y="360.7" width="225.92" height="8.28"/><rect class="cls-7" x="53.74" y="74.96" width="292.52" height="121.27"/></svg>