<svg id="Layer_1" data-name="Layer 1" xmlns="http://www.w3.org/2000/svg" viewBox="0 0 745.99 734.71"><defs><style>.cls-1{fill:#e4f2de;}.cls-2{fill:#67d839;}.cls-3{fill:#fff0e3;}.cls-4{fill:#d8d8d8;}.cls-5{fill:#7ee1e6;}.cls-6{fill:#51565f;}.cls-7{fill:#16aabc;}</style></defs><path class="cls-1" d="M395,594.12c-7,0-11.6-6-11.6-11.92S388,570.27,395,570.27s11.61,6,11.61,11.93S402,594.12,395,594.12" transform="translate(-22 -32.33)"/><path class="cls-2" d="M197.69,641.82c0-47.69,58-71.55,139.27-71.55l1.16,11.93,22.05,178.87H267.33V749.15l-69.64-11.92V641.82ZM453,570.27c81.24,0,139.27,23.85,139.27,71.55v95.41l-69.63,11.92v11.92H429.81L451.86,582.2Z" transform="translate(-22 -32.33)"/><path class="cls-3" d="M497.05,386.38v28.87c0,7.22-5.46,14.44-13.65,14.44,0,28.87-13.65,57.74-13.65,57.74-13.66,28.87-28.68,57.74-81.93,57.74s-68.27-28.87-81.92-57.74c0,0-13.65-28.87-13.65-57.74-8.2,0-13.66-7.22-13.66-14.44V386.38c0-7.22,5.46-14.44,13.66-14.44V357.51c0-40.42,30-72.18,68.27-72.18h54.61c38.23,0,68.27,31.76,68.27,72.18v14.43c8.19,0,13.65,7.22,13.65,14.44" transform="translate(-22 -32.33)"/><polygon class="cls-4" points="428.7 549.87 429.86 549.87 407.81 728.74 338.18 728.74 316.13 549.87 317.29 549.87 428.7 549.87"/><path class="cls-5" d="M395,69.42c19.73,0,34.82,15.51,34.82,35.78S414.72,141,395,141s-34.82-15.5-34.82-35.77S375.26,69.42,395,69.42ZM93.24,284.07c19.73,0,34.82,15.51,34.82,35.78S113,355.62,93.24,355.62s-34.82-15.5-34.82-35.77S73.51,284.07,93.24,284.07Zm603.5,0c19.73,0,34.82,15.51,34.82,35.78s-15.09,35.77-34.82,35.77-34.81-15.5-34.81-35.77S677,284.07,696.74,284.07Z" transform="translate(-22 -32.33)"/><path class="cls-6" d="M360.17,767c-2.32,0-5.8-2.39-5.8-4.77L332.32,577.43c-54.55,0-95.17,11.92-114.9,32.2-9.28,9.54-13.92,20.27-13.92,33.39v95.4a5.57,5.57,0,0,1-5.81,6c-3.48,0-5.8-2.39-5.8-6V643c0-15.51,5.8-29.82,17.41-41.74C232.51,577.43,277.77,565.5,337,565.5c3.48,0,5.81,2.39,5.81,4.77L366,761.07c0,2.39-2.32,6-5.81,6Zm69.64,0h0c-3.48,0-5.8-3.58-5.8-7.16l23.21-190.8c0-3.57,3.48-4.77,7-4.77,59.19,0,104.45,13.12,127.67,35.78,11.6,11.92,17.41,25,17.41,41.74v95.4a5.57,5.57,0,0,1-5.81,6c-3.48,0-5.8-2.39-5.8-6v-95.4c0-13.12-4.64-23.85-13.93-33.39-19.73-20.28-60.35-32.2-114.9-32.2L436.77,761.07C435.61,764.65,432.13,767,429.81,767Zm92.85,0h0c-3.49,0-5.81-2.39-5.81-6h0l1.16-47.7c0-3.57,2.32-6,5.81-6s5.8,2.39,5.8,6h0l-1.16,47.7C528.46,764.65,526.14,767,522.66,767Zm-255.33,0c-3.48,0-5.81-2.39-5.81-6v-47.7a5.57,5.57,0,0,1,5.81-6c3.48,0,5.8,2.39,5.8,6v47.7C273.13,764.65,270.81,767,267.33,767ZM395,695.49c-3.48,0-5.8-2.39-5.8-6V598.89c-7-2.38-11.61-9.54-11.61-16.69,0-9.54,8.13-17.89,17.41-17.89s17.41,8.35,17.41,17.89c0,8.35-4.64,14.31-11.6,16.69v90.63C400.79,693.1,398.47,695.49,395,695.49Zm0-119.25c-3.48,0-5.8,2.38-5.8,6s2.32,6,5.8,6,5.8-2.38,5.8-6S398.47,576.24,395,576.24Zm-7.17-23.85c-58.71,0-75.09-36.09-87.38-62.08,0-1.44-12.29-27.42-13.66-54.85-8.19-2.89-13.65-11.55-13.65-20.21V386.38c0-10.11,5.46-17.33,13.65-20.21v-8.66c0-43.31,34.14-79.4,75.1-79.4H416.5c41,0,75.09,36.09,75.09,79.4v8.66c8.19,2.88,13.66,11.55,13.66,20.21v28.87c0,10.1-5.47,17.32-13.66,20.21-1.36,27.43-13.65,53.41-13.65,54.85C462.92,516.3,446.53,552.39,387.82,552.39ZM360.51,292.55c-34.13,0-61.44,28.87-61.44,65v14.43c0,4.33-2.73,7.22-6.83,7.22s-6.82,2.89-6.82,7.22v28.87c0,4.33,2.73,7.22,6.82,7.22s6.83,2.89,6.83,7.22c0,27.42,12.29,54.85,12.29,54.85C326.38,516.3,340,538,387.82,538c46.43,0,61.45-21.65,76.47-53.41,0,0,12.28-27.42,12.28-54.85,0-4.33,2.74-7.22,6.83-7.22s6.83-2.89,6.83-7.22V386.38c0-4.33-2.73-7.22-6.83-7.22s-6.83-2.89-6.83-7.22V357.51c0-36.09-27.3-65-61.44-65Zm185.36,92.89a6.39,6.39,0,0,1-5.81-3.58v-2.39a6.58,6.58,0,0,1,3.49-6l113.73-45.32c0-2.38-1.16-6-1.16-8.34,0-22.66,18.57-41.74,40.62-41.74s40.63,19.08,40.63,41.74-18.57,41.74-40.63,41.74c-15.08,0-29-9.54-36-22.66L548.19,384.24C547,385.44,547,385.44,545.87,385.44Zm123-54.86c3.48,11.93,15.09,19.08,27.85,19.08,16.25,0,29-13.12,29-29.81S713,290,696.74,290s-29,13.11-29,29.81c0,3.58,0,7.15,1.16,10.73ZM244.12,385.44h-2.33L129.22,340.12c-7,13.12-20.89,22.66-36,22.66-22,0-40.62-19.08-40.62-41.74S71.19,279.3,93.24,279.3s40.62,19.08,40.62,41.74c0,2.39,0,6-1.16,8.35L246.44,374.7a6.6,6.6,0,0,1,3.48,6v2.38A8.75,8.75,0,0,1,244.12,385.44ZM93.24,290c-16.25,0-29,13.11-29,29.81s12.76,29.81,29,29.81c12.77,0,23.21-8.35,27.85-19.08h0c1.16-3.58,1.16-6,1.16-9.54C122.25,303.15,109.49,290,93.24,290ZM395,266.19c-3.48,0-5.8-2.39-5.8-6V146.94c-19.73-2.39-34.82-20.28-34.82-41.74,0-22.66,18.57-41.74,40.62-41.74s40.62,19.08,40.62,41.74a42,42,0,0,1-34.82,41.74V260.22C400.79,263.8,398.47,266.19,395,266.19Zm0-190.8c-16.25,0-29,13.11-29,29.81S378.74,135,395,135s29-13.12,29-29.81S411.24,75.39,395,75.39Z" transform="translate(-22 -32.33)"/><ellipse class="cls-6" cx="374.48" cy="73.2" rx="71.24" ry="73.2"/><ellipse class="cls-7" cx="372.99" cy="72.87" rx="59.83" ry="61.48"/><ellipse class="cls-6" cx="71.24" cy="281.55" rx="71.24" ry="73.2"/><ellipse class="cls-7" cx="69.76" cy="281.22" rx="59.83" ry="61.48"/><ellipse class="cls-6" cx="674.75" cy="287.52" rx="71.24" ry="73.2"/><ellipse class="cls-7" cx="673.26" cy="287.18" rx="59.83" ry="61.48"/></svg>