<svg id="Layer_1" data-name="Layer 1" xmlns="http://www.w3.org/2000/svg" viewBox="0 0 570.23 729.85"><defs><style>.cls-1{fill:#e6e6e8;}.cls-2{fill:#d9dddd;}.cls-3{fill:#67d839;}.cls-4{fill:#16aabc;}.cls-5{fill:#b3b3b3;}</style></defs><path class="cls-1" d="M516.71,35.07H127.46c-8.92,0-18.78,7.3-18.78,16.22V748.71c0,8.92,9.86,16.22,18.78,16.22H662.68c8.93,0,13.67-7.3,13.67-16.22V205.37Z" transform="translate(-108.68 -35.07)"/><path class="cls-2" d="M532.93,205.37c-8.92,0-18.77-7.3-18.77-16.22V35.07L678.9,205.37Z" transform="translate(-108.68 -35.07)"/><path class="cls-3" d="M222.22,108.06c-32.44,0-62.32,29.05-62.32,64.87h62.32V108.06Z" transform="translate(-108.68 -35.07)"/><path class="cls-4" d="M230.33,116.17V181H168a64.88,64.88,0,0,0,64.88,64.88c35.83,0,63.59-29,63.59-64.88S270.87,116.17,230.33,116.17Z" transform="translate(-108.68 -35.07)"/><path class="cls-3" d="M230.33,562.19v64.88H168a64.88,64.88,0,0,0,64.88,64.87c35.83,0,63.59-29.05,63.59-64.87S270.87,562.19,230.33,562.19Z" transform="translate(-108.68 -35.07)"/><rect class="cls-4" x="227.03" y="89.2" width="145.97" height="16.22"/><rect class="cls-3" x="137.83" y="340.6" width="356.82" height="16.22"/><rect class="cls-5" x="227.03" y="129.75" width="145.97" height="8.11"/><rect class="cls-5" x="137.83" y="373.04" width="291.94" height="8.11"/><rect class="cls-5" x="227.03" y="551.44" width="259.5" height="8.11"/><rect class="cls-5" x="227.03" y="575.77" width="259.5" height="8.11"/><rect class="cls-5" x="227.03" y="600.1" width="259.5" height="8.11"/><rect class="cls-5" x="227.03" y="624.43" width="259.5" height="8.11"/><rect class="cls-5" x="227.03" y="648.76" width="259.5" height="8.11"/><rect class="cls-5" x="137.83" y="397.36" width="340.6" height="8.11"/><rect class="cls-5" x="137.83" y="421.69" width="194.63" height="8.11"/><rect class="cls-5" x="227.03" y="145.97" width="145.97" height="8.11"/><rect class="cls-5" x="227.03" y="162.19" width="145.97" height="8.11"/><rect class="cls-5" x="227.03" y="178.41" width="145.97" height="8.11"/><path class="cls-4" d="M222.22,375.67c-32.44,0-62.32,29.05-62.32,64.88h62.32V375.67Z" transform="translate(-108.68 -35.07)"/></svg>