<svg id="Layer_1" data-name="Layer 1" xmlns="http://www.w3.org/2000/svg" viewBox="0 0 760.67 760.67"><defs><style>.cls-1,.cls-6{fill:#67d839;}.cls-1,.cls-2,.cls-3,.cls-4,.cls-5,.cls-6{stroke:#e8ca18;}.cls-1,.cls-2,.cls-3,.cls-4,.cls-5,.cls-6,.cls-7,.cls-8{stroke-miterlimit:133.33;}.cls-2{fill:#fff;}.cls-3{fill:#dcddde;}.cls-4{fill:#0c3847;}.cls-5{fill:#777;}.cls-6{stroke-width:11px;}.cls-7,.cls-8{fill:none;stroke:#16aabc;}.cls-7{stroke-width:12px;}.cls-8{stroke-width:24px;}</style></defs><rect class="cls-1" x="420.98" y="483.44" width="260.51" height="130.26"/><path class="cls-2" d="M608.09,416.53C562.6,388.44,502,388.75,456.8,417.4c-2.55-90.61-21.1-181.26-54-224.17C512.63,212.55,598,303.8,608.09,416.53Z" transform="translate(-25.29 -20.64)"/><path class="cls-2" d="M110.78,416.53c10.08-112.72,95.46-204,205.32-223.3-32.93,42.91-51.48,133.56-54,224.17C216.87,388.72,156.27,388.43,110.78,416.53Z" transform="translate(-25.29 -20.64)"/><path class="cls-2" d="M283.82,417.05c3.75-135.26,41.5-227.76,75.62-227.76s71.86,92.5,75.61,227.76a141.56,141.56,0,0,0-64.76-20.91v-.61H348.58v.61A141.64,141.64,0,0,0,283.82,417.05Z" transform="translate(-25.29 -20.64)"/><path class="cls-3" d="M620,439c-24.32-22-56.34-32.89-88.25-32.57C521.06,277.86,448,178.44,359.44,178.44,503.26,178.44,620,295.12,620,439Z" transform="translate(-25.29 -20.64)"/><path class="cls-3" d="M359.44,178.44c-48,0-86.84,116.68-86.84,260.51-23.66-21.39-54.38-32.24-85.43-32.57C197.81,277.86,270.86,178.44,359.44,178.44Z" transform="translate(-25.29 -20.64)"/><path class="cls-3" d="M446.27,439c-24-21.71-55.36-32.57-86.83-32.57V178.44C407.41,178.44,446.27,295.12,446.27,439Z" transform="translate(-25.29 -20.64)"/><rect class="cls-2" x="616.36" y="537.71" width="21.71" height="21.71"/><rect class="cls-2" x="464.4" y="537.71" width="21.71" height="21.71"/><rect class="cls-4" x="572.94" y="92.67" width="21.71" height="130.26"/><rect class="cls-4" x="73.63" y="92.67" width="21.71" height="130.26"/><rect class="cls-4" x="138.76" y="38.4" width="21.71" height="108.55"/><rect class="cls-4" x="507.82" y="114.38" width="21.71" height="54.27"/><rect class="cls-4" x="269.01" y="49.25" width="21.71" height="43.42"/><rect class="cls-4" x="203.88" y="81.82" width="21.71" height="54.27"/><rect class="cls-4" x="442.69" y="49.25" width="21.71" height="75.98"/><path class="cls-5" d="M435.42,699.46a32.57,32.57,0,0,1-65.13,0V417.68c25,2.17,49.28,11.88,68.42,29.07l6.8,7.52.76-.69.76.69,6.81-7.52c43.9-39.45,115-39.39,158.82.24l18.14,16.42V439c0-146-115.89-265.37-260.51-271.1V135H348.58v32.83C204,173.58,88.07,293,88.07,439v24.46L106.21,447C150,407.37,221.14,407.3,265,446.75l6.81,7.52.76-.69.76.69,6.8-7.52c19.14-17.19,43.46-26.9,68.42-29.07V699.46a54.28,54.28,0,0,0,108.55,0V688.61H435.42ZM608.09,416.53C562.6,388.44,502,388.75,456.8,417.4c-2.55-90.61-21.1-181.26-54-224.17C512.63,212.55,598,303.8,608.09,416.53Zm-497.31,0c10.08-112.72,95.46-204,205.32-223.3-32.93,42.91-51.48,133.56-54,224.17C216.87,388.72,156.27,388.43,110.78,416.53Zm173,.52c3.75-135.26,41.5-227.76,75.62-227.76s71.86,92.5,75.61,227.76a141.56,141.56,0,0,0-64.76-20.91v-.61H348.58v.61A141.64,141.64,0,0,0,283.82,417.05Z" transform="translate(-25.29 -20.64)"/><path class="cls-4" d="M576.53,525.79A43.42,43.42,0,1,0,620,569.2,43.46,43.46,0,0,0,576.53,525.79Zm0,65.12a21.71,21.71,0,1,1,21.71-21.71A21.73,21.73,0,0,1,576.53,590.91Z" transform="translate(-25.29 -20.64)"/><path class="cls-4" d="M424.56,482.37V656H728.49V482.37ZM664,630.75l-1.24,3.58H490.4L489,630.59c-6.39-17.41-22.14-33.12-39.16-39.08l-3.59-1.24V548.21l3.75-1.38c17.42-6.4,33.12-22.14,39.06-39.16l1.25-3.59H662.65l1.38,3.74c6.39,17.41,22.14,33.12,39.16,39.08l3.6,1.24V590.2L703,591.58C685.62,598,669.92,613.73,664,630.75Zm42.82-105.9a48.18,48.18,0,0,1-20.73-20.77h20.73ZM467.05,504.08a48.18,48.18,0,0,1-20.78,20.72V504.08ZM446.27,613.56A48.11,48.11,0,0,1,467,634.33H446.27ZM686,634.33a48.13,48.13,0,0,1,20.78-20.72v20.72Z" transform="translate(-25.29 -20.64)"/><circle class="cls-2" cx="551.23" cy="548.57" r="21.71"/><path class="cls-6" d="M255.54,601.76H220.45m0,0h-35.1m35.1,0v-35.1m0,35.1v35.1" transform="translate(-25.29 -20.64)"/><path class="cls-7" d="M153.14,699.57l5.07-6.26Zm32.62-148.21-5.89,5.5a8.07,8.07,0,0,0,11.77,0Zm32.62,148.21,5.07,6.25ZM185.76,717v0ZM85.39,638.41a8.05,8.05,0,0,0,13.78-8.34Zm41.72,26.72a8.05,8.05,0,1,0-11.54,11.23ZM86.44,591.55c0-31.19,13.61-50.47,30.45-57.06s40.31-1.88,63,22.37l11.77-11C166,518.43,135.82,509.78,111,519.49s-40.68,36.35-40.68,72.06Zm137,114.27c16-13,35.22-30.43,50.48-49.89,15.11-19.27,27.24-41.64,27.24-64.38h-16.1c0,17.3-9.44,36.11-23.81,54.44-14.22,18.13-32.39,34.69-48,47.32Zm77.72-114.27c0-35.71-15.91-62.36-40.68-72.06s-55-1.06-80.62,26.37l11.77,11c22.67-24.25,46.18-29,63-22.37s30.45,25.87,30.45,57.06ZM148.06,705.82C161.71,716.9,171.18,725,185.76,725V708.92c-7.77,0-12.6-3.47-27.55-15.61Zm65.24-12.51c-15,12.14-19.78,15.61-27.54,15.61V725c14.57,0,24-8.13,37.69-19.21ZM99.17,630.07c-8-13.26-12.73-26.31-12.73-38.52H70.34c0,16.23,6.19,32.21,15,46.86Zm59,63.24a362.54,362.54,0,0,1-31.1-28.18l-11.54,11.23a378.69,378.69,0,0,0,32.49,29.46Z" transform="translate(-25.29 -20.64)"/><rect class="cls-8" x="12" y="12" width="736.67" height="736.67"/></svg>