<svg id="Layer_1" data-name="Layer 1" xmlns="http://www.w3.org/2000/svg" viewBox="0 0 673.61 736.03"><defs><style>.cls-1{fill:#fff;}.cls-2{fill:#f2f2f2;}.cls-3{fill:#f8b64c;}.cls-4{fill:#ffd15c;}.cls-5{fill:#16aabc;}.cls-6{fill:#f0f2f2;}.cls-7{fill:#67d839;}.cls-8{fill:#0a6f77;}.cls-9{fill:#f9e2ca;}</style></defs><rect class="cls-1" y="155.13" width="673.61" height="580.9"/><rect class="cls-2" x="83.36" width="505.13" height="736.03"/><ellipse class="cls-3" cx="487.53" cy="632.7" rx="64.82" ry="63.61"/><ellipse class="cls-4" cx="487.53" cy="632.7" rx="49.27" ry="48.31"/><path class="cls-3" d="M555.19,653.29c-8.93-4.34-8.93-4.34-8.93-6.63s2.16-4.34,6.77-4.34a23.46,23.46,0,0,1,8.93,2.17l4.47,2.17,4.46-13.13-2.16-2.17c-2.16-2.29-6.77-2.29-8.93-2.29V620.4H546.4v8.79c-8.93,2.17-13.39,8.8-13.39,17.6,0,11,8.93,15.29,17.86,17.59,6.77,2.16,6.77,4.33,6.77,6.62,0,4.34-4.46,4.34-6.77,4.34-4.47,0-6.77-2.17-11.24-2.17L535.17,671l-4.47,13.13,2.16,2.17a16.51,16.51,0,0,0,11.24,4.34v8.79h13.4V688.6c8.93-2.17,13.39-8.8,13.39-17.6C570.89,659.91,562,655.45,555.19,653.29Z" transform="translate(-63.19 -27.22)"/><rect class="cls-5" x="133.92" y="244.72" width="397.81" height="30.29"/><rect class="cls-5" x="133.92" y="339.73" width="397.81" height="30.29"/><rect class="cls-5" x="133.92" y="421.18" width="397.81" height="30.29"/><rect class="cls-5" x="141.87" y="502.62" width="397.81" height="30.29"/><polygon class="cls-6" points="175.22 156.29 154.09 156.29 164.63 137.8 175.22 156.29"/><polygon class="cls-6" points="148.8 174.78 154.09 156.29 175.22 156.29 180.5 174.78 148.8 174.78"/><path class="cls-7" d="M317.65,91.06a42.26,42.26,0,1,0-42.26,42.26,42.26,42.26,0,0,0,42.26-42.26" transform="translate(-63.19 -27.22)"/><path class="cls-5" d="M169.78,175.27a10,10,0,0,0-5.33,8.83V202H212l5.28-18.49-13.61-20.65c-10.5,1.28-21.89,6.09-33.89,12.41" transform="translate(-63.19 -27.22)"/><path class="cls-8" d="M204.69,150.18l-3.09,9.55,15.68,23.78L227.85,165c-9.16,0-17.38-6.16-23.16-14.84" transform="translate(-63.19 -27.22)"/><path class="cls-5" d="M285.92,175.27a10,10,0,0,1,5.32,8.83V202H243.7l-5.29-18.49L252,162.86c10.5,1.28,21.89,6.09,33.89,12.41" transform="translate(-63.19 -27.22)"/><path class="cls-8" d="M251,150.18l3.08,9.55-15.68,23.78L227.85,165c9.15,0,17.37-6.16,23.16-14.84" transform="translate(-63.19 -27.22)"/><path class="cls-9" d="M233.13,91.06a42.08,42.08,0,0,1,2.69-14.73,29.62,29.62,0,0,0-8-1.12c-17.51,0-31.7,15.08-31.7,33.68v13.87c0,19.84,14.19,42.26,31.7,42.26,15.39,0,28.22-17.35,31.09-35a42.28,42.28,0,0,1-25.81-38.94" transform="translate(-63.19 -27.22)"/><path class="cls-1" d="M275.39,125.4a2.64,2.64,0,0,1-2.64-2.64V59.36a2.64,2.64,0,0,1,5.28,0v63.4a2.64,2.64,0,0,1-2.64,2.64" transform="translate(-63.19 -27.22)"/><path class="cls-1" d="M275.39,120.11c-6.52,0-12.09-2.28-15.27-6.27a2.64,2.64,0,1,1,4.13-3.3c2.14,2.69,6.31,4.29,11.14,4.29,6.36,0,13.21-4,13.21-10.56,0-6.32-6.83-10.57-13.21-10.57-8.89,0-18.49-6.06-18.49-15.85S266.5,62,275.39,62c6.62,0,12.05,2.23,15.28,6.28a2.64,2.64,0,1,1-4.13,3.29c-2.21-2.76-6.17-4.28-11.15-4.28-6.38,0-13.2,4.24-13.2,10.56,0,6.53,6.85,10.57,13.2,10.57,8.9,0,18.49,6.06,18.49,15.85s-9.59,15.84-18.49,15.84" transform="translate(-63.19 -27.22)"/><path class="cls-1" d="M288.6,80.49A2.64,2.64,0,0,1,286,77.85V62a2.64,2.64,0,0,1,5.28,0V77.85a2.64,2.64,0,0,1-2.64,2.64" transform="translate(-63.19 -27.22)"/><path class="cls-1" d="M262.19,122.76a2.65,2.65,0,0,1-2.65-2.65V104.27a2.65,2.65,0,1,1,5.29,0v15.84a2.65,2.65,0,0,1-2.64,2.65" transform="translate(-63.19 -27.22)"/></svg>