<svg id="Layer_1" data-name="Layer 1" xmlns="http://www.w3.org/2000/svg" viewBox="0 0 673.61 736.03"><defs><style>.cls-1{fill:#fff;}.cls-2{fill:#f2f2f2;}.cls-3{fill:#211715;}.cls-4{fill:#16aabc;}.cls-5{fill:#7a7473;}.cls-6{fill:#cfcfcf;}.cls-7{fill:#67d839;}.cls-8{fill:#3ad6d6;}</style></defs><rect class="cls-1" y="155.13" width="673.61" height="580.9"/><rect class="cls-2" x="54.59" width="566.91" height="736.03"/><path class="cls-3" d="M350.88,203.22V153.8a3,3,0,0,0-3-2.92,3,3,0,0,0-1.4.38l-68.32,39.43-64.92,37.48-29,16.73a3,3,0,0,0-1.46,2.54q0,33.17,0,66.33,0,40.59,0,81.17v49.73a3,3,0,0,0,3,2.92,2.93,2.93,0,0,0,1.41-.39l38.6-22.29c3.28-1.89.32-7-3-5.08l-38.61,22.3,4.42,2.54q0-43.29,0-86.57,0-37.75,0-75.51,0-17.58,0-35.15L187.2,250l55.85-32.23,67.72-39.1,38.65-22.31L345,153.8v49.43c0,3.78,5.88,3.79,5.88,0Z" transform="translate(-63.19 -27.22)"/><path class="cls-1" d="M303.64,347.51l-18-10.44-46.47,26.86c0,8.19,0,120.61,0,127.76,9.31,5.4,16.63,9.52,19.81,11.36Z" transform="translate(-63.19 -27.22)"/><path class="cls-4" d="M303.16,349.55l-44,25.45c0,14,0,109.79,0,128.14.5-.3,30.8-17.81,44.42-25.68,0-6,0-105.56,0-128.14Z" transform="translate(-63.19 -27.22)"/><path class="cls-1" d="M486.86,115.38l-17.95-10.44L422.43,131.8c0,8.19,0,247.25,0,254.39,9.32,5.4,16.64,9.52,19.82,11.36Z" transform="translate(-63.19 -27.22)"/><path class="cls-1" d="M393.78,214.9l-17.95-10.44-46.48,26.87c0,8.18,0,200.95,0,208.11,9.32,5.4,16.63,9.52,19.82,11.36Z" transform="translate(-63.19 -27.22)"/><path class="cls-4" d="M393.3,216.94l-44,25.45c0,14,0,190.14,0,208.49l44.41-25.68c0-6,0-185.91,0-208.48Z" transform="translate(-63.19 -27.22)"/><path class="cls-4" d="M486.38,117.42l-44,25.45c0,14,0,236.42,0,254.77.5-.29,30.8-17.81,44.42-25.67,0-6,0-232.2,0-254.77Z" transform="translate(-63.19 -27.22)"/><path class="cls-3" d="M488.35,112.84q-9-5.2-18-10.44a3,3,0,0,0-3,0l-31.49,18.2-8.37,4.84-4.08,2.36c-1.39.81-3.41,1.52-3.88,3.22a7.22,7.22,0,0,0-.11,1.91V384.71c0,.44,0,.88,0,1.32.12,2.32,2.17,3.1,3.95,4.12l7.54,4.33c3.26,1.86,6.53,3.71,9.78,5.58s6.25-3.18,3-5.07c-6.59-3.81-13.23-7.54-19.81-11.36l1.45,2.54V131.78l-1.45,2.54,46.47-26.85h-3q9,5.23,18,10.44c3.28,1.9,6.24-3.18,3-5.08Z" transform="translate(-63.19 -27.22)"/><path class="cls-3" d="M422.3,135.07q8.4,4.88,16.8,9.75a2.94,2.94,0,1,0,3-5.07q-8.42-4.86-16.8-9.76a2.94,2.94,0,0,0-3,5.08Z" transform="translate(-63.19 -27.22)"/><path class="cls-3" d="M395.26,212.36q-9-5.21-17.95-10.44a3,3,0,0,0-3,0l-26,15-13.85,8c-2.19,1.26-4.54,2.39-6.62,3.82a3.29,3.29,0,0,0-1.45,2.84c-.13,3.47,0,7,0,10.44V438.59a3.57,3.57,0,0,0,1.45,3.38c3.83,2.63,8.17,4.72,12.21,7,2.54,1.45,5.08,2.88,7.61,4.34,3.28,1.9,6.24-3.18,3-5.07-6.59-3.81-13.22-7.55-19.81-11.36l1.45,2.54V231.33l-1.45,2.54L377.31,207h-3q9,5.24,18,10.44c3.28,1.89,6.25-3.18,3-5.08Z" transform="translate(-63.19 -27.22)"/><path class="cls-3" d="M329.22,234.59l16.8,9.76a2.94,2.94,0,0,0,3-5.08q-8.4-4.86-16.79-9.75a2.94,2.94,0,0,0-3,5.07Z" transform="translate(-63.19 -27.22)"/><path class="cls-3" d="M236.28,454.27v36.45a4.09,4.09,0,0,0,2.4,4q3.76,2.18,7.54,4.34c3.78,2.16,7.57,4.3,11.33,6.47,3.29,1.89,6.25-3.19,3-5.08-6.59-3.81-13.23-7.54-19.81-11.36l1.45,2.54V454.27c0-3.79-5.88-3.79-5.88,0Z" transform="translate(-63.19 -27.22)"/><path class="cls-3" d="M305.12,345q-9-5.21-17.95-10.44a3,3,0,0,0-3,0l-35.81,20.7L239,360.67c-1.43.83-2.62,1.55-2.72,3.36,0,.23,0,.46,0,.69v90c0,3.78,5.88,3.79,5.88,0q0-40.61,0-81.19v-9.59l-1.46,2.54,46.48-26.87H284.2q9,5.24,17.95,10.44c3.28,1.89,6.25-3.18,3-5.08Z" transform="translate(-63.19 -27.22)"/><path class="cls-3" d="M239.08,367.2,255.87,377a2.94,2.94,0,1,0,3-5.08h0L242,362.13a2.94,2.94,0,1,0-3,5.07Z" transform="translate(-63.19 -27.22)"/><path class="cls-3" d="M503.53,365.29q19.94-11.51,39.85-23L554.27,336c3.27-1.89.32-7-3-5.08l-43.64,25.23-7.09,4.1c-3.28,1.89-.32,7,3,5.08Z" transform="translate(-63.19 -27.22)"/><path class="cls-3" d="M190,547.31q19.94-11.5,39.85-23L240.73,518c3.27-1.9.32-7-3-5.08l-43.64,25.22c-2.36,1.38-4.73,2.74-7.09,4.11-3.28,1.89-.32,7,3,5.07Z" transform="translate(-63.19 -27.22)"/><path class="cls-3" d="M489.72,193V117.2a3,3,0,0,0-4.43-2.54L456.51,131.3c-5,2.88-10.11,5.62-15,8.67a4,4,0,0,0-2.09,4.05V397.64a3,3,0,0,0,3,2.92,2.81,2.81,0,0,0,1.41-.38c10.78-6.34,21.66-12.53,32.5-18.79l10-5.75c1.62-.94,3.3-1.64,3.41-3.77,0-.28,0-.57,0-.84V193c0-3.78-5.88-3.79-5.88,0V372l1.46-2.54q-20.13,11.63-40.25,23.26c-1.39.8-2.79,1.6-4.17,2.42l4.42,2.53V142.87l-1.46,2.54,44.42-25.67-4.43-2.54V193c0,3.79,5.88,3.79,5.88,0Z" transform="translate(-63.19 -27.22)"/><path class="cls-3" d="M391.82,214.4l-22.9,13.23-12,6.94L351,238c-1.87,1.08-4.47,1.95-4.62,4.42-.2,3.31,0,6.68,0,10V450.88a3,3,0,0,0,3,2.92,2.93,2.93,0,0,0,1.41-.39c7.67-4.51,15.41-8.91,23.12-13.37l17-9.84c2.08-1.2,5.57-2.4,5.72-5.11,0-.38,0-.76,0-1.13V216.72a3,3,0,0,0-3-2.92,2.89,2.89,0,0,0-1.41.38l-.39.22c-3.28,1.9-.32,7,3,5.08l.39-.23-4.43-2.53V425.2l1.46-2.53Q372.07,434.3,352,445.93c-1.39.8-2.79,1.6-4.17,2.41l4.42,2.54V242.39l-1.45,2.54,44-25.45C398.06,217.59,395.1,212.5,391.82,214.4Z" transform="translate(-63.19 -27.22)"/><path class="cls-3" d="M256.2,443.47q0,29.83,0,59.67a3,3,0,0,0,3,2.92,3,3,0,0,0,1.42-.38c10.65-6.27,21.4-12.38,32.1-18.56l9.88-5.71c1.7-1,3.76-1.77,3.89-4,0-.32,0-.65,0-1V430.36q0-22.38,0-44.78V349.32a3,3,0,0,0-4.42-2.54l-28.8,16.64c-5,2.89-10.11,5.62-15,8.68a3.85,3.85,0,0,0-2.09,3.76v68.4c0,3.78,5.88,3.79,5.88,0q0-30.42,0-60.83V375l-1.45,2.54L305,351.86l-4.42-2.54v51.54q0,30.51,0,61v15.58l1.46-2.54q-20.13,11.63-40.25,23.26c-1.39.8-2.79,1.6-4.17,2.41l4.43,2.54q0-29.83,0-59.67c0-3.78-5.88-3.79-5.88,0Z" transform="translate(-63.19 -27.22)"/><path class="cls-3" d="M474.64,186.87q19.23-11.1,38.44-22.25c3.28-1.89.32-7-3-5.07q-19.23,11.12-38.44,22.25C468.4,183.69,471.36,188.77,474.64,186.87Z" transform="translate(-63.19 -27.22)"/><path class="cls-3" d="M145.16,324.81,172.57,309l40.8-23.58,18.73-10.83c3.28-1.9.32-7-3-5.08l-36.41,21-38.32,22.16-12.22,7.06c-3.27,1.89-.32,7,3,5.08Z" transform="translate(-63.19 -27.22)"/><path class="cls-1" d="M638.17,565.89l-1.47-.79h0c-4.65,2.24-19.3,2.51-22.08.5-5.3,6.1-12.93,7-19.81,6.06a11.37,11.37,0,0,1-2.76-.56,19.25,19.25,0,0,1-6.66-3.88s0,0-.06-.05l-.85.08c-1.13-.68-4.58,0-6,2.15s-1.37,6.24-.57,8.67c1.75,5.3,6.85,8,12.09,9.88a31.68,31.68,0,0,0,17,1.51,8.86,8.86,0,0,0,5.66-4.39,11.89,11.89,0,0,0,1.29-4.14l9,2.07a22.76,22.76,0,0,0,5.63.73,26.78,26.78,0,0,0,2.69-.16,9,9,0,0,0,6.73-3.64,11.72,11.72,0,0,0,1.32-5.54C639.37,572.46,638.11,567.82,638.17,565.89Z" transform="translate(-63.19 -27.22)"/><path class="cls-1" d="M613,365.8a9.46,9.46,0,0,1-1.36,3.3,14.13,14.13,0,0,1-5.38,4.71,28.62,28.62,0,0,0,18.23,13.95,15.24,15.24,0,0,0-3.36,4.41,34.94,34.94,0,0,0-9.78.76c-8.1,1.57-19.26,5.25-22.18,7.14a21.39,21.39,0,0,0-4.85,4.55l1.87-6a11.27,11.27,0,0,0,0-6.8,10.3,10.3,0,0,0-4.6-5.08l.77-4.17s0,0-.05-.05a27.27,27.27,0,0,1-7.11-14,34.61,34.61,0,0,1,6.06-26.93,32.92,32.92,0,0,1,4.33-4.81,58.84,58.84,0,0,0,19.45,20.41,6.6,6.6,0,0,1,7.35,3.25A8.2,8.2,0,0,1,613,365.8Z" transform="translate(-63.19 -27.22)"/><path class="cls-1" d="M578.58,385.49a11,11,0,0,0-5-.07A9.94,9.94,0,0,0,565.85,396l.2,2.92a3.69,3.69,0,0,1,1.27.3c3.06,1.44,11.71,6.26,14,7.73l.88.55a28.88,28.88,0,0,1,6.07-6.79l-2-2.16a11.2,11.2,0,0,0,0-6.8A11,11,0,0,0,578.58,385.49Z" transform="translate(-63.19 -27.22)"/><path class="cls-5" d="M601.31,328.71a33.43,33.43,0,0,0-15.66,8,59.14,59.14,0,0,0,19.47,20.4,6.6,6.6,0,0,1,7.35,3.25,9,9,0,0,1-.78,8.71,14.23,14.23,0,0,1-5.38,4.72,28.63,28.63,0,0,0,18.21,13.94l.44-.46c4.08-4.5,7-7.63,9.52-12a32.42,32.42,0,0,0,4-20.42c-2-14.15-14.07-26-28.35-26.8A33.86,33.86,0,0,0,601.31,328.71Z" transform="translate(-63.19 -27.22)"/><path class="cls-3" d="M589.79,355.46a4.66,4.66,0,0,1-2.19,3.34,3.64,3.64,0,0,1-2.71.28,4.09,4.09,0,0,1-2.74-2.46,4.77,4.77,0,0,1,1.64-5.36,3.76,3.76,0,0,1,5.08.72A4.18,4.18,0,0,1,589.79,355.46Z" transform="translate(-63.19 -27.22)"/><path class="cls-1" d="M625.15,482.13l5.11-.82c2.37-.39,6.36-1.43,7.64-3,1.63-2,1.55-4,1.64-6.95.68-22.45,2-39.18-1.94-58.33-1.23-6-2.94-12.22-7.23-16.59s-9.75-5.34-19-3.54c-8.1,1.57-19.26,5.25-22.18,7.14a26.66,26.66,0,0,0-7,7.48l-.87-.57c-2.27-1.46-10.92-6.28-14-7.73a4.26,4.26,0,0,0-2.06-.28c-.9.13-1.35,1.14-1.61,2a166.75,166.75,0,0,0-4.8,23,78.23,78.23,0,0,0-.43,23.76,11.53,11.53,0,0,0,4.73,7.53c2.19,1.83,5.46,1.64,8.23,1a24.76,24.76,0,0,0,8.06-3.5l-.1,9.69c0,4.56.18,9.8.18,9.8-.1,2.46,1.2,6.61,3.22,8,1.79,1.24,4.19,1.8,9.58,2.78C603.33,485,613.21,484,625.15,482.13Z" transform="translate(-63.19 -27.22)"/><path class="cls-6" d="M605,484.11A68.84,68.84,0,0,1,592.31,483c-6.06-1.11-8.33-1.67-10.23-3.28-.11,13.24.94,65.23,2,84.13l.31,1.57c.45,2.26,4,4.19,7.68,5.66a11.76,11.76,0,0,0,2.76.56c6.87.92,14.51,0,19.81-6.06,3.39,2.46,24.57,1.5,23.46-2.29-.68-18.78-1.29-56.72-.73-73.56,0,0-.15-5.78-.28-10.68a19.88,19.88,0,0,1-6.8,2.24A162.69,162.69,0,0,1,605,484.11Z" transform="translate(-63.19 -27.22)"/><path class="cls-3" d="M579.14,483.38c.07,21.88.62,43.76,1.35,65.63.17,5,.35,10,.62,15,.21,3.77,6.09,3.79,5.88,0-1.19-21.83-1.48-43.74-1.81-65.61-.08-5-.15-10-.16-15.06,0-3.78-5.89-3.79-5.88,0Z" transform="translate(-63.19 -27.22)"/><path class="cls-3" d="M634.39,489.75c-.65,20.47-.14,41,.38,61.5.12,4.88.26,9.76.46,14.64.15,3.77,6,3.79,5.88,0-.83-20.48-1.11-41-1.05-61.5,0-4.88.06-9.76.21-14.64C640.39,486,634.51,486,634.39,489.75Z" transform="translate(-63.19 -27.22)"/><path class="cls-3" d="M611.33,510.61c-.83,16.16-1.28,32.39-1.44,48.58,0,2.79-.13,5.61.08,8.4.28,3.75,6.16,3.78,5.88,0-.47-6.27,0-12.69.1-19q.31-13.73.82-27.46c.13-3.52.25-7,.44-10.55.19-3.79-5.69-3.78-5.88,0Z" transform="translate(-63.19 -27.22)"/><path class="cls-3" d="M581.52,566.22c.74,2.87,3.41,4.73,5.91,6a21,21,0,0,0,4.72,2,31.19,31.19,0,0,0,4.81.62,24.7,24.7,0,0,0,17.57-5,3,3,0,0,0,0-4.16,3,3,0,0,0-4.15,0A18.48,18.48,0,0,1,597.83,569a16.45,16.45,0,0,1-6.58-1.41,15.69,15.69,0,0,1-3.13-1.8,7.55,7.55,0,0,1-.81-.79c.12.15.09.08-.11-.21.09.24.09.2,0-.13-.94-3.66-6.61-2.11-5.67,1.56Z" transform="translate(-63.19 -27.22)"/><path class="cls-3" d="M615,569a34.17,34.17,0,0,0,11.49.88,31.19,31.19,0,0,0,11.73-2.19,3,3,0,0,0,1.06-4,3,3,0,0,0-4-1.06c-.52.25.69-.23.1,0l-.42.15c-.35.12-.7.22-1,.31-.81.21-1.64.38-2.47.51l-.61.09c-.36.06.46-.05-.11,0l-1.46.16c-1,.1-2,.16-3,.2a52.5,52.5,0,0,1-5.75-.06q-.6,0-1.2-.09l-.68-.08c.79.07.08,0-.07,0a14.47,14.47,0,0,1-2-.44,2.94,2.94,0,1,0-1.56,5.66Z" transform="translate(-63.19 -27.22)"/><path class="cls-3" d="M586,564.71a7.91,7.91,0,0,0-7.23.6,8.85,8.85,0,0,0-4.21,7.07,15.41,15.41,0,0,0,7,14.73,36.28,36.28,0,0,0,18.31,5.8c6.21.32,12.91-1,15.71-7.23,2.4-5.35,1.43-11.66.16-17.17-.85-3.69-6.52-2.13-5.67,1.56a33.94,33.94,0,0,1,1.07,8.57,12.37,12.37,0,0,1-.25,2.57c-.09.4-.19.8-.31,1.19,0,.12-.46,1.15-.18.54-2.52,5.44-10.24,4.54-15.11,3.47s-11.12-3.06-13.8-7.53a9.19,9.19,0,0,1-1-6.67,2.39,2.39,0,0,1,1.41-1.93c.39-.18.86-.18,1.24-.36.19-.08.4.13-.14-.13,3.39,1.63,6.38-3.44,3-5.08Z" transform="translate(-63.19 -27.22)"/><path class="cls-3" d="M635.23,565.89a37.44,37.44,0,0,0,.95,6.57,5.32,5.32,0,0,1,.14.89c0-.77,0-.17,0,0a7.58,7.58,0,0,1,0,1.26c0,.36-.05.71-.07,1.07,0,.68.08-.31,0,.32-.07.37-.14.73-.24,1.1a6.35,6.35,0,0,0-.21.7c.1-.24-.29.51-.34.61-.19.28-.19.29,0,0l-.25.29q-.32.33-.66.63c.46-.39-.25.14-.36.21-.27.16-.54.3-.82.45s-.32.14,0,0l-.38.13a12.89,12.89,0,0,1-1.81.44c-.22,0-.18,0,.12,0l-.66.06-1.1.07c-.68,0-1.36,0-2.06,0l-1-.07c-.36-.05-.38-.05-.07,0l-.43-.07c-.76-.12-1.5-.28-2.25-.46a2.94,2.94,0,0,0-1.56,5.67c6.08,1.43,14.78,1.63,18.44-4.54a13.89,13.89,0,0,0,1.53-8.51c-.19-1.43-.45-2.84-.7-4.26-.06-.31-.11-.62-.16-.93,0-.15,0-.29-.07-.44-.05-.34-.05-.29,0,.15a4.12,4.12,0,0,1-.09-1.4,2.94,2.94,0,0,0-5.88,0Z" transform="translate(-63.19 -27.22)"/><path class="cls-3" d="M592.4,434.73c-4,5.48-8.21,11.25-13.87,15.11a22.09,22.09,0,0,1-9,3.78,6.76,6.76,0,0,1-7.39-3.86,11.53,11.53,0,0,1-1.1-4.46c-.25-2.21-.37-4.43-.4-6.65a82.51,82.51,0,0,1,.93-13.23c.63-4.1,1.3-8.2,2.1-12.27.4-2,.84-4,1.34-6.06.27-1.12.56-2.23.88-3.34.12-.44.25-.88.38-1.32a7.16,7.16,0,0,0,.23-.75c.1-.34-.14-.27-.74.2,0,0,2.57,1.18,2.78,1.28q2.21,1.17,4.39,2.38c2.32,1.28,4.66,2.55,6.89,4,3.2,2.05,6.15-3,3-5.08-2.43-1.56-5-2.94-7.52-4.33s-5.61-3.62-8.56-4c-5.73-.77-6.53,5.94-7.53,10.1-1.17,4.92-2,9.92-2.83,14.92a107.89,107.89,0,0,0-1.58,15.42,68.51,68.51,0,0,0,.23,7,26.41,26.41,0,0,0,1.24,7.37c1.47,3.76,4.89,7.58,9,8.44s8.56-.44,12.3-2.17c8.61-4,14.56-12,20-19.5a3,3,0,0,0-1.05-4,3,3,0,0,0-4,1.05Z" transform="translate(-63.19 -27.22)"/><path class="cls-3" d="M589.05,399.37a12.42,12.42,0,0,0-6.72-15.62c-5.42-2.53-12.26-1.86-16.27,2.89a13.35,13.35,0,0,0-3.15,9.39,2.94,2.94,0,1,0,5.88,0,10.84,10.84,0,0,1,0-1.14c0-.12.14-1.23,0-.59a12.59,12.59,0,0,1,.47-1.83c.13-.32.13-.34,0,0l.23-.48c.13-.23.26-.46.4-.68s.7-.93.31-.47c.23-.27.46-.52.71-.77s.39-.36.59-.52c-.46.37.4-.26.49-.32.31-.19.63-.35,1-.51-.51.25.27-.1.32-.12.36-.12.73-.22,1.1-.31l.53-.1q-.49,0,0,0a15.22,15.22,0,0,1,1.91,0c.36,0,.37,0,0,0l.54.1c.27.05.54.12.81.19s.7.22,1,.35c-.54-.2.45.22.55.28s.48.26.72.4,1,.67.53.33a13.12,13.12,0,0,1,1.38,1.31c.21.26.23.28,0,0,.11.14.21.29.31.44.2.3.36.62.54.93.3.52,0-.34.15.32a7.48,7.48,0,0,1,.29,1.2c0-.41,0,.55,0,.67,0,.38,0,.76,0,1.14s0,.43,0,.18c0,.21-.07.41-.11.62-.08.39-.18.77-.29,1.15a2.94,2.94,0,1,0,5.67,1.56Z" transform="translate(-63.19 -27.22)"/><path class="cls-3" d="M576.39,462.44c0,3.26.1,6.51.19,9.77a14.18,14.18,0,0,0,3.61,9.73c2.08,2,5.21,2.7,8,3.27A85.76,85.76,0,0,0,601.21,487c9.06.43,18.09-.94,27-2.36,3.58-.58,7.63-1.06,10.65-3.24,3.5-2.52,3.52-6.79,3.64-10.7.53-17.46,1.68-35-1-52.35-1.25-8.15-2.87-17.22-8.66-23.49-5-5.47-12.1-6.23-19.11-5.26a88,88,0,0,0-24.25,7,24.62,24.62,0,0,0-9.21,8.54,83.63,83.63,0,0,0-7.83,13.53,3,3,0,0,0,1.06,4,3,3,0,0,0,4-1.05,86.8,86.8,0,0,1,6-10.89c2-3,4.18-6.36,7.33-8.27a34.54,34.54,0,0,1,6.72-2.76q5.08-1.74,10.31-3c5.57-1.37,12.73-3.21,18,0,5.88,3.53,7.63,11.27,8.88,17.48,3,15,2.7,30.34,2.17,45.57q-.22,6.43-.43,12.87c0,1.2.05,2.9-.88,3.84a8,8,0,0,1-3.46,1.45,97.75,97.75,0,0,1-11.65,2c-3.91.56-7.84,1-11.79,1.2a73.42,73.42,0,0,1-12.75-.42,41.4,41.4,0,0,1-10.65-2.27,4,4,0,0,1-2-2.06,10.06,10.06,0,0,1-.9-4.08c-.09-3.26-.19-6.53-.19-9.8,0-3.78-5.88-3.79-5.88,0Z" transform="translate(-63.19 -27.22)"/><path class="cls-3" d="M624.06,393a42.74,42.74,0,0,1,5.5-6.44,64.88,64.88,0,0,0,6.21-7.81,36.38,36.38,0,0,0,6-19.45,35,35,0,0,0-16.5-29.43c-10.25-6.38-23.3-6.18-33.89-.7a37.15,37.15,0,0,0-19.61,31.16c-.7,14.57,8.62,31.45,25,31,3.77-.12,3.79-6,0-5.88-12.11.37-18.88-11.93-19.12-22.66a31.32,31.32,0,0,1,14.81-27.44c8.49-5.12,19.52-6.08,28.35-1.26a29.07,29.07,0,0,1,15,23,30.66,30.66,0,0,1-5.27,19,62.43,62.43,0,0,1-6,7.35A42,42,0,0,0,619,390c-1.92,3.27,3.16,6.23,5.08,3Z" transform="translate(-63.19 -27.22)"/><path class="cls-3" d="M584.21,340.05a62.94,62.94,0,0,0,18.85,19.25,3,3,0,0,0,4-1.05,3,3,0,0,0-1.06-4c-.88-.59-1.75-1.19-2.6-1.81l-.61-.45-.24-.18h0l-1.29-1.05a58,58,0,0,1-4.55-4.19c-1.44-1.47-2.79-3-4.09-4.64l-.18-.24h0c-.15-.19-.31-.39-.46-.6-.3-.4-.59-.81-.88-1.22-.63-.91-1.24-1.83-1.83-2.77a2.94,2.94,0,1,0-5.08,3Z" transform="translate(-63.19 -27.22)"/><path class="cls-3" d="M605.82,360c.15,0,.87-.11.15-.06.23,0,.46,0,.7,0s.47,0,.7,0c-.39,0-.3,0,0,0s.45.15.68.2-.42-.24.06,0l.61.34c.15.1.59.53.17.1.16.17.34.33.51.49.43.4-.2-.4.13.15a5.33,5.33,0,0,1,.31.51,3.59,3.59,0,0,1,.17.34c-.11-.26-.12-.3,0-.1a6.55,6.55,0,0,1,.19.63c.05.21.15.79.08.26a9.74,9.74,0,0,1,0,1.62c0,.63.12-.38,0,.29,0,.22-.09.44-.15.67s-.15.52-.24.78-.24.56-.06.18a12.26,12.26,0,0,1-.81,1.41c-.46.7.36-.38-.2.27-.18.21-.36.42-.55.62a13.9,13.9,0,0,1-1.11,1.06c-.13.11-.49.4-.17.15-.22.17-.45.33-.68.48a15,15,0,0,1-1.44.84l-.74.35c.47-.2-.16,0-.29.09a2.94,2.94,0,0,0,1.56,5.67c5.73-2,10.75-7,10.83-13.41a9.8,9.8,0,0,0-3.9-8.11,9.61,9.61,0,0,0-8-1.54,3,3,0,0,0-2.06,3.61,3,3,0,0,0,3.62,2.06Z" transform="translate(-63.19 -27.22)"/><path class="cls-3" d="M604.69,376.86A32.2,32.2,0,0,0,622,390.08a3,3,0,0,0,3.61-2.05,3,3,0,0,0-2-3.62c-.76-.25-1.51-.54-2.25-.82.66.25-.08,0-.17-.08l-.44-.2c-.35-.16-.71-.34-1.06-.52a34.3,34.3,0,0,1-4.08-2.54c-.36-.25.53.44-.06,0l-.46-.37c-.3-.25-.59-.5-.88-.77-.59-.53-1.15-1.08-1.69-1.66-.27-.29-.54-.59-.8-.89a5.81,5.81,0,0,1-.38-.46c0-.06-.47-.59-.22-.27l-.21-.28-.36-.5c-.26-.37-.51-.74-.75-1.12a2.94,2.94,0,1,0-5.08,3Z" transform="translate(-63.19 -27.22)"/><path class="cls-7" d="M521,592.82l-26.65-2.75A110.37,110.37,0,0,0,487,571.68l16.54-21.13c1.84-1.84.92-4.6,0-6.44l-20.22-20.22a4.45,4.45,0,0,0-6.43,0l-21.14,16.55c-5.52-3.68-12-5.52-18.38-7.36l-2.76-26.65c-1.84-2.76-3.68-4.59-5.51-4.59H400.58c-2.76,0-4.6,1.83-4.6,3.67l-2.76,26.66a108.91,108.91,0,0,0-18.38,7.35l-22-15.63c-1.84-1.83-4.6-.91-6.44,0l-20.22,20.22a4.45,4.45,0,0,0,0,6.44l16.55,21.13c-3.68,5.52-5.52,12-7.36,18.39l-26.65,2.75c-2.76.92-4.59,2.76-4.59,4.6v28.49c0,2.76,1.83,4.59,3.67,4.59l26.65,2.76a109.43,109.43,0,0,0,7.36,18.38l-16.55,21.14c-1.83,1.84-.92,4.6,0,6.43l20.22,20.22a4.45,4.45,0,0,0,6.44,0L373,682.89c5.52,3.68,11.95,5.51,18.39,7.35l2.75,26.65c0,2.76,1.84,3.68,4.6,3.68h28.49c2.76,0,4.59-1.84,4.59-3.68l2.76-26.65A109.41,109.41,0,0,0,453,682.89l21.14,16.54c1.84,1.84,4.6.92,6.43,0l20.22-20.22a4.44,4.44,0,0,0,0-6.43l-16.54-21.14c3.68-5.51,5.51-11.95,7.35-18.38l26.65-2.76c2.76,0,3.68-1.83,3.68-4.59V597.42C524.65,595.58,522.81,593.74,521,592.82ZM414.36,648.89a36.77,36.77,0,1,1,36.76-36.77A36.87,36.87,0,0,1,414.36,648.89Z" transform="translate(-63.19 -27.22)"/><path class="cls-8" d="M312.3,661.77l-15.72-1.63a64,64,0,0,0-4.34-10.84L302,636.84c1.09-1.09.54-2.72,0-3.8l-11.92-11.92a2.62,2.62,0,0,0-3.8,0l-12.47,9.75c-3.25-2.17-7-3.25-10.84-4.33l-1.62-15.72c-1.09-1.63-2.17-2.71-3.25-2.71H241.29a2.48,2.48,0,0,0-2.71,2.17L237,626a64.5,64.5,0,0,0-10.84,4.34l-13-9.21c-1.09-1.09-2.71-.55-3.8,0L197.39,633a2.62,2.62,0,0,0,0,3.8l9.75,12.46c-2.16,3.25-3.25,7.05-4.33,10.84l-15.72,1.63c-1.63.54-2.71,1.63-2.71,2.71v16.8a2.47,2.47,0,0,0,2.17,2.71l15.72,1.63a64.83,64.83,0,0,0,4.33,10.84l-9.75,12.47c-1.09,1.08-.55,2.71,0,3.79l11.92,11.93a2.62,2.62,0,0,0,3.79,0L225,714.89c3.25,2.17,7.05,3.25,10.84,4.34l1.63,15.71c0,1.63,1.08,2.17,2.71,2.17H257a2.47,2.47,0,0,0,2.71-2.17l1.63-15.71a64.84,64.84,0,0,0,10.84-4.34l12.47,9.76c1.08,1.08,2.71.54,3.79,0l11.92-11.93a2.61,2.61,0,0,0,0-3.79l-9.75-12.47c2.17-3.25,3.25-7.05,4.33-10.84L310.67,684c1.63,0,2.17-1.08,2.17-2.71v-16.8C314.47,663.4,313.38,662.31,312.3,661.77Zm-62.88,33.06a21.68,21.68,0,1,1,21.68-21.68A21.74,21.74,0,0,1,249.42,694.83Z" transform="translate(-63.19 -27.22)"/></svg>