<svg id="Layer_1" data-name="Layer 1" xmlns="http://www.w3.org/2000/svg" viewBox="0 0 671.1 759.95"><defs><style>.cls-1{fill:#ecedef;}.cls-2{fill:#d9dcdf;}.cls-3{fill:#ffebc8;}.cls-4{fill:#ffd791;}.cls-5{fill:#68727e;}.cls-6{fill:#97a7b2;}.cls-7{fill:#7a8693;}.cls-8{fill:#16aabc;}.cls-9{fill:#2fc6d1;}.cls-10{fill:#0da6b2;}.cls-11{fill:#67d839;}.cls-12{fill:#d3dbe2;}.cls-13{fill:#f6f6f7;}.cls-14{fill:#8e959f;}.cls-15{fill:#d9dddd;}.cls-16{fill:#f7b14d;}.cls-17{fill:#bf722a;}.cls-18{fill:#99a7b5;}.cls-19{fill:#cacece;}.cls-20{fill:#f2dbb6;}</style></defs><path class="cls-1" d="M420.59,417H141.36a62.74,62.74,0,0,0-62.67,62.67V771.61a11.9,11.9,0,0,0,11.9,11.9H471.36a11.9,11.9,0,0,0,11.9-11.9V479.69A62.74,62.74,0,0,0,420.59,417Z" transform="translate(-53.31 -23.56)"/><path class="cls-2" d="M116,771.61V479.69A62.73,62.73,0,0,1,178.64,417H141.36a62.74,62.74,0,0,0-62.67,62.67V771.61a11.9,11.9,0,0,0,11.9,11.9h37.29A11.9,11.9,0,0,1,116,771.61Z" transform="translate(-53.31 -23.56)"/><path class="cls-3" d="M446,239.33a50,50,0,1,0,50,50A50,50,0,0,0,446,239.33Z" transform="translate(-53.31 -23.56)"/><path class="cls-3" d="M116,239.33a50,50,0,1,0,50,50A50,50,0,0,0,116,239.33Z" transform="translate(-53.31 -23.56)"/><path class="cls-3" d="M281,87c-90.55,0-164.21,73.66-164.21,164.21S190.43,415.43,281,415.43s164.2-73.66,164.2-164.2S371.52,87,281,87Z" transform="translate(-53.31 -23.56)"/><path class="cls-4" d="M305.57,403.53c-90.55,0-164.21-73.66-164.21-164.2A164.28,164.28,0,0,1,222.24,97.89c-61.62,23.69-105.47,83.48-105.47,153.34,0,90.54,73.66,164.2,164.21,164.2a163.2,163.2,0,0,0,83.33-22.77A163.3,163.3,0,0,1,305.57,403.53Z" transform="translate(-53.31 -23.56)"/><path class="cls-5" d="M217.52,288.51h-12.7a11.9,11.9,0,0,1,0-23.8h12.7a11.9,11.9,0,0,1,0,23.8Z" transform="translate(-53.31 -23.56)"/><path class="cls-5" d="M357.13,288.51H344.44a11.9,11.9,0,1,1,0-23.8h12.69a11.9,11.9,0,0,1,0,23.8Z" transform="translate(-53.31 -23.56)"/><path class="cls-6" d="M281,74.33H103.62c-7.74,0-13.8,7.12-11.88,14.78l9,36H65.53c-8.42,0-14.6,8.46-11.33,16.42.76,1.86,76.53,186.41,101.72,241.57,5.32,11.65,22.72,7.19,22.72-5.27V237a11.9,11.9,0,0,1,11.9-11.9H371.41a11.9,11.9,0,0,1,11.9,11.9V377.82a12.19,12.19,0,0,0,4.77,9.87,11.9,11.9,0,0,0,15.36-1c33.07-31.73,54.43-84.92,54.43-135.5C457.87,153.69,378.52,74.33,281,74.33Z" transform="translate(-53.31 -23.56)"/><path class="cls-7" d="M281,74.33H103.28A12,12,0,0,0,91.74,89.11l9,36H65.21a12,12,0,0,0-11,16.42c.76,1.86,76.53,186.41,101.72,241.57,5.17,11.33,22.73,7.47,22.73-4.94V343.4a163.45,163.45,0,0,1-37.29-104.07c0-88.4,70.22-160.69,157.81-164.07A176.52,176.52,0,0,0,281,74.33Z" transform="translate(-53.31 -23.56)"/><path class="cls-5" d="M281,352c-20.78,0-32.73-14.54-34.91-17.45a11.9,11.9,0,0,1,19-14.28c.25.33,6.06,7.93,15.87,7.93.4,0,10-.09,15.86-7.93a11.9,11.9,0,1,1,19,14.28C303.42,351.13,284.62,352,281,352Z" transform="translate(-53.31 -23.56)"/><path class="cls-8" d="M343.56,706.76,318.18,491a11.91,11.91,0,0,0-11.82-10.51H255.59A11.91,11.91,0,0,0,243.77,491L218.39,706.76a11.88,11.88,0,0,0,6.5,12l50.77,25.38a12,12,0,0,0,10.64,0l50.77-25.38A11.89,11.89,0,0,0,343.56,706.76Z" transform="translate(-53.31 -23.56)"/><path class="cls-9" d="M318.18,491a11.91,11.91,0,0,0-11.82-10.51H255.59A11.91,11.91,0,0,0,243.77,491l-2.31,19.64h79Z" transform="translate(-53.31 -23.56)"/><path class="cls-10" d="M331.75,417H230.21a11.9,11.9,0,0,0-11.05,16.32l25.38,63.46h72.87l25.38-63.46a11.9,11.9,0,0,0-11-16.32Z" transform="translate(-53.31 -23.56)"/><path class="cls-11" d="M585.59,23.56A126.13,126.13,0,1,0,711.72,149.69,126.27,126.27,0,0,0,585.59,23.56Z" transform="translate(-53.31 -23.56)"/><path class="cls-12" d="M585.59,61.64a88.05,88.05,0,1,0,88,88.05A88.15,88.15,0,0,0,585.59,61.64Z" transform="translate(-53.31 -23.56)"/><path class="cls-13" d="M585.59,73.54a76.15,76.15,0,1,0,76.15,76.15A76.24,76.24,0,0,0,585.59,73.54Z" transform="translate(-53.31 -23.56)"/><path class="cls-14" d="M623.66,187a11.76,11.76,0,0,1-6.59-2L579,159.59a11.9,11.9,0,0,1-5.3-9.9V111.61a11.9,11.9,0,1,1,23.8,0v31.71l32.78,21.85a11.9,11.9,0,0,1-6.61,21.8Z" transform="translate(-53.31 -23.56)"/><path class="cls-15" d="M417.24,600.4V772.79A10.72,10.72,0,0,0,428,783.51H713.7a10.72,10.72,0,0,0,10.71-10.72V600.4Z" transform="translate(-53.31 -23.56)"/><path class="cls-16" d="M627.26,544.2a33.61,33.61,0,0,0-33.58-33.57H548a33.61,33.61,0,0,0-33.58,33.57v18.1h21.43V544.2A12.15,12.15,0,0,1,548,532.06h45.71a12.15,12.15,0,0,1,12.15,12.14v18.1h21.43V544.2Z" transform="translate(-53.31 -23.56)"/><rect class="cls-17" x="461.08" y="524.93" width="21.43" height="13.81"/><rect class="cls-17" x="552.52" y="524.93" width="21.43" height="13.81"/><path class="cls-18" d="M417.24,600.4v27.15a10.71,10.71,0,0,0,6.31,9.76l142.87,64.53a10.82,10.82,0,0,0,8.71,0L718,639.28a10.71,10.71,0,0,0,6.41-9.81V600.39H417.24Z" transform="translate(-53.31 -23.56)"/><path class="cls-19" d="M713.7,556.34H428a10.72,10.72,0,0,0-10.72,10.72v38.35a10.71,10.71,0,0,0,6.31,9.76l142.87,64.52a10.78,10.78,0,0,0,8.71,0L718,617.14a10.73,10.73,0,0,0,6.41-9.82V567.06A10.72,10.72,0,0,0,713.7,556.34Z" transform="translate(-53.31 -23.56)"/><path class="cls-20" d="M599.4,636.35H542.25a10.71,10.71,0,0,0-10.71,10.72v45.72a10.71,10.71,0,0,0,10.71,10.71H599.4a10.71,10.71,0,0,0,10.72-10.71V647.07A10.72,10.72,0,0,0,599.4,636.35Z" transform="translate(-53.31 -23.56)"/><path class="cls-16" d="M599.4,692.79H542.25a10.71,10.71,0,0,1-10.71-10.72v10.72a10.71,10.71,0,0,0,10.71,10.71H599.4a10.72,10.72,0,0,0,10.72-10.71V682.07A10.72,10.72,0,0,1,599.4,692.79Z" transform="translate(-53.31 -23.56)"/></svg>