<svg id="Layer_1" data-name="Layer 1" xmlns="http://www.w3.org/2000/svg" viewBox="0 0 666.32 701.08"><defs><style>.cls-1{fill:#e8eded;}.cls-2{fill:#16aabc;}.cls-3{fill:#b2b2b2;}.cls-4{fill:#67d839;}.cls-5{fill:#727272;}.cls-6{fill:#ff9800;}.cls-7{fill:#ffa726;}.cls-8{fill:#ffb74d;}.cls-9{fill:#424242;}.cls-10{fill:#784719;}.cls-11{fill:#fff;}.cls-12{fill:#d32f2f;}.cls-13{fill:#546e7a;}</style></defs><path class="cls-1" d="M550,700H83.33V66.67H400l150,150Z" transform="translate(-83.33 -66.67)"/><path class="cls-2" d="M525,233.33H383.33V91.67Z" transform="translate(-83.33 -66.67)"/><path class="cls-3" d="M575.08,626.33l33-33L749.47,734.75l-33,33Z" transform="translate(-83.33 -66.67)"/><path class="cls-3" d="M283.33,483.33A183.33,183.33,0,0,0,466.67,666.67C567.92,666.67,650,584.59,650,483.33A183.33,183.33,0,0,0,466.67,300c-101.26,0-183.34,82.08-183.34,183.33Z" transform="translate(-83.33 -66.67)"/><path class="cls-4" d="M316.67,483.33a150,150,0,1,0,150-150A150,150,0,0,0,316.67,483.33Z" transform="translate(-83.33 -66.67)"/><path class="cls-5" d="M614.15,664.67l33-33,102.5,102.51-33,33Z" transform="translate(-83.33 -66.67)"/><path class="cls-2" d="M500,516.67H338.33A127.16,127.16,0,0,0,380,583.33H500ZM338.33,450H500V383.33H378.33c-20,16.67-33.33,40-40,66.67ZM335,333.33H183.33v33.34H305a186.89,186.89,0,0,1,30-33.34ZM285,400H183.33v33.33h90C276.67,421.67,280,410,285,400Zm-18.33,83.33c0-5,0-11.66,1.66-16.66h-85V500h85c-1.66-5-1.66-11.67-1.66-16.67Zm6.66,50h-90v33.34H285C280,556.67,276.67,545,273.33,533.33Z" transform="translate(-83.33 -66.67)"/><path class="cls-6" d="M180.51,250.19,157.4,222.45V194.72h46.22v27.73Z" transform="translate(-83.33 -66.67)"/><path class="cls-7" d="M212.87,167a9.25,9.25,0,1,0,18.49,0v0a9.25,9.25,0,1,0-18.49,0Z" transform="translate(-83.33 -66.67)"/><path class="cls-7" d="M129.67,167a9.24,9.24,0,1,0,9.24-9.24A9.24,9.24,0,0,0,129.67,167Z" transform="translate(-83.33 -66.67)"/><path class="cls-8" d="M222.11,139.25c0-35.13-83.2-23.11-83.2,0v32.36a41.6,41.6,0,1,0,83.2,0V139.25Z" transform="translate(-83.33 -66.67)"/><path class="cls-9" d="M180.51,97.65c-28.2,0-46.22,22.65-46.22,50.85v10.63l9.24,7.85V143.87L199,125.38l18.49,18.49V167l9.24-7.85V148.5c0-18.49-4.62-37-27.73-41.6l-4.62-9.25Z" transform="translate(-83.33 -66.67)"/><path class="cls-10" d="M194.38,167a4.62,4.62,0,1,0,4.62-4.62A4.62,4.62,0,0,0,194.38,167Z" transform="translate(-83.33 -66.67)"/><path class="cls-10" d="M157.4,167a4.62,4.62,0,1,0,9.24,0h0a4.62,4.62,0,0,0-9.24,0Z" transform="translate(-83.33 -66.67)"/><path class="cls-11" d="M180.51,277.92,157.4,222.45l23.11,4.62,23.11-4.62Z" transform="translate(-83.33 -66.67)"/><path class="cls-12" d="M175.89,240.94l-3.24,20.8,7.86,18.49,7.86-18.49-3.24-20.8,4.62-4.62-9.24-9.25-9.24,9.25Z" transform="translate(-83.33 -66.67)"/><path class="cls-13" d="M203.62,222.45l-23.11,55.47L157.4,222.45s-50.85,9.25-50.85,60.09H254.47c0-50.84-50.85-60.09-50.85-60.09Z" transform="translate(-83.33 -66.67)"/></svg>