<svg xmlns="http://www.w3.org/2000/svg" viewBox="0 0 565.59 767.18"><defs><style>.cls-1{fill:#e8eded;}.cls-2{fill:#c1c1c1;}.cls-3{fill:#67d839;}.cls-4{fill:#16aabc;}.cls-5{fill:#fdffff;}.cls-6{fill:#efaf22;}</style></defs><g id="Layer_2" data-name="Layer 2"><path class="cls-1" d="M686.65,780.09H131.82V27.1H508.31L686.65,205.44Z" transform="translate(-121.06 -12.91)"/><path class="cls-1" d="M675.89,765.89H121.06v-753H497.55L675.89,191.24Z" transform="translate(-121.06 -12.91)"/><path class="cls-2" d="M656.92,225.26H488.49V56.83Z" transform="translate(-121.06 -12.91)"/><path class="cls-3" d="M303,450.94V665.86H325l29-32H338.68V614.39h47.73l-53.84-59.67,14.48-13,32.6,36.1v-1.41h79.79a9.83,9.83,0,0,1,8.33,4.62l23.58,33.36h44.3a9.6,9.6,0,0,1,7.36,3.38l48.53,48.13H645.7v22.41H154.07V665.86H282V450.94H158.86a7.6,7.6,0,0,1-7.61-7.6,5.3,5.3,0,0,1,0-.77,136.84,136.84,0,0,1,41.53-97,142.05,142.05,0,0,1,97.42-40.28,7.43,7.43,0,0,1,2.33-.36,7.92,7.92,0,0,1,2.37.36,142,142,0,0,1,96.86,40.32,136.82,136.82,0,0,1,41.52,97.7,7.55,7.55,0,0,1-7.56,7.56v0Zm48.41,215H563.86L531.63,634H380.45L351.4,665.9Zm61.28-51.51h54.77l-13-18.47H396l16.66,18.47ZM381.22,356.5A125.92,125.92,0,0,0,345.44,332a116.84,116.84,0,0,1,13,25.31c8.25,21.77,12.27,48.53,12.68,78.46h46.75a121.73,121.73,0,0,0-36.69-79.27Zm-66.68-34.08a141,141,0,0,0-14.37-1.69v115H356c-.37-28.08-4.11-53-11.71-73.11-6.76-17.91-16.58-31.79-29.78-40.24ZM285,320.69a137.16,137.16,0,0,0-14.16,1.57c-13.36,8.49-23.3,22.49-30.1,40.64-7.52,20-11.22,44.91-11.59,72.83H285v-115Zm-45,10.95a126,126,0,0,0-36.58,24.9,121.73,121.73,0,0,0-36.7,79.23H214c.37-29.77,4.39-56.45,12.56-78.18A112.5,112.5,0,0,1,240,331.64Z" transform="translate(-121.06 -12.91)"/><path class="cls-4" d="M154.63,665.86h128V450.94H159.42a7.6,7.6,0,0,1-7.61-7.6,5.3,5.3,0,0,1,0-.77,136.88,136.88,0,0,1,41.53-97,142.05,142.05,0,0,1,97.42-40.28,7.47,7.47,0,0,1,2.33-.36,8,8,0,0,1,2.38.36,142,142,0,0,1,96.85,40.32,136.83,136.83,0,0,1,41.53,97.7,7.56,7.56,0,0,1-7.57,7.56v0H303.55V665.86h22.06" transform="translate(-121.06 -12.91)"/><path class="cls-5" d="M378.19,366.16a126,126,0,0,0-35.77-24.51,117.28,117.28,0,0,1,13,25.31c8.25,21.77,12.28,48.53,12.68,78.47h46.76a121.72,121.72,0,0,0-36.7-79.27Z" transform="translate(-121.06 -12.91)"/><path class="cls-5" d="M311.51,332.08a137.68,137.68,0,0,0-14.36-1.69v115H353c-.36-28.09-4.1-53-11.71-73.11-6.76-17.91-16.58-31.79-29.78-40.24Z" transform="translate(-121.06 -12.91)"/><path class="cls-5" d="M281.94,330.35a134.35,134.35,0,0,0-14.17,1.57c-13.35,8.49-23.29,22.49-30.09,40.64-7.53,20-11.23,44.9-11.59,72.83h55.85v-115Z" transform="translate(-121.06 -12.91)"/><path class="cls-5" d="M237,341.29a126.38,126.38,0,0,0-36.58,24.91,121.7,121.7,0,0,0-36.69,79.23H211c.36-29.78,4.38-56.46,12.55-78.19A112.91,112.91,0,0,1,237,341.29Z" transform="translate(-121.06 -12.91)"/><path class="cls-6" d="M523.28,294.29a5.09,5.09,0,0,1,8.81-5.11l6.52,11.31a5.12,5.12,0,0,1-1.85,7,5,5,0,0,1-6.92-1.85l-6.56-11.31Z" transform="translate(-121.06 -12.91)"/><path class="cls-6" d="M563.84,311a45.48,45.48,0,1,1-32.15,13.32A45.21,45.21,0,0,1,563.84,311Z" transform="translate(-121.06 -12.91)"/><path class="cls-6" d="M559.81,282.34a5.11,5.11,0,1,1,10.22,0v13a5.11,5.11,0,0,1-10.22,0v-13Z" transform="translate(-121.06 -12.91)"/><path class="cls-6" d="M597.48,290.27a5.07,5.07,0,0,1,8.77,5.07l-6.52,11.31a5.06,5.06,0,1,1-8.77-5l6.52-11.35Z" transform="translate(-121.06 -12.91)"/><path class="cls-6" d="M626.09,315.94a5.06,5.06,0,0,1,6.92,1.85,5.15,5.15,0,0,1-1.85,7l-11.27,6.52a5.09,5.09,0,1,1-5.11-8.81l11.31-6.52Z" transform="translate(-121.06 -12.91)"/><path class="cls-6" d="M638,352.44a5.11,5.11,0,0,1,0,10.22H625a5.11,5.11,0,0,1,0-10.22Z" transform="translate(-121.06 -12.91)"/><path class="cls-6" d="M630.11,390.1a5.07,5.07,0,1,1-5.07,8.77l-11.31-6.51a5.07,5.07,0,0,1,5.07-8.78l11.31,6.52Z" transform="translate(-121.06 -12.91)"/><path class="cls-6" d="M604.44,418.71a5.11,5.11,0,0,1-1.85,7,5,5,0,0,1-6.92-1.85l-6.52-11.3a5.09,5.09,0,1,1,8.81-5.11l6.48,11.3Z" transform="translate(-121.06 -12.91)"/><path class="cls-6" d="M567.9,430.66a5.09,5.09,0,1,1-10.18,0v-13a5.09,5.09,0,1,1,10.18,0v13Z" transform="translate(-121.06 -12.91)"/><path class="cls-6" d="M530.24,422.74a5.07,5.07,0,1,1-8.77-5.07L528,406.36a5.06,5.06,0,1,1,8.77,5l-6.52,11.35Z" transform="translate(-121.06 -12.91)"/><path class="cls-6" d="M501.63,397.06a5.09,5.09,0,0,1-5.11-8.81l11.31-6.52a5.06,5.06,0,0,1,6.92,1.85,5.13,5.13,0,0,1-1.85,7l-11.27,6.51Z" transform="translate(-121.06 -12.91)"/><path class="cls-6" d="M489.68,360.53a5.11,5.11,0,0,1,0-10.22h13a5.11,5.11,0,0,1,0,10.22Z" transform="translate(-121.06 -12.91)"/><path class="cls-6" d="M497.61,322.9a5.07,5.07,0,1,1,5.07-8.77l11.3,6.52a5.07,5.07,0,1,1-5.07,8.77l-11.3-6.52Z" transform="translate(-121.06 -12.91)"/></g></svg>