<svg id="Layer_1" data-name="Layer 1" xmlns="http://www.w3.org/2000/svg" viewBox="0 0 649.58 740.98"><defs><style>.cls-1{fill:#fff;}.cls-2{fill:#56ace0;}.cls-3{fill:#67d839;}.cls-4{fill:#fdfeff;}.cls-5{fill:#16aabc;}</style></defs><rect class="cls-1" x="128.26" y="41.13" width="480.32" height="658.74"/><rect class="cls-2" x="169.38" y="431.63" width="398.07" height="226.86"/><circle class="cls-3" cx="368.3" cy="237.72" r="159.86"/><path class="cls-4" d="M461.3,338.72A25.23,25.23,0,0,1,436,313.46a20.63,20.63,0,1,0-41.25,0,66.38,66.38,0,0,0,45.76,63v10.49a20.63,20.63,0,1,0,41.25,0V376.43a66.46,66.46,0,0,0,45.76-63c0-36.61-32.22-66.27-68.83-66.27h-.12a25.27,25.27,0,1,1,27.94-25.13,20.63,20.63,0,0,0,41.25,0,66.37,66.37,0,0,0-45.76-63v-10.5a20.63,20.63,0,0,0-41.25,0v10.5a66.31,66.31,0,0,0,20.63,129.35h.12c12.69,1.34,25.14,11.84,25.14,24.9A25.52,25.52,0,0,1,461.3,338.72Z" transform="translate(-93 -30.1)"/><path class="cls-5" d="M722.08,30.1H200.63A20.59,20.59,0,0,0,180,50.72v65.53H113.62a20.63,20.63,0,0,0,0,41.25h66.27v59.92H113.62a20.62,20.62,0,1,0,0,41.24h66.27v284H113.62A20.6,20.6,0,0,0,93,563.26a20.31,20.31,0,0,0,20.62,20.38h66.27v59.91H113.62a20.63,20.63,0,0,0,0,41.25h66.27v65.65a20.6,20.6,0,0,0,20.62,20.63H722a20.6,20.6,0,0,0,20.62-20.63V50.6A20.31,20.31,0,0,0,722.08,30.1ZM701.58,730H221.26V71.22H701.58V730Z" transform="translate(-93 -30.1)"/><path class="cls-1" d="M335.24,547.76H587.48a20.62,20.62,0,0,0,0-41.24H335.24a20.62,20.62,0,1,0,0,41.24Z" transform="translate(-93 -30.1)"/><path class="cls-1" d="M335.24,646.85H587.48a20.62,20.62,0,0,0,0-41.24H335.24a20.62,20.62,0,1,0,0,41.24Z" transform="translate(-93 -30.1)"/></svg>