<svg id="Capa_1" data-name="Capa 1" xmlns="http://www.w3.org/2000/svg" viewBox="0 0 748.14 748.14"><defs><style>.cls-1{fill:#16aabc;}.cls-2{fill:#67d839;}</style></defs><path class="cls-1" d="M708.76,37.12H91.24a65.35,65.35,0,0,0-65.31,65.31V719.94a65.34,65.34,0,0,0,65.31,65.32H635L774.07,646.2V102.43A65.36,65.36,0,0,0,708.76,37.12Zm-99,48.49a35.13,35.13,0,1,1-35.13,35.13A35.12,35.12,0,0,1,609.79,85.61Zm-104.91,0a35.13,35.13,0,1,1-35.12,35.13A35.15,35.15,0,0,1,504.88,85.61ZM400,85.61a35.13,35.13,0,1,1-35.13,35.13A35.15,35.15,0,0,1,400,85.61Zm-104.88,0A35.13,35.13,0,1,1,260,120.74,35.14,35.14,0,0,1,295.12,85.61Zm-104.91,0a35.13,35.13,0,1,1-35.12,35.13A35.13,35.13,0,0,1,190.21,85.61ZM738.44,631.42l-7.38,7.39H675.13a47.62,47.62,0,0,0-47.51,47.5v55.93l-7.38,7.39h-529a29.72,29.72,0,0,1-29.68-29.69V197.43H738.44Z" transform="translate(-25.93 -37.12)"/><path class="cls-1" d="M402.23,430.3c3.49,2.05,6.89,2.28,10.12.65q7.62-3.49,15.13-16.42t6.7-21.3c-.34-3.51-2.24-6.32-5.7-8.34s-6.89-2.28-10.14-.8c-5.09,2.3-10.1,7.79-15.11,16.46s-7.27,15.77-6.72,21.3C396.82,425.48,398.74,428.29,402.23,430.3Z" transform="translate(-25.93 -37.12)"/><path class="cls-1" d="M491.34,532c-3.49-2-6.86-2.24-10.16-.67-5.06,2.33-10.07,7.79-15.11,16.46s-7.26,15.79-6.69,21.28c.33,3.54,2.18,6.32,5.7,8.36s6.86,2.31,10.14.83c5.08-2.28,10.12-7.79,15.1-16.46s7.29-15.81,6.77-21.37A10.7,10.7,0,0,0,491.34,532Z" transform="translate(-25.93 -37.12)"/><path class="cls-2" d="M138.29,447.36c14.28,8.24,45.51,7.62,79.57-1.5,3.75-1,7.38-2.11,10.95-3.23l6.12,95.22L503.6,692.94,658.67,424.3,390,269.21,223,351.83,224.82,381c-7.41,1.21-15.13,2.83-23,4.92-34.08,9.14-61.42,24.22-69.63,38.52-2.57,4.47-3.35,8.81-2.26,12.9S133.85,444.79,138.29,447.36Zm381.65,131.2q-10.62,18.38-28.12,23t-37-6.53c-8.67-5-15.22-11.14-19.61-18.34a37.26,37.26,0,0,1-5.7-23.08,54.69,54.69,0,0,1,23.56-40.83,37.73,37.73,0,0,1,22.84-6.6c8.46.21,17.06,2.82,25.68,7.84,13,7.48,21,17.05,24.18,28.71S527,566.32,519.94,578.56ZM373.85,383.28a53,53,0,0,1,16.41-17.65,37.59,37.59,0,0,1,22.83-6.6q12.6.32,25.72,7.91,19.31,11.15,24.1,28.59t-5.84,35.8c-7.1,12.35-16.48,20-28.17,23.06s-23.91.88-36.81-6.53Q379,440.3,372.38,429.54a37.62,37.62,0,0,1-5.68-23.08A53.82,53.82,0,0,1,373.85,383.28Zm153.93,35,22.2,12.8-183.73,113-21.92-12.66Zm-255.58-38a25.84,25.84,0,1,1,9.43,35.32c-.22-.14-.33-.36-.52-.5a38.58,38.58,0,0,0,6.41-7.74c2.56-4.47,3.32-8.79,2.23-12.87s-3.92-7.44-8.38-10A37.81,37.81,0,0,0,272,381C272.06,380.76,272.06,380.5,272.2,380.26Zm4,13.16c2,1.16,3.21,2.42,3.54,3.75s-.05,3-1.21,5a29.55,29.55,0,0,1-5,5.82A25.84,25.84,0,0,1,269,390.86,28.92,28.92,0,0,1,276.19,393.42ZM141.12,429.59c5.51-9.5,27.69-24.13,63.39-33.68a208,208,0,0,1,21-4.48L228.12,432c-4.09,1.41-8.41,2.66-12.92,3.85-43.13,11.54-73.2,6.58-75.27-1.26C139.58,433.32,140,431.59,141.12,429.59Z" transform="translate(-25.93 -37.12)"/></svg>