<svg id="Layer_1" data-name="Layer 1" xmlns="http://www.w3.org/2000/svg" viewBox="0 0 765.01 764.17"><defs><style>.cls-1{fill:#231f20;}.cls-2{fill:#ffba50;}.cls-3{fill:#67d839;}.cls-4{fill:#ff8e5a;}.cls-5{fill:#00a1d3;}.cls-6{fill:#d9dddd;}</style></defs><path class="cls-1" d="M739.73,667.57l36-208.22a9.07,9.07,0,0,0-.89-5.44,7.89,7.89,0,0,0-.33-.72,7.5,7.5,0,0,0-.84-1.24,9.09,9.09,0,0,0-7.42-4.05h-348l-11.78-68.14a30.66,30.66,0,0,0-30.28-25.52H317A26.75,26.75,0,0,0,290.3,381v7.27A26.74,26.74,0,0,0,317,415h76.73l45.12,261.23a64.63,64.63,0,0,0,22.35,38.75,39.73,39.73,0,1,0,52.41,20.24,39.1,39.1,0,0,0-2.82-5.26h155.5A39.16,39.16,0,0,0,660.13,751,39.62,39.62,0,1,0,729.3,724.9a9,9,0,0,0,1.15-4.25,9.27,9.27,0,0,0-9.27-9.27H502.65a46,46,0,0,1-44.91-36H730.57a8.51,8.51,0,0,0,9.16-7.81ZM664.91,521.22h81.24l-5.74,33.27a9.58,9.58,0,0,0-2.13-.43H660.83Zm-6.47,51.39h78.88l-5.68,32.87H654.32ZM438.77,554.06a9.15,9.15,0,0,0-2.13.43l-5.75-33.27h81.75l4,32.84Zm1,18.55H519l4,32.87H445.45Zm14.56,84.26L448.66,624h76.58l4,32.85Zm174.82,0H547.94L544,624h89.37Zm6.48-51.38h-94l-4-32.86H639.74Zm6.45-51.41H535.34l-4-32.84h115ZM722.8,656.87H647.85L652,624h76.47Z" transform="translate(-15.27 -26.83)"/><path class="cls-1" d="M366.68,599.58h-6.31a25.7,25.7,0,0,0,1.32-7.77V568.05a26.19,26.19,0,0,0-26.17-26.15H239.26A117.64,117.64,0,1,0,58.3,582,117.59,117.59,0,0,0,193,774a26.17,26.17,0,0,0,24.28,16.52H366.68a26.18,26.18,0,0,0,26.15-26.15V740.79a26.19,26.19,0,0,0-26.15-26.15h-6.31a25.86,25.86,0,0,0,1.3-7.75V683.24a25.86,25.86,0,0,0-1.3-7.75h6.33a26.19,26.19,0,0,0,26.15-26.15V625.67A26.18,26.18,0,0,0,366.68,599.58Z" transform="translate(-15.27 -26.83)"/><path class="cls-2" d="M34,672.89a99.17,99.17,0,1,1,99.17,99.17A99.17,99.17,0,0,1,34,672.89Z" transform="translate(-15.27 -26.83)"/><path class="cls-2" d="M374.28,740.79v23.67a7.62,7.62,0,0,1-7.6,7.6H217.23a7.62,7.62,0,0,1-7.62-7.6,9.88,9.88,0,0,0-.37-1.86A118,118,0,0,0,234,733.11H366.68a7.62,7.62,0,0,1,7.6,7.64Z" transform="translate(-15.27 -26.83)"/><path class="cls-1" d="M133.12,590.3a82.52,82.52,0,1,0,82.59,82.59A82.52,82.52,0,0,0,133.12,590.3Z" transform="translate(-15.27 -26.83)"/><path class="cls-3" d="M134.65,749.27a74.88,74.88,0,1,1,75-74.83A74.88,74.88,0,0,1,134.65,749.27Z" transform="translate(-15.27 -26.83)"/><path class="cls-4" d="M243.05,714.57a116.69,116.69,0,0,0,7.66-39h84.77a7.61,7.61,0,0,1,7.63,7.58v23.67a7.61,7.61,0,0,1-7.61,7.6h0c-.24,0-.46.13-.7.15Z" transform="translate(-15.27 -26.83)"/><path class="cls-5" d="M34,491.43A99.17,99.17,0,1,1,191.88,571a116.78,116.78,0,0,0-117.5,0A98.77,98.77,0,0,1,34,491.43Z" transform="translate(-15.27 -26.83)"/><path class="cls-1" d="M246.76,250.55a61.22,61.22,0,0,0,51.82-29l122.09,50.87a61.3,61.3,0,1,0,111.46-20.4L672.55,135.91a63.51,63.51,0,1,0-11.29-14.74l-141.55,117a60.46,60.46,0,0,0-92.27,17L305.87,204.53a61.21,61.21,0,1,0-59.11,46Z" transform="translate(-15.27 -26.83)"/><path class="cls-3" d="M714.62,48.74A42.66,42.66,0,1,1,672,91.4h0A42.76,42.76,0,0,1,714.62,48.74Z" transform="translate(-15.27 -26.83)"/><path class="cls-3" d="M480.65,242.26A42.66,42.66,0,1,1,438,284.91h0A42.77,42.77,0,0,1,480.65,242.26Z" transform="translate(-15.27 -26.83)"/><path class="cls-3" d="M246.76,146.54a42.66,42.66,0,1,1-42.66,42.65A42.65,42.65,0,0,1,246.76,146.54Z" transform="translate(-15.27 -26.83)"/><path class="cls-6" d="M317,396.42a8.2,8.2,0,0,1-8.18-8.18V381a8.2,8.2,0,0,1,8.18-8.18h59.15a12.17,12.17,0,0,1,12,10.12l2.34,13.51Z" transform="translate(-15.27 -26.83)"/><path class="cls-5" d="M477.19,785.08a33.65,33.65,0,1,1,33.65-33.65A33.66,33.66,0,0,1,477.19,785.08Z" transform="translate(-15.27 -26.83)"/><path class="cls-5" d="M699.7,784.65A33.66,33.66,0,1,1,733.36,751,33.66,33.66,0,0,1,699.7,784.65Z" transform="translate(-15.27 -26.83)"/><circle class="cls-5" cx="684.43" cy="724.16" r="21.07"/><polygon class="cls-6" points="740.37 439.62 734.12 475.84 412.43 475.84 406.16 439.62 740.37 439.62"/><path class="cls-4" d="M335.48,560.52a7.61,7.61,0,0,1,7.63,7.58v23.65a7.63,7.63,0,0,1-7.63,7.62c-.24,0-.46.13-.7.15H225a116.88,116.88,0,0,0-17-17.41,118.9,118.9,0,0,0,20.4-21.59Z" transform="translate(-15.27 -26.83)"/><path class="cls-2" d="M374.28,649.34a7.62,7.62,0,0,1-7.6,7.6h-31.2c-.24,0-.46.13-.7.15H249.65a116.81,116.81,0,0,0-12.43-39H366.68a7.62,7.62,0,0,1,7.6,7.61Z" transform="translate(-15.27 -26.83)"/></svg>