<svg id="Layer_1" data-name="Layer 1" xmlns="http://www.w3.org/2000/svg" viewBox="0 0 553.76 762.01"><defs><style>.cls-1{fill:#51afaf;}.cls-2{fill:#467d7f;}.cls-3{fill:#e6eaea;}.cls-4{fill:#9baaab;}.cls-5{fill:#67d839;}.cls-6{fill:#60bc35;}.cls-7{fill:#fff;}.cls-8{fill:#4acfd9;}.cls-9{fill:#0295aa;}</style></defs><path class="cls-1" d="M654.24,74.11H124.15a11.82,11.82,0,0,0-11.83,11.83V761.18A11.83,11.83,0,0,0,124.15,773H654.24a11.83,11.83,0,0,0,11.83-11.83V85.94A11.82,11.82,0,0,0,654.24,74.11Z" transform="translate(-112.32 -11)"/><path class="cls-2" d="M124.15,74.11a11.82,11.82,0,0,0-11.83,11.83V761.18A11.83,11.83,0,0,0,124.15,773h265V74.11Z" transform="translate(-112.32 -11)"/><path class="cls-3" d="M603.76,124.59H174.63a11.83,11.83,0,0,0-11.83,11.83V717a11.83,11.83,0,0,0,11.83,11.83H483.85a11.83,11.83,0,0,0,8.37-3.46l119.9-119.9a11.84,11.84,0,0,0,3.47-8.37V136.42A11.83,11.83,0,0,0,603.76,124.59Z" transform="translate(-112.32 -11)"/><path class="cls-4" d="M483.85,608.93v119.9h0a11.82,11.82,0,0,0,8.36-3.46l119.9-119.9a11.84,11.84,0,0,0,3.47-8.37H495.69A11.84,11.84,0,0,0,483.85,608.93Z" transform="translate(-112.32 -11)"/><path class="cls-5" d="M515.41,74.11H473.28a87.57,87.57,0,0,0-168.17,0H263a11.83,11.83,0,0,0-11.83,11.83V180.6A11.83,11.83,0,0,0,263,192.43H515.41a11.83,11.83,0,0,0,11.83-11.83V85.94A11.83,11.83,0,0,0,515.41,74.11Z" transform="translate(-112.32 -11)"/><path class="cls-6" d="M305.11,74.11H263a11.83,11.83,0,0,0-11.83,11.83V180.6A11.83,11.83,0,0,0,263,192.43H389.2V11A87.23,87.23,0,0,0,305.11,74.11Z" transform="translate(-112.32 -11)"/><path class="cls-7" d="M432.73,103a11.84,11.84,0,0,1-11.66-9.88,32.19,32.19,0,0,0-31.87-26.9,11.84,11.84,0,1,1,0-23.67A55.79,55.79,0,0,1,444.41,89.2a11.84,11.84,0,0,1-9.71,13.63A12.2,12.2,0,0,1,432.73,103Z" transform="translate(-112.32 -11)"/><path class="cls-8" d="M389.2,238.18c-83.08,0-150.67,67.59-150.67,150.67S306.12,539.51,389.2,539.51s150.66-67.58,150.66-150.66S472.27,238.18,389.2,238.18Z" transform="translate(-112.32 -11)"/><path class="cls-9" d="M238.53,388.85c0,83.08,67.59,150.66,150.67,150.66V238.18C306.12,238.18,238.53,305.77,238.53,388.85Z" transform="translate(-112.32 -11)"/><path class="cls-7" d="M341.87,457.48A11.81,11.81,0,0,1,333.5,454l-37.86-37.86a11.83,11.83,0,1,1,16.73-16.74l29.5,29.5L443.94,326.84a11.83,11.83,0,0,1,16.73,16.74L350.23,454A11.8,11.8,0,0,1,341.87,457.48Z" transform="translate(-112.32 -11)"/></svg>