<svg id="Layer_1" data-name="Layer 1" xmlns="http://www.w3.org/2000/svg" viewBox="0 0 353.88 483.95"><defs><style>.cls-1{fill:#f1f4fb;}.cls-2{fill:#d5dced;}.cls-3{fill:#16aabc;}.cls-4{fill:#ffc850;}.cls-5{fill:#7f8499;}.cls-6{fill:#5b5d6e;}.cls-7{fill:#707487;}.cls-8{fill:#e4efdf;}.cls-9{fill:#d5e0ca;}.cls-10{fill:none;stroke:red;stroke-miterlimit:10;stroke-width:11px;}</style></defs><path class="cls-1" d="M394.32,479.64H88.67a18,18,0,0,1-18-18V57.12a18,18,0,0,1,18-18H394.32a18,18,0,0,1,18,18V461.66A18,18,0,0,1,394.32,479.64Z" transform="translate(-70.7 -12.17)"/><path class="cls-2" d="M376.34,335.8a107.64,107.64,0,0,0-101.6,143.84H394.32a18,18,0,0,0,18-18V342.07A107.37,107.37,0,0,0,376.34,335.8Z" transform="translate(-70.7 -12.17)"/><circle class="cls-3" cx="71.92" cy="162.33" r="36.48"/><circle class="cls-4" cx="67.42" cy="275.62" r="40.45"/><circle class="cls-4" cx="67.42" cy="382.06" r="40.45"/><path class="cls-3" d="M394.32,39.14H88.67a18,18,0,0,0-18,18v36H412.3v-36A18,18,0,0,0,394.32,39.14Z" transform="translate(-70.7 -12.17)"/><path class="cls-5" d="M358.36,308.83H214.53a9,9,0,0,1,0-18H358.36a9,9,0,1,1,0,18Z" transform="translate(-70.7 -12.17)"/><path class="cls-6" d="M322.41,272.87H214.53a9,9,0,1,1,0-18H322.41a9,9,0,0,1,0,18Z" transform="translate(-70.7 -12.17)"/><path class="cls-6" d="M322.41,371.76H214.53a9,9,0,1,1,0-18H322.41a9,9,0,0,1,0,18Z" transform="translate(-70.7 -12.17)"/><path class="cls-5" d="M358.36,210H214.53a9,9,0,0,1,0-18H358.36a9,9,0,1,1,0,18Z" transform="translate(-70.7 -12.17)"/><path class="cls-6" d="M322.41,174H214.53a9,9,0,1,1,0-18H322.41a9,9,0,0,1,0,18Z" transform="translate(-70.7 -12.17)"/><path class="cls-5" d="M259.48,66.11a9,9,0,0,1-9-9v-36a9,9,0,0,1,18,0v36A9,9,0,0,1,259.48,66.11Z" transform="translate(-70.7 -12.17)"/><path class="cls-5" d="M223.52,66.11a9,9,0,0,1-9-9v-36a9,9,0,1,1,18,0v36A9,9,0,0,1,223.52,66.11Z" transform="translate(-70.7 -12.17)"/><path class="cls-5" d="M151.6,66.11a9,9,0,0,1-9-9v-36a9,9,0,0,1,18,0v36A9,9,0,0,1,151.6,66.11Z" transform="translate(-70.7 -12.17)"/><path class="cls-5" d="M187.56,66.11a9,9,0,0,1-9-9v-36a9,9,0,1,1,18,0v36A9,9,0,0,1,187.56,66.11Z" transform="translate(-70.7 -12.17)"/><path class="cls-5" d="M331.4,66.11a9,9,0,0,1-9-9v-36a9,9,0,0,1,18,0v36A9,9,0,0,1,331.4,66.11Z" transform="translate(-70.7 -12.17)"/><path class="cls-5" d="M367.35,66.11a9,9,0,0,1-9-9v-36a9,9,0,1,1,18,0v36A9,9,0,0,1,367.35,66.11Z" transform="translate(-70.7 -12.17)"/><path class="cls-5" d="M295.44,66.11a9,9,0,0,1-9-9v-36a9,9,0,0,1,18,0v36A9,9,0,0,1,295.44,66.11Z" transform="translate(-70.7 -12.17)"/><path class="cls-5" d="M115.64,66.11a9,9,0,0,1-9-9v-36a9,9,0,1,1,18,0v36A9,9,0,0,1,115.64,66.11Z" transform="translate(-70.7 -12.17)"/><path class="cls-7" d="M115.64,48.13a9,9,0,0,1-9-9v18a9,9,0,1,0,18,0v-18A9,9,0,0,1,115.64,48.13Z" transform="translate(-70.7 -12.17)"/><path class="cls-7" d="M151.6,48.13a9,9,0,0,1-9-9v18a9,9,0,0,0,18,0v-18A9,9,0,0,1,151.6,48.13Z" transform="translate(-70.7 -12.17)"/><path class="cls-7" d="M187.56,48.13a9,9,0,0,1-9-9v18a9,9,0,1,0,18,0v-18A9,9,0,0,1,187.56,48.13Z" transform="translate(-70.7 -12.17)"/><path class="cls-7" d="M223.52,48.13a9,9,0,0,1-9-9v18a9,9,0,1,0,18,0v-18A9,9,0,0,1,223.52,48.13Z" transform="translate(-70.7 -12.17)"/><path class="cls-7" d="M259.48,48.13a9,9,0,0,1-9-9v18a9,9,0,1,0,18,0v-18A9,9,0,0,1,259.48,48.13Z" transform="translate(-70.7 -12.17)"/><path class="cls-7" d="M295.44,48.13a9,9,0,0,1-9-9v18a9,9,0,1,0,18,0v-18A9,9,0,0,1,295.44,48.13Z" transform="translate(-70.7 -12.17)"/><path class="cls-7" d="M331.4,48.13a9,9,0,0,1-9-9v18a9,9,0,0,0,18,0v-18A9,9,0,0,1,331.4,48.13Z" transform="translate(-70.7 -12.17)"/><path class="cls-7" d="M367.35,48.13a9,9,0,0,1-9-9v18a9,9,0,1,0,18,0v-18A9,9,0,0,1,367.35,48.13Z" transform="translate(-70.7 -12.17)"/><rect class="cls-2" y="80.91" width="341.61" height="17.98"/><circle class="cls-8" cx="289.31" cy="419.38" r="64.57"/><path class="cls-9" d="M392.29,483.21a64.51,64.51,0,0,1-39.11-115.86,64.57,64.57,0,1,0,45.95,115.49A64.44,64.44,0,0,1,392.29,483.21Z" transform="translate(-70.7 -12.17)"/><path class="cls-10" d="M387.93,407.94l-55.84,55.84Z" transform="translate(-70.7 -12.17)"/><path class="cls-10" d="M333.51,404.31l52,59.41Z" transform="translate(-70.7 -12.17)"/></svg>