<svg id="Layer_1" data-name="Layer 1" xmlns="http://www.w3.org/2000/svg" viewBox="0 0 621.32 748.44"><defs><style>.cls-1{fill:#f4f4f4;}.cls-2{fill:#e9e9e9;}.cls-3{fill:#16aabc;}.cls-4{fill:#bdbcbc;}.cls-5{fill:#67d839;}.cls-6{fill:#eaa747;}</style></defs><path class="cls-1" d="M700.75,30.12H103.27A11.92,11.92,0,0,0,91.36,42V766.65a11.91,11.91,0,0,0,11.91,11.91H586.34a11.91,11.91,0,0,0,8.43-3.49L709.18,660.66a11.88,11.88,0,0,0,3.49-8.43V42A11.92,11.92,0,0,0,700.75,30.12Z" transform="translate(-91.36 -30.12)"/><path class="cls-2" d="M103.27,30.12A11.92,11.92,0,0,0,91.36,42V766.65a11.91,11.91,0,0,0,11.91,11.91H448.88L137.1,30.12Z" transform="translate(-91.36 -30.12)"/><path class="cls-2" d="M586.74,664.15V778.54a11.91,11.91,0,0,0,8-3.47L709.18,660.66a11.89,11.89,0,0,0,3.46-8.43h-114A11.92,11.92,0,0,0,586.74,664.15Z" transform="translate(-91.36 -30.12)"/><path class="cls-3" d="M611.77,70.35H192.26c-6.58,0-11.92,7-11.92,15.61v50c0,8.62,5.34,15.61,11.92,15.61H611.77c6.58,0,11.91-7,11.91-15.61V86C623.68,77.34,618.35,70.35,611.77,70.35Z" transform="translate(-91.36 -30.12)"/><path class="cls-4" d="M311.79,657H159.24a11.92,11.92,0,1,1,0-23.84H311.79a11.92,11.92,0,0,1,0,23.84Z" transform="translate(-91.36 -30.12)"/><path class="cls-4" d="M349.93,720.56H159.24a11.92,11.92,0,1,1,0-23.83H349.93a11.92,11.92,0,0,1,0,23.83Z" transform="translate(-91.36 -30.12)"/><path class="cls-4" d="M311.79,593.44H159.24a11.92,11.92,0,0,1,0-23.84H311.79a11.92,11.92,0,0,1,0,23.84Z" transform="translate(-91.36 -30.12)"/><path class="cls-5" d="M392.75,178.2c7.25-2.44,13.17,4.38,14.55,10.81.45,17.85-.13,35.73.26,53.59,14.66-17.78,32.85-33,54.37-41.68,7.08-3.51,16-3.8,22.8.5,4.7,3.25,8.16,7.94,11.69,12.38-20.22,4.48-40,12.7-55.46,26.75a120.32,120.32,0,0,0-19.9,22.83c30.29-12.83,65.33-13.65,96.31-2.78,6.52,2.21,13.65,5,17,11.5,4.48,6.91,2.68,15.41,2.59,23.13-7.22-3.36-13.75-8-21.19-10.92a110.53,110.53,0,0,0-90.47,2,134.42,134.42,0,0,1,53,26.26,20.54,20.54,0,0,1,8,15.34c.61,6.85-2.57,13.16-4.83,19.41a105.93,105.93,0,0,1-8-8A110,110,0,0,0,407.05,306c0,39.24.11,78.48-.05,117.72,16.39-13.3,32.46-27,48.71-40.45,3.36-2.67,6.38-5.87,10.19-7.94,2.08-.84,3.05,2.49,3.11,4,.56,11.17.95,24.32-8.32,32.33-20,17.13-40.34,33.77-60.44,50.74a5.26,5.26,0,0,1-7.64-.14c-20.13-16.86-40.38-33.61-60.42-50.6-10.05-9-8.72-23.66-8.16-35.88,2.27.13,4.76-.09,6.44,1.75,18.26,15.16,36.32,30.54,54.62,45.65q0-58.65,0-117.27a111.15,111.15,0,0,0-56.86,24.9c-6.21,4.89-11.11,11.16-17,16.36-2.49-6.69-5.71-13.56-4.44-20.89.67-6.66,5.47-11.91,10.61-15.72A132.83,132.83,0,0,1,367.45,286a110.4,110.4,0,0,0-85.19-4c-9.23,3.17-17.66,8.17-26.08,13.05-.53-5.65-1.2-11.41-.11-17a21.87,21.87,0,0,1,12.85-14.8,135.11,135.11,0,0,1,102.89.24c-12.35-18.61-30.09-33.79-50.88-42.15-7.9-3.23-16.21-5.17-24.43-7.39,3.36-4.63,6.94-9.24,11.67-12.53a22.77,22.77,0,0,1,19.12-1.94c22.64,8.5,42.44,23.75,57.32,42.74.28-16.74-.08-33.51.15-50.26C384.37,186.19,388.23,181.29,392.75,178.2Z" transform="translate(-91.36 -30.12)"/><path class="cls-6" d="M246.23,368.71a6.41,6.41,0,0,1,3.81,1.77q59,49.57,118.17,99c3.32,2.91,7.07,5.38,9.91,8.78.59,2-.53,3.75-2.12,4.91Q341.52,512,307.13,541c-1.39,1-4.5,3.93-5.71,1.41-1-7.37-2.11-15-.86-22.41a29.79,29.79,0,0,1,11.55-17.67c9.72-7.58,19.32-15.35,29-23-26.77-22.22-53.71-44.24-80.51-66.42a40,40,0,0,1-11.58-15C244.88,388.74,245.81,378.45,246.23,368.71Z" transform="translate(-91.36 -30.12)"/><path class="cls-6" d="M531.88,379.85c4.9-4.08,9.61-8.48,15-11.89,1.46,14.72.57,31.6-11.29,42.16C508,433.41,479.9,456.24,452,479.27c10.16,8.13,20.39,16.16,30.52,24.33a28.51,28.51,0,0,1,9.33,13.52c2.78,8.58.47,17.6-.09,26.33-5.08-1.26-8.61-5.28-12.52-8.45q-31-26-62.13-51.93a4.61,4.61,0,0,1-2.05-5.16c3.11-3.4,6.91-6.08,10.41-9.05Q478.69,424.37,531.88,379.85Z" transform="translate(-91.36 -30.12)"/></svg>