<?xml version="1.0" encoding="utf-8"?>
<!-- Generator: Adobe Illustrator 24.1.1, SVG Export Plug-In . SVG Version: 6.00 Build 0)  -->
<svg version="1.1" id="Layer_1" xmlns="http://www.w3.org/2000/svg" xmlns:xlink="http://www.w3.org/1999/xlink" x="0px" y="0px"
	 viewBox="0 0 745.2 745.2" style="enable-background:new 0 0 745.2 745.2;" xml:space="preserve">
<style type="text/css">
	.st0{fill:#16AABC;}
	.st1{fill:#FFFFFF;}
	.st2{fill:#E4EAEF;}
	.st3{fill:#F2F2F2;}
	.st4{fill:#ACB3BA;}
	.st5{fill:#F8B64C;}
	.st6{fill:#FFD15C;}
	.st7{fill:#67D839;}
</style>
<path class="st0" d="M714.2,149.7H31.1c-17.1,0.1-31,15.4-31,34.4v492c0.1,19,13.9,34.3,31,34.4h683.1c17.1-0.1,31-15.4,31-34.4
	v-492C745.2,165.1,731.3,149.7,714.2,149.7z"/>
<rect x="46.6" y="201.3" class="st1" width="652.1" height="457.6"/>
<polygon class="st2" points="647.4,201.3 617.9,658.9 127.3,658.9 97.8,201.3 "/>
<rect x="127.3" y="79.1" class="st3" width="489" height="579.8"/>
<rect x="127.3" y="0" class="st4" width="489" height="79.1"/>
<ellipse class="st3" cx="295" cy="39.6" rx="20.2" ry="22.4"/>
<ellipse class="st3" cx="229.8" cy="39.6" rx="20.2" ry="22.4"/>
<ellipse class="st3" cx="163" cy="39.6" rx="20.2" ry="22.4"/>
<path class="st3" d="M582.2,17.2H419.1c-11.1,0.2-20,10.1-20.2,22.4c0.2,12.3,9.1,22.1,20.2,22.4h163c11.1-0.2,20-10.1,20.2-22.4
	C602.1,27.3,593.2,17.5,582.2,17.2z"/>
<ellipse class="st5" cx="265.5" cy="172" rx="66.8" ry="74"/>
<ellipse class="st6" cx="265.5" cy="172" rx="49.7" ry="55.1"/>
<path class="st5" d="M270.1,163.4c-7.8-3.4-9.3-5.2-9.3-6.9c0-3.4,1.5-5.2,6.2-5.2s7.8,1.7,9.3,3.4l3.1,1.7l4.7-13.8l-3.1-1.7
	c-3.1-1.7-6.2-3.4-9.3-3.4v-10.3h-14v10.3c-7.8,3.4-14,10.3-14,18.9c0,12,9.3,17.2,17.1,20.6c7.8,3.4,7.8,5.2,7.8,8.6
	s-3.1,5.2-7.8,5.2c-3.1,0-7.8-1.7-10.9-3.4l-4.7-3.4l-4.6,15.5l3.1,1.7c4,2,8.2,3.7,12.4,5.1v10.3h14v-12c9.3-3.5,14-10.3,14-20.6
	C287.2,173.8,277.9,166.9,270.1,163.4z"/>
<ellipse class="st5" cx="568.2" cy="234" rx="45" ry="49.9"/>
<ellipse class="st6" cx="568.2" cy="234" rx="34.2" ry="37.9"/>
<path class="st5" d="M571.3,228.8c-6.2-3.4-6.2-3.4-6.2-5.2c0-1.7,1.5-3.4,4.7-3.4c2.2,0.1,4.3,0.7,6.2,1.7l3.1,1.7l3.1-10.3
	l-1.5-1.7c-1.5-1.8-4.7-1.8-6.2-1.8V203h-9.3v6.9c-6.2,1.7-9.3,6.9-9.3,13.8c0,8.6,6.2,12,12.4,13.8c4.7,1.7,4.7,3.4,4.7,5.2
	c0,3.4-3.1,3.4-4.7,3.4c-3.1,0-4.7-1.7-7.8-1.7l-3.1-1.7l-3.1,10.3l1.5,1.7c2.1,2.2,4.9,3.4,7.8,3.4v6.9h9.3v-8.5
	c6.2-1.7,9.3-6.9,9.3-13.8C582.2,234,576,230.5,571.3,228.8z"/>
<ellipse class="st5" cx="613.3" cy="449" rx="45" ry="49.9"/>
<ellipse class="st6" cx="613.3" cy="449" rx="34.2" ry="37.9"/>
<path class="st5" d="M616.4,442.2c-6.2-3.4-6.2-3.4-6.2-5.1c0-1.7,1.6-3.4,4.7-3.4c2.2,0.1,4.3,0.7,6.2,1.7l3.1,1.7l3.1-10.3
	l-1.5-1.7c-1.5-1.7-4.7-1.7-6.2-1.7v-6.9h-9.3v6.9c-6.2,1.7-9.3,6.9-9.3,13.8c0,8.6,6.2,12,12.4,13.8c4.7,1.7,4.7,3.4,4.7,5.2
	c0,3.4-3.1,3.4-4.7,3.4c-3.1,0-4.7-1.7-7.8-1.7l-3.1-1.8l-3.1,10.3l1.5,1.7c2.1,2.1,4.9,3.4,7.8,3.4v6.9h9.3v-8.6
	c6.2-1.7,9.3-6.9,9.3-13.8C627.2,449,621,445.6,616.4,442.2z"/>
<ellipse class="st5" cx="142.8" cy="597" rx="45" ry="49.9"/>
<ellipse class="st6" cx="142.8" cy="597" rx="34.2" ry="37.9"/>
<path class="st5" d="M145.9,591.8c-6.2-3.4-6.2-3.4-6.2-5.2c0-1.7,1.6-3.4,4.7-3.4c2.2,0.1,4.3,0.7,6.2,1.7l3.1,1.7l3.1-10.3
	l-1.6-1.7c-1.6-1.7-4.7-1.7-6.2-1.7V566h-9.3v6.9c-6.2,1.7-9.3,6.9-9.3,13.8c0,8.6,6.2,12,12.4,13.8c4.6,1.7,4.6,3.4,4.6,5.2
	c0,3.4-3.1,3.4-4.6,3.4c-3.1,0-4.7-1.7-7.8-1.7l-3.1-1.7l-3.1,10.3l1.6,1.7c2.1,2.2,4.9,3.4,7.8,3.4v6.9h9.3v-8.6
	c6.2-1.7,9.3-6.9,9.3-13.8C158.4,597,152.1,593.6,145.9,591.8z"/>
<ellipse class="st5" cx="127.3" cy="328.6" rx="45" ry="49.9"/>
<ellipse class="st6" cx="127.3" cy="328.6" rx="34.2" ry="37.9"/>
<path class="st5" d="M130.4,321.7c-6.2-3.4-6.2-3.4-6.2-5.2s1.6-3.4,4.7-3.4c2.2,0.1,4.3,0.7,6.2,1.7l3.1,3.4l3.1-10.3l-1.6-1.7
	c-1.6-1.7-4.7-1.7-6.2-1.7v-6.9h-9.3v6.9c-6.2,1.7-9.3,6.9-9.3,13.8c0,8.6,6.2,12,12.4,13.8c4.7,3.4,4.7,5.2,4.7,5.2
	c0,3.4-3.1,3.4-4.7,3.4c-3.1,0-4.7-1.7-7.8-1.7l-3.1-1.7l-3.1,10.3l1.6,1.7c1.6,1.7,4.7,1.7,9.3,3.4v6.9h7.8V351
	c6.2-1.7,9.3-6.9,9.3-13.8C142.8,328.6,136.6,325.2,130.4,321.7z"/>
<path class="st1" d="M377.3,230.5v80.9h-9.3v-80.9H377.3z"/>
<path class="st1" d="M377.3,547.1V628h-7.8v-80.9H377.3z"/>
<path class="st1" d="M503,292.5l-51.2,56.8c-1.5-1.7-3.1-5.2-6.2-6.9l52.8-56.8L503,292.5z"/>
<path class="st1" d="M301.1,516.1l-52.8,56.8l-6.2-6.9l52.8-56.8C296.2,512.3,298.4,514.8,301.1,516.1z"/>
<path class="st1" d="M552.7,425v8.6h-73V425H552.7z"/>
<path class="st1" d="M267,430.1v3.4h-73V425h73V430.1z"/>
<path class="st1" d="M503,567.8l-6.2,6.9L444,517.9c1.6-1.7,4.7-3.4,6.2-6.9L503,567.8z"/>
<path class="st1" d="M301.1,344.1c-1.5,1.7-4.7,3.4-6.2,6.9l-52.7-56.8l6.2-6.9L301.1,344.1z"/>
<path class="st1" d="M335.4,320c-3.1,1.7-4.7,1.7-7.8,3.4L310.5,277l7.8-3.4L335.4,320z"/>
<path class="st1" d="M434.7,583.2l-7.8,3.4l-17.1-46.5c3.1,0,4.7-1.7,7.8-3.4L434.7,583.2z"/>
<path class="st1" d="M276.4,380.2c-1.5,1.7-1.5,5.2-3.1,8.6l-41.9-18.9l3.1-8.6L276.4,380.2z"/>
<path class="st1" d="M513.9,490.3l-3.1,8.6L468.9,480c1.5-1.7,1.5-5.2,3.1-8.6L513.9,490.3z"/>
<path class="st1" d="M276.4,478.3l-41.9,18.9l-3.1-6.9l41.9-18.9C273.3,473.1,274.8,476.6,276.4,478.3z"/>
<path class="st1" d="M513.9,369.9L472,388.8c0-3.4-1.5-5.2-3.1-8.6l41.9-18.9L513.9,369.9z"/>
<path class="st1" d="M335.4,540.2l-17.1,46.4l-7.8-3.4l17.1-46.4C330.7,538.5,333.8,538.5,335.4,540.2z"/>
<path class="st1" d="M434.7,277l-17.1,46.5c-1.5-1.7-4.7-1.7-7.8-3.4l17.1-46.5L434.7,277z"/>
<polygon class="st7" points="322.5,377.2 348.7,481.4 371.7,454.7 395.7,481.4 416.5,458.3 392.5,431.7 416.5,406.2 "/>
<g id="Reload">
	<path class="st0" d="M365.6,268.7c-36.5,0-71.6,15.6-97.8,43.8v-33.3c0-5.7-4.2-10.4-9.4-10.4c-4.7,0-9.4,5.2-9.4,10.4v62.5
		c0,1,0,1,0.9,2.1l0,0c0,1,0.9,1,0.9,2.1l0,0l1.9,2.1l0.9,1c0.7,0.1,1.4,0.4,1.9,1H313c5.2,0,9.4-4.7,9.4-10.4
		c0-5.2-4.7-10.4-9.4-10.4h-33.8c47.7-53,125.2-53.1,173-0.2s47.9,138.7,0.2,191.7s-125.2,53.1-173,0.2
		c-23-25.4-35.9-59.9-35.9-95.9c0-5.2-4.7-10.4-9.4-10.4s-9.4,5.2-9.4,10.4c0,86.3,63.1,156.3,141,156.3s141-70,141-156.3
		S443.5,268.7,365.6,268.7L365.6,268.7z"/>
	<path class="st6" d="M323.3,339.5c0,5.7-4.2,10.4-9.4,10.4h-58.3c-0.7-0.1-1.4-0.4-1.9-1c-0.5,0-0.9-0.4-0.9-1c0,0,0,0,0,0l-0.9-1
		l0,0c0-1-0.9-1-0.9-2.1l0,0c0-1-0.9-1-0.9-2.1v-63.5c0-5.2,4.7-10.4,9.4-10.4c5.2,0,9.4,4.7,9.4,10.4v50h45.1
		C318.6,329.1,323.3,334.3,323.3,339.5z"/>
</g>
</svg>
