<svg id="Layer_1" data-name="Layer 1" xmlns="http://www.w3.org/2000/svg" viewBox="0 0 753.09 740.28"><defs><style>.cls-1{fill:#42210b;}.cls-2{fill:#2fb4c2;}.cls-3{fill:#ffad61;}.cls-4{fill:#67d839;}.cls-5{fill:#4d3d36;}</style></defs><path class="cls-1" d="M769.18,618.2v32.36c0,7.76-5,12.94-12.47,12.94H570.93c-1.25,0-3.74,0-5-1.29-3.74-2.59-7.48-6.47-7.48-11.65V618.2a102.21,102.21,0,0,1,31.17-73.76c-1.24-6.48-2.49-13-2.49-20.71,0-44,33.66-79,76.06-79h8.73a78.41,78.41,0,0,1,67.32,77.65c0,44-33.66,79-76,79a75.43,75.43,0,0,1-62.34-33.65,74.46,74.46,0,0,0-18.71,49.18v20.71H743V616.91c0-6.47-1.25-12.94-2.5-19.41a10.66,10.66,0,0,1,3.74-11.65c6.24-6.47,18.7-3.88,21.2,6.47A93,93,0,0,1,769.18,618.2Zm-53.62-94.47c0-29.77-22.44-53.06-51.12-53.06S613.32,494,613.32,523.73s22.45,53.06,51.12,53.06C691.87,576.79,715.56,553.5,715.56,523.73Z" transform="translate(-16.09 -26.76)"/><path class="cls-2" d="M664.44,470.67c28.68,0,51.12,23.29,51.12,53.06s-22.44,53.06-51.12,53.06-51.12-24.59-51.12-53.06C613.32,494,635.77,470.67,664.44,470.67Z" transform="translate(-16.09 -26.76)"/><path class="cls-1" d="M691.87,408.55v1.29c0,6.47-5,12.94-12.46,12.94h-2.5a13.79,13.79,0,0,1-10-10.35,295.8,295.8,0,0,0-66.08-144.95c-3.75-3.88-3.75-10.36-1.25-15.53l1.25-1.3h0a11.76,11.76,0,0,1,17.45,0C655.72,293.36,681.9,347.72,691.87,408.55Z" transform="translate(-16.09 -26.76)"/><path class="cls-1" d="M585.89,217c5,5.18,6.24,14.24,0,19.42a11.1,11.1,0,0,1-8.72,3.88c-2.5,0-6.24-1.29-8.73-2.59-10-7.76-20-16.82-31.17-23.29-3.74-2.59-6.24-6.48-6.24-10.36,0-10.35,10-16.82,18.7-10.35C563.45,198.89,575.92,207.94,585.89,217Z" transform="translate(-16.09 -26.76)"/><path class="cls-1" d="M562.2,695.86c5,5.17,5,15.53-1.24,19.41C513.58,747.62,457.47,767,396.37,767c-62.34,0-120.94-19.42-168.32-54.36-6.24-3.88-6.24-14.24-1.25-19.41h0c1.25,0,1.25-1.3,2.5-1.3A13.11,13.11,0,0,1,243,692a266.2,266.2,0,0,0,154.61,49.18c56.11,0,107.23-16.82,149.62-46.59,2.49-1.29,5-2.59,7.48-2.59s5,1.3,7.48,3.89Z" transform="translate(-16.09 -26.76)"/><path class="cls-1" d="M508.59,202.77v31.06c0,6.47-5,12.94-12.47,12.94H310.34a12.74,12.74,0,0,1-12.47-12.94V193.71c1.25-27.18,13.72-50.48,32.42-67.3-2.49-6.47-2.49-14.24-2.49-20.71,0-44,33.66-78.94,76.05-78.94s76.06,34.94,76.06,78.94-33.66,79-76.06,79c-26.18,0-48.62-12.94-62.34-33.65a74.51,74.51,0,0,0-18.7,49.18v20.71H483.65V200.18a75.65,75.65,0,0,0-3.74-23.3c-1.25-3.88,0-9.06,2.5-12.94l1.24-1.29c6.24-6.47,16.21-3.88,18.7,5.17,3.75,10.36,5,20.71,5,32.36v2.59ZM455,105.7c0-29.76-22.44-53.06-51.12-53.06s-51.12,23.3-51.12,53.06,22.45,53.07,51.12,53.07C431.28,158.77,455,135.47,455,105.7Z" transform="translate(-16.09 -26.76)"/><path class="cls-2" d="M403.85,52.64c28.68,0,51.12,23.3,51.12,53.06s-22.44,53.07-51.12,53.07-51.12-23.3-51.12-53.07S375.18,52.64,403.85,52.64Z" transform="translate(-16.09 -26.76)"/><path class="cls-1" d="M277.92,192.41a13.71,13.71,0,0,1-6.23,11.65C194.38,245.48,138.28,324.42,125.81,417.6c-1.25,6.48-6.24,11.65-12.47,11.65h0A12.41,12.41,0,0,1,100.87,415c13.72-100.95,74.81-187.66,158.35-233C268,176.88,277.92,182.06,277.92,192.41Z" transform="translate(-16.09 -26.76)"/><path class="cls-1" d="M226.8,618.2v32.36a12.73,12.73,0,0,1-12.47,12.94H28.55a12.73,12.73,0,0,1-12.46-12.94V618.2a102.17,102.17,0,0,1,31.17-73.76c-1.25-6.48-2.5-13-2.5-20.71,0-41.42,29.93-75.06,68.58-79h7.48c42.39,0,76.06,35,76.06,79s-33.67,78.94-76.06,78.94c-26.18,0-48.63-12.94-62.34-33.64a74.48,74.48,0,0,0-18.7,49.17v20.71H200.62V618.2a75.89,75.89,0,0,0-3.74-23.29c-1.25-3.88,0-9.06,2.49-11.65l2.5-2.59c6.23-6.47,16.2-3.88,18.7,5.18C225.56,596.2,226.8,606.56,226.8,618.2Zm-53.61-94.47c0-29.77-23.69-53.06-51.12-53.06C93.39,470.67,71,494,71,523.73s22.44,53.06,51.12,53.06C149.5,576.79,173.19,553.5,173.19,523.73Z" transform="translate(-16.09 -26.76)"/><path class="cls-2" d="M122.07,470.67c28.67,0,51.12,23.29,51.12,53.06s-23.69,53.06-51.12,53.06C93.39,576.79,71,552.2,71,523.73,71,494,93.39,470.67,122.07,470.67Z" transform="translate(-16.09 -26.76)"/><ellipse class="cls-3" cx="328.48" cy="625.59" rx="25.57" ry="26.54"/><ellipse class="cls-3" cx="465.12" cy="625.59" rx="25.57" ry="26.54"/><rect class="cls-4" x="307.49" y="412.25" width="179.48" height="185.79"/><polygon class="cls-3" points="359.46 412.25 435.01 412.25 435.01 490.45 398.07 465.85 359.46 490.45 359.46 412.25"/><path class="cls-5" d="M323.58,430.1A8.76,8.76,0,0,0,315,439V615.88h-9.91V299.3a9.06,9.06,0,0,0-3.45-7.15l-64.7-50.08a8.39,8.39,0,0,0-12,1.82,9.13,9.13,0,0,0,1.75,12.47l61.24,47.41v321a8.76,8.76,0,0,0,8.59,8.92h19.05a36.25,36.25,0,0,0-5.12,18.64c0,19.55,15.32,35.46,34.15,35.46s34.16-15.91,34.16-35.46a36.25,36.25,0,0,0-5.12-18.64h78.56a36.25,36.25,0,0,0-5.12,18.64c0,19.55,15.32,35.46,34.16,35.46s34.15-15.91,34.15-35.46a36.25,36.25,0,0,0-5.12-18.64H522a8.92,8.92,0,0,0,0-17.83H511.65V439a8.76,8.76,0,0,0-8.59-8.91Zm118.93,17.82v53L418.8,485.11a8.32,8.32,0,0,0-9.13-.1l-25.54,16.27V447.93h58.38Zm-110.34,0H367v69.29a9,9,0,0,0,4.39,7.78,8.31,8.31,0,0,0,8.69-.18l34-21.68,32.4,21.58a8.29,8.29,0,0,0,8.75.33,9,9,0,0,0,4.47-7.83V447.93h34.79v168H332.17ZM344.57,670c-9.36,0-17-7.9-17-17.62s7.62-17.62,17-17.62,17,7.9,17,17.62S353.94,670,344.57,670Zm136.64,0c-9.36,0-17-7.9-17-17.62s7.62-17.62,17-17.62,17,7.9,17,17.62S490.57,670,481.21,670Z" transform="translate(-16.09 -26.76)"/><path class="cls-5" d="M440.4,588.26h-4.23a8.92,8.92,0,0,0,0,17.83h4.23a8.92,8.92,0,0,0,0-17.83Z" transform="translate(-16.09 -26.76)"/><path class="cls-5" d="M406.54,588.26h-55a8.92,8.92,0,0,0,0,17.83h55a8.92,8.92,0,0,0,0-17.83Z" transform="translate(-16.09 -26.76)"/></svg>