<svg id="Layer_1" data-name="Layer 1" xmlns="http://www.w3.org/2000/svg" viewBox="0 0 644.62 671.3"><defs><style>.cls-1{fill:#16aabc;}.cls-2{fill:#fff;}.cls-3{fill:#e4eaef;}.cls-4{fill:#f2f2f2;}.cls-5{fill:#f8b64c;}.cls-6{fill:#ffd15c;}.cls-7{fill:none;}.cls-8{fill:#f8f1c3;}.cls-9{fill:#a4a4a3;}.cls-10{fill:#9b8e84;}.cls-11{fill:#ece5bb;}.cls-12{fill:#67d839;}.cls-13{fill:#86c9ab;}.cls-14{fill:#fdfefe;}.cls-15{fill:#040000;opacity:0.06;isolation:isolate;}</style></defs><path class="cls-1" d="M675.48,116.39H84.5c-14.79.11-26.82,16.38-26.82,36.58V676.06c.09,20.2,12,36.47,26.82,36.57h591c14.8-.1,26.82-16.37,26.82-36.57V153C702.3,132.77,690.28,116.39,675.48,116.39Z" transform="translate(-57.68 -41.33)"/><rect class="cls-2" x="40.23" y="129.92" width="564.16" height="486.52"/><polygon class="cls-3" points="560.01 129.92 534.49 616.44 110.05 616.44 84.53 129.92 560.01 129.92"/><rect class="cls-4" x="110.05" width="423.06" height="616.44"/><ellipse class="cls-5" cx="229.61" cy="98.77" rx="57.79" ry="78.68"/><ellipse class="cls-6" cx="229.61" cy="98.77" rx="43" ry="58.58"/><path class="cls-5" d="M291.27,131c-6.75-3.62-8-5.53-8-7.34,0-3.61,1.29-5.53,5.36-5.53s6.75,1.81,8.05,3.62l2.68,1.81,4.06-14.68L300.7,107c-2.68-1.81-5.36-3.62-8-3.62v-11H280.54v11a22.86,22.86,0,0,0-12.11,20.1c0,12.75,8.05,18.28,14.8,21.9S290,151,290,154.56s-2.68,5.53-6.74,5.53c-2.69,0-6.75-1.81-9.43-3.61l-4.07-3.62-4,16.48,2.68,1.81a75.5,75.5,0,0,0,10.73,5.42v11h12.11V174.76c8.05-3.72,12.11-10.95,12.11-21.9C306.07,142,298,134.68,291.27,131Z" transform="translate(-57.68 -41.33)"/><ellipse class="cls-5" cx="491.49" cy="164.69" rx="38.93" ry="53.05"/><ellipse class="cls-6" cx="491.49" cy="164.69" rx="29.59" ry="40.3"/><path class="cls-5" d="M551.85,200.49c-5.36-3.61-5.36-3.61-5.36-5.53s1.3-3.61,4.07-3.61a10.83,10.83,0,0,1,5.36,1.81l2.68,1.8,2.68-11-1.29-1.8c-1.3-1.92-4.07-1.92-5.37-1.92v-7.23h-8v7.34c-5.37,1.81-8.05,7.33-8.05,14.67,0,9.14,5.36,12.76,10.73,14.67,4.06,1.81,4.06,3.62,4.06,5.53,0,3.62-2.68,3.62-4.06,3.62-2.68,0-4.07-1.81-6.75-1.81l-2.68-1.81-2.68,10.95,1.29,1.81a8.61,8.61,0,0,0,6.75,3.61V239h8v-9c5.36-1.8,8-7.33,8-14.67C561.28,206,555.92,202.3,551.85,200.49Z" transform="translate(-57.68 -41.33)"/><ellipse class="cls-5" cx="530.51" cy="393.28" rx="38.93" ry="53.05"/><ellipse class="cls-6" cx="530.51" cy="393.28" rx="29.59" ry="40.3"/><path class="cls-5" d="M590.87,427.38c-5.36-3.62-5.36-3.62-5.36-5.42s1.38-3.62,4.06-3.62a11.07,11.07,0,0,1,5.37,1.81l2.68,1.81L600.3,411,599,409.2c-1.29-1.81-4.06-1.81-5.36-1.81v-7.34h-8v7.34c-5.36,1.81-8,7.34-8,14.67,0,9.15,5.36,12.76,10.73,14.67,4.06,1.81,4.06,3.62,4.06,5.53,0,3.62-2.68,3.62-4.06,3.62-2.69,0-4.07-1.81-6.75-1.81l-2.68-1.91-2.69,10.95,1.3,1.81a8.94,8.94,0,0,0,6.75,3.61v7.34h8v-9.15c5.36-1.8,8-7.33,8-14.67S594.85,431,590.87,427.38Z" transform="translate(-57.68 -41.33)"/><path class="cls-2" d="M384,202.3v86h-8v-86Z" transform="translate(-57.68 -41.33)"/><path class="cls-2" d="M384,538.91v86h-6.75v-86Z" transform="translate(-57.68 -41.33)"/><path class="cls-2" d="M492.76,268.22l-44.29,60.39c-1.3-1.81-2.68-5.53-5.37-7.34l45.68-60.39Z" transform="translate(-57.68 -41.33)"/><path class="cls-2" d="M318.09,506l-45.68,60.39L267.05,559l45.68-60.39A13.39,13.39,0,0,0,318.09,506Z" transform="translate(-57.68 -41.33)"/><path class="cls-2" d="M535.76,409.09v9.14H472.61v-9.14Z" transform="translate(-57.68 -41.33)"/><path class="cls-2" d="M288.59,414.51v3.62H225.43v-9h63.16Z" transform="translate(-57.68 -41.33)"/><path class="cls-2" d="M492.76,560.92l-5.36,7.33-45.68-60.39c1.38-1.81,4.07-3.61,5.36-7.33Z" transform="translate(-57.68 -41.33)"/><path class="cls-2" d="M318.09,323.08c-1.3,1.81-4.07,3.61-5.36,7.33L267.13,270l5.37-7.34Z" transform="translate(-57.68 -41.33)"/><path class="cls-2" d="M347.77,297.46c-2.69,1.8-4.07,1.8-6.75,3.61l-14.8-49.33,6.75-3.62Z" transform="translate(-57.68 -41.33)"/><path class="cls-2" d="M433.67,577.29l-6.74,3.61-14.8-49.43c2.68,0,4.07-1.81,6.75-3.62Z" transform="translate(-57.68 -41.33)"/><path class="cls-2" d="M296.72,361.46c-1.3,1.81-1.3,5.53-2.68,9.14l-36.25-20.09,2.68-9.14Z" transform="translate(-57.68 -41.33)"/><path class="cls-2" d="M502.19,478.52l-2.68,9.14-36.25-20.09c1.3-1.81,1.3-5.53,2.68-9.15Z" transform="translate(-57.68 -41.33)"/><path class="cls-2" d="M296.72,465.76l-36.25,20.09-2.68-7.33L294,458.42A15.91,15.91,0,0,0,296.72,465.76Z" transform="translate(-57.68 -41.33)"/><path class="cls-2" d="M502.19,350.51,465.94,370.6c0-3.61-1.29-5.53-2.68-9.14l36.25-20.09Z" transform="translate(-57.68 -41.33)"/><path class="cls-2" d="M347.77,531.57,333,580.9l-6.75-3.61L341,528C343.7,529.76,346.38,529.76,347.77,531.57Z" transform="translate(-57.68 -41.33)"/><path class="cls-2" d="M433.67,251.74l-14.79,49.44c-1.3-1.81-4.07-1.81-6.75-3.62l14.8-49.44Z" transform="translate(-57.68 -41.33)"/><path class="cls-7" d="M420.43,355c.27,3.93,1.21,6.88,2.65,8.39a9,9,0,0,0-.71-9.84,6.37,6.37,0,0,0-2-1.66C420.34,353,420.36,354,420.43,355Z" transform="translate(-57.68 -41.33)"/><path class="cls-7" d="M434.83,357.3a50.89,50.89,0,0,0,6-12.55c4.66-14.06,3.29-26.17-.86-28.25a3.35,3.35,0,0,0-1.51-.35c-4.17,0-10.89,7-15.16,19.82-.31.94-.59,1.87-.86,2.8,6.32,1.06,10.53,1.8,10.53,1.8S433.76,347.47,434.83,357.3Z" transform="translate(-57.68 -41.33)"/><path class="cls-7" d="M415.62,351.87a6.28,6.28,0,0,0-2.1,1.7,9,9,0,0,0,0,10.88A5.57,5.57,0,0,0,419,366.6c-1.81-2.58-2.94-6.37-3.26-11.1C415.62,354.33,415.6,353.11,415.62,351.87Z" transform="translate(-57.68 -41.33)"/><path class="cls-8" d="M427.05,370.27l-2.06,2.5a7.08,7.08,0,0,1-11.43,0l-6.83-8.39a11.63,11.63,0,0,1,0-14.05l10.16-12.48c.24.06.5.09.76.13a59.34,59.34,0,0,0-2,13.89,6,6,0,0,0-2.09,1.69,9,9,0,0,0,0,10.89,5.53,5.53,0,0,0,5.42,2.14,9.56,9.56,0,0,0,3.39,3,7.47,7.47,0,0,0,3.3.77A6.73,6.73,0,0,0,427.05,370.27Z" transform="translate(-57.68 -41.33)"/><path class="cls-8" d="M402.64,369.42l6.83,8.4a7.09,7.09,0,0,0,11.43,0l6.14-7.54h0l-2,2.5a7.08,7.08,0,0,1-11.43,0l-6.83-8.4a11.61,11.61,0,0,1,0-14l-4.1,5A11.66,11.66,0,0,0,402.64,369.42Z" transform="translate(-57.68 -41.33)"/><path class="cls-9" d="M445.2,346.94c-2.44,7.39-5.86,13.57-9.58,17.73-.16-1.5-.31-2.94-.47-4.35-.1-1-.21-2.05-.31-3a50.9,50.9,0,0,0,6-12.55c4.66-14.08,3.31-26.18-.86-28.26a3.26,3.26,0,0,0-1.51-.35c-4.17,0-10.89,6.94-15.16,19.81-.31,1-.6,1.89-.86,2.82-1.48-.26-3.07-.52-4.76-.8.36-1.41.78-2.82,1.22-4.2,4.59-13.83,12.63-23.46,19.56-23.46a8.08,8.08,0,0,1,1.59.16,6.66,6.66,0,0,1,1.72.61c2.73,1.37,4.74,4.38,5.81,8.64a31,31,0,0,1,.83,5.47A58.48,58.48,0,0,1,445.2,346.94Z" transform="translate(-57.68 -41.33)"/><path class="cls-10" d="M423.08,363.41c-1.44-1.51-2.38-4.46-2.65-8.39-.07-1-.09-2-.07-3.11a5.21,5.21,0,0,0-4.74,0c0,1.24,0,2.46.08,3.63.32,4.73,1.45,8.52,3.26,11.1a5.92,5.92,0,0,0,3.41-2.15A7.34,7.34,0,0,0,423.08,363.41Z" transform="translate(-57.68 -41.33)"/><path class="cls-11" d="M435.15,360.31c-.11-1-.22-2-.32-3-1.07-9.83-1.88-16.73-1.88-16.73s-4.21-.74-10.53-1.79a53.6,53.6,0,0,0-2.06,13.13,6.37,6.37,0,0,1,2,1.66,9,9,0,0,1,.71,9.84,7.34,7.34,0,0,1-.71,1A5.92,5.92,0,0,1,419,366.6a9.15,9.15,0,0,0,3.39,3,7.29,7.29,0,0,0,3.31.78,8.13,8.13,0,0,0,1.38-.12l8.11-10Z" transform="translate(-57.68 -41.33)"/><path class="cls-10" d="M420.36,351.91a53.75,53.75,0,0,1,2.06-13.14l-4.79-.79a59.88,59.88,0,0,0-2,13.89A5.18,5.18,0,0,1,420.36,351.91Z" transform="translate(-57.68 -41.33)"/><path class="cls-12" d="M439.71,423.66l-79.34,97.5c-3.8,4.67-9.3,6.08-14.11,4.16a13.69,13.69,0,0,1-5.58-4.16L286,453.94a18.23,18.23,0,0,1-3.36-6.82A20,20,0,0,1,286,429.77l79.33-97.49c1.75-2.15,32.12,2.43,51.57,5.57l-10.16,12.48-4.09,5.06a11.58,11.58,0,0,0,0,14l6.83,8.42a7.08,7.08,0,0,0,11.43,0l6.15-7.56,8.1-9.95c.16,1.41.31,2.85.47,4.35C438.14,388.48,441.35,421.64,439.71,423.66Z" transform="translate(-57.68 -41.33)"/><polygon class="cls-13" points="369.36 328.95 377.47 318.98 377.47 318.98 369.36 328.95"/><path class="cls-14" d="M359,439.18l-4.95,6.09" transform="translate(-57.68 -41.33)"/><path class="cls-15" d="M427.05,370.27l-.05.1,8.1-10Zm-.08.1v0h0v0Zm0,0-2,2.46v0l2-2.5Zm0,0-2,2.46v0l2-2.5Zm21.43-45.2a31,31,0,0,0-.83-5.47c-.19-.7-.42-1.28-.63-1.92l-3.75,4.61c1.07,5.28.55,13.44-2.42,22.44-.63,1.89-1.3,3.65-2,5.25a1.76,1.76,0,0,0-.07.22l-.68,1.44-.81,1.6c-.39.74-.78,1.41-1.17,2.08-.18.32-.39.64-.6,1s-.36.61-.57.9c.05.35.08.7.1,1.09-.05-.36-.1-.71-.13-1.06,0,0,0,0,0,.06-1.09-9.82-1.87-16.74-1.87-16.74s-1.49-.25-4-.7l-13.21,16.23c.06.54.11,1.09.19,1.63s.15,1,.23,1.54.21,1,.31,1.44.24.93.37,1.37.28.87.44,1.28.31.8.5,1.16a11.59,11.59,0,0,0,1,1.88.62.62,0,0,0,.1.2,4.84,4.84,0,0,1-2.76-.23,6.13,6.13,0,0,1-2.63-1.92,7.84,7.84,0,0,1-1.64-3.62l-4,5h0l-4.09,5-21.59,26.54-3.88,4.76-12.14,15-3.88,4.74-6.9,8.48-3.62,4.45-1.22,1.5L346.7,441l-14.61,17.95L327.16,465l-16.09,19.78,29.61,36.4a13.69,13.69,0,0,0,5.58,4.16c4.81,1.92,10.31.51,14.11-4.16l79.29-97.4,0-.1a.85.85,0,0,0,.15-.38,3.94,3.94,0,0,0,.08-.42c0-.19.05-.42.08-.64.7-7-2.14-36.07-4.4-57.52v0c.23-.26.47-.51.7-.8s.44-.58.68-.86a52.62,52.62,0,0,0,8.15-16,.14.14,0,0,0,.05-.09A58.48,58.48,0,0,0,448.38,325.2Zm-26.07,28.49a9,9,0,0,1,.7,9.83c-1.43-1.51-2.37-4.45-2.63-8.39-.08-1-.08-2.05-.08-3.1A5.8,5.8,0,0,1,422.31,353.69Zm2.34,19.56-3.75,4.58,3.44-4.26.05-.07.55-.64.05-.09,2-2.37-2,2.46v0Zm2.3-2.85-2,2.46v0l2-2.5Zm0,0v0h0v0Z" transform="translate(-57.68 -41.33)"/></svg>