<svg id="Layer_1" data-name="Layer 1" xmlns="http://www.w3.org/2000/svg" viewBox="0 0 634.01 775.93"><defs><style>.cls-1{fill:#d7e1f2;}.cls-2{fill:#67d839;}.cls-3{fill:#16aabc;}.cls-4{fill:#fff;}</style></defs><polygon class="cls-1" points="432.55 71.69 432.55 132.81 201.46 132.81 201.46 71.69 17.62 71.69 17.62 760.78 616.38 760.78 616.38 71.69 432.55 71.69"/><rect class="cls-2" x="201.46" y="15.15" width="231.09" height="117.65"/><path class="cls-3" d="M680,62.53H513.79V21.15C513.79,12.79,505.9,6,496.17,6H265.08c-9.73,0-17.62,6.79-17.62,15.15V62.53H81.24c-9.73,0-17.62,6.79-17.62,15.16V766.78c0,8.37,7.89,15.15,17.62,15.15H680c9.73,0,17.62-6.78,17.62-15.15V77.69C697.63,69.32,689.74,62.53,680,62.53ZM478.55,123.65H282.7V36.31H478.55Zm183.83,628H98.87V92.84H247.46v46c0,8.37,7.89,15.16,17.62,15.16H496.17c9.73,0,17.62-6.79,17.62-15.16v-46H662.38Z" transform="translate(-63.62 -6)"/><path class="cls-4" d="M445.48,231.88H173.63c-9.73,0-17.62-6.78-17.62-15.15s7.89-15.16,17.62-15.16H445.48c9.73,0,17.62,6.79,17.62,15.16S455.21,231.88,445.48,231.88Z" transform="translate(-63.62 -6)"/><path class="cls-4" d="M593,309.81H173.63c-9.73,0-17.62-6.79-17.62-15.16s7.89-15.15,17.62-15.15H593c9.73,0,17.62,6.78,17.62,15.15S602.68,309.81,593,309.81Z" transform="translate(-63.62 -6)"/><path class="cls-4" d="M593,387.73H173.63c-9.73,0-17.62-6.79-17.62-15.15s7.89-15.16,17.62-15.16H593c9.73,0,17.62,6.79,17.62,15.16S602.68,387.73,593,387.73Z" transform="translate(-63.62 -6)"/><path class="cls-4" d="M593,461.07H173.63c-9.73,0-17.62-6.79-17.62-15.16s7.89-15.15,17.62-15.15H593c9.73,0,17.62,6.79,17.62,15.15S602.68,461.07,593,461.07Z" transform="translate(-63.62 -6)"/><path class="cls-4" d="M593,231.88H534.31c-9.73,0-17.62-6.78-17.62-15.15s7.89-15.16,17.62-15.16H593c9.73,0,17.62,6.79,17.62,15.16S602.68,231.88,593,231.88Z" transform="translate(-63.62 -6)"/><path class="cls-3" d="M550.87,547.56c-17.22-14.66-41-23.72-67.28-23.72-24.79,0-47.36,8.08-64.29,21.3l67.21,57.2Z" transform="translate(-63.62 -6)"/><path class="cls-2" d="M330,545.14c-19,14.8-30.85,36.05-30.85,59.68,0,22.36,10.65,42.6,27.87,57.26l70.18-59.74Z" transform="translate(-63.62 -6)"/><path class="cls-3" d="M327,677.23a19.14,19.14,0,0,1-12.4-4.38c-21.34-18.16-33.09-42.32-33.09-68,0-26.89,13.35-52.73,36.62-70.9a19.76,19.76,0,0,1,24.25.45l67.2,57.2a13.7,13.7,0,0,1,0,21.54L339.4,672.85A19.13,19.13,0,0,1,327,677.23Zm3.76-110.11c-9,11-14,24.15-14,37.7a58.35,58.35,0,0,0,11.64,34.74l43.73-37.22Z" transform="translate(-63.62 -6)"/><path class="cls-3" d="M416.32,662.08c17.22,14.65,41,23.72,67.28,23.72,52.54,0,95.13-36.26,95.13-81,0-22.36-10.64-42.61-27.86-57.26Z" transform="translate(-63.62 -6)"/><path class="cls-2" d="M563.27,536.79h0c-21.29-18.12-49.58-28.1-79.66-28.1-28.26,0-55.31,9-76.14,25.24a14.32,14.32,0,0,0-5.78,10.89,14.16,14.16,0,0,0,5.23,11.1l54.55,46.43-57.54,49a13.72,13.72,0,0,0,0,21.54C425.21,691,453.51,701,483.6,701c62.17,0,112.76-43.12,112.76-96.13C596.35,579.11,584.6,555,563.27,536.79ZM446.54,547a88.34,88.34,0,0,1,37-8,87.41,87.41,0,0,1,40.76,9.81L486.51,581Zm37,123.64a87.43,87.43,0,0,1-40.76-9.8l69.77-59.39,36.86-31.38a58.32,58.32,0,0,1,11.65,34.75C561.11,641.11,526.34,670.64,483.59,670.64Z" transform="translate(-63.62 -6)"/><path class="cls-1" d="M389.44,90.87H329.52c-9.73,0-17.62-6.79-17.62-15.16s7.89-15.15,17.62-15.15h59.92c9.73,0,17.62,6.78,17.62,15.15S399.17,90.87,389.44,90.87Z" transform="translate(-63.62 -6)"/></svg>