<svg id="Layer_1" data-name="Layer 1" xmlns="http://www.w3.org/2000/svg" viewBox="0 0 448.62 497.17"><defs><style>.cls-1{fill:#148d96;}.cls-2{fill:#e1e9ea;}.cls-3{fill:#edeae8;}.cls-4{fill:#936b49;}.cls-5{fill:#6b4f37;}.cls-6{fill:#826041;}.cls-7{fill:#423223;}.cls-8{fill:#c7d7dc;}.cls-9{opacity:0.2;}.cls-10{fill:#fff;}.cls-11{fill:#16aabc;}.cls-12{fill:#efe9de;}.cls-13{fill:#dad5ca;}.cls-14{fill:#67d839;}</style></defs><rect class="cls-1" x="88.88" width="270.83" height="22.87"/><rect class="cls-2" x="19.62" y="155.36" width="409.37" height="304.23"/><rect class="cls-3" x="19.62" y="385.4" width="409.37" height="67.18"/><path class="cls-4" d="M475.22,500.23a7,7,0,0,1-7.13,6.77H33.74a7,7,0,0,1-7.14-6.77V469.17a7,7,0,0,1,7.14-6.77H468.08a7,7,0,0,1,7.14,6.77v31.06Z" transform="translate(-26.6 -9.83)"/><rect class="cls-5" x="289.6" y="246.69" width="115.56" height="205.89"/><rect class="cls-6" x="305.04" y="265.68" width="84.67" height="77.21"/><rect class="cls-6" x="305.04" y="361.71" width="84.67" height="77.21"/><ellipse class="cls-7" cx="364.92" cy="308.84" rx="9.72" ry="9.23"/><rect class="cls-5" x="95.41" y="253.2" width="150.66" height="109.02"/><rect class="cls-8" x="102.12" y="257.71" width="137.24" height="100"/><g class="cls-9"><polygon class="cls-10" points="154.94 357.71 130.76 357.71 176.34 257.71 200.52 257.71 154.94 357.71"/><polygon class="cls-10" points="186.56 357.71 169.26 357.71 214.84 257.71 232.14 257.71 186.56 357.71"/><polygon class="cls-10" points="118 357.71 109.35 357.71 154.94 257.71 163.59 257.71 118 357.71"/></g><path class="cls-11" d="M169.53,27.47h-54l-87,137.72c0,24.06,19.87,43.56,44.38,43.56s44.38-19.5,44.38-43.56h0Z" transform="translate(-26.6 -9.83)"/><path class="cls-11" d="M386.31,27.47h-54l52.29,137.72h0c0,24.06,19.87,43.56,44.38,43.56s44.38-19.5,44.38-43.56Z" transform="translate(-26.6 -9.83)"/><path class="cls-11" d="M278.25,27.47H223.57L206,165.19h.52c0,24.06,19.87,43.56,44.38,43.56s44.38-19.5,44.38-43.56h.52Z" transform="translate(-26.6 -9.83)"/><path class="cls-12" d="M223.57,27.47h-54L117.24,165.19h.28c0,24.06,19.87,43.56,44.38,43.56s44.38-19.5,44.38-43.56H206Z" transform="translate(-26.6 -9.83)"/><path class="cls-12" d="M332.29,27.47h-54l17.57,137.72h-.28c0,24.06,19.87,43.56,44.38,43.56s44.38-19.5,44.38-43.56h.28Z" transform="translate(-26.6 -9.83)"/><path class="cls-1" d="M72.9,208.75c24.51,0,44.38-19.5,44.38-43.56H28.52C28.52,189.25,48.39,208.75,72.9,208.75Z" transform="translate(-26.6 -9.83)"/><path class="cls-13" d="M161.91,208.75c24.51,0,44.38-19.5,44.38-43.56H117.53C117.53,189.25,137.4,208.75,161.91,208.75Z" transform="translate(-26.6 -9.83)"/><path class="cls-1" d="M250.91,208.75c24.51,0,44.38-19.5,44.38-43.56H206.53C206.53,189.25,226.4,208.75,250.91,208.75Z" transform="translate(-26.6 -9.83)"/><path class="cls-13" d="M339.91,208.75c24.52,0,44.39-19.5,44.39-43.56H295.54C295.54,189.25,315.41,208.75,339.91,208.75Z" transform="translate(-26.6 -9.83)"/><path class="cls-1" d="M428.92,208.75c24.51,0,44.38-19.5,44.38-43.56H384.54C384.54,189.25,404.41,208.75,428.92,208.75Z" transform="translate(-26.6 -9.83)"/><path class="cls-14" d="M70.26,396.14v.92H55l30.26,38.5,30.25-38.5h-15V259.65h15L85.24,220.23,55,259.65H70.26Z" transform="translate(-26.6 -9.83)"/></svg>