<svg id="Capa_1" data-name="Capa 1" xmlns="http://www.w3.org/2000/svg" viewBox="0 0 753.1 774.18"><defs><style>.cls-1{fill:#67d839;}.cls-2{fill:#16aabc;}.cls-3{fill:#d9dddd;}</style></defs><path class="cls-1" d="M341.06,590.48H302.3c-15.32,0-27.78,11.69-27.78,26.06,0,4.09-4.24,7.54-9.26,7.54H249.43c-5,0-9.26-3.45-9.26-7.54,0-14.37-12.46-26.06-27.78-26.06H173.63a27.83,27.83,0,0,0-27.79,27.79V762.33a27.83,27.83,0,0,0,27.79,27.79H341.06a27.83,27.83,0,0,0,27.79-27.79V618.27A27.83,27.83,0,0,0,341.06,590.48ZM272.87,705.69v45.63H241.81V705.69H224.86l32.49-36.63,32.48,36.63Z" transform="translate(-21.01 -17.82)"/><path class="cls-2" d="M621.49,590.48H582.73c-15.32,0-27.79,11.69-27.79,26.06,0,4.09-4.24,7.54-9.26,7.54H529.85c-5,0-9.26-3.45-9.26-7.54,0-14.37-12.46-26.06-27.78-26.06H454.05a27.82,27.82,0,0,0-27.78,27.79V762.33a27.82,27.82,0,0,0,27.78,27.79H621.49a27.82,27.82,0,0,0,27.78-27.79V618.27A27.82,27.82,0,0,0,621.49,590.48ZM553.3,705.69v45.63H522.24V705.69h-17l32.49-36.63,32.48,36.63Z" transform="translate(-21.01 -17.82)"/><path class="cls-2" d="M481.27,548.88a27.82,27.82,0,0,0,27.79-27.78V377a27.82,27.82,0,0,0-27.79-27.78H442.52c-15.32,0-27.79,11.69-27.79,26.06,0,4.08-4.24,7.53-9.26,7.53H389.64c-5,0-9.26-3.45-9.26-7.53,0-14.37-12.46-26.06-27.78-26.06H313.84A27.81,27.81,0,0,0,286.06,377V521.1a27.81,27.81,0,0,0,27.78,27.78ZM397.56,427.82,430,464.45h-17v45.64H382V464.45h-17Z" transform="translate(-21.01 -17.82)"/><path class="cls-3" d="M739.56,206.31,432.37,26.66c-20.17-11.79-49.45-11.79-69.62,0L55.55,206.31C35.53,218,21,243.34,21,266.53V764.22a27.78,27.78,0,0,0,55.56,0v-458h642v458a27.79,27.79,0,0,0,55.57,0V266.53C774.11,243.34,759.58,218,739.56,206.31Z" transform="translate(-21.01 -17.82)"/></svg>