<svg id="Capa_1" data-name="Capa 1" xmlns="http://www.w3.org/2000/svg" viewBox="0 0 696.88 737.38"><defs><style>.cls-1{fill:#f9cf8c;}.cls-2{fill:#ffc599;}.cls-3{fill:#fff;}.cls-4{fill:#67d839;}.cls-5{fill:#16aabc;}.cls-6{fill:#d60949;}.cls-7{fill:#f44d71;}</style></defs><rect class="cls-1" x="211.03" y="550.28" width="112.87" height="138.02"/><rect class="cls-2" x="372.98" y="550.28" width="112.87" height="138.02"/><rect class="cls-3" x="292" y="388.33" width="112.89" height="112.87"/><path class="cls-3" d="M627.31,340.84v381H595.4V559.22a24.56,24.56,0,0,0-24.55-24.53H514.42V397.27a24.54,24.54,0,0,0-24.53-24.53H327.94a24.56,24.56,0,0,0-24.56,24.53V534.69H247a24.53,24.53,0,0,0-24.53,24.53V721.79h-31.9V340.84Z" transform="translate(-60.47 -33.49)"/><path class="cls-4" d="M708.27,235.15V721.79h-31.9V316.31a24.55,24.55,0,0,0-24.53-24.56H166a24.57,24.57,0,0,0-24.56,24.56V721.79h-31.9V235.15L408.9,85.46Z" transform="translate(-60.47 -33.49)"/><path class="cls-5" d="M757.35,220V746.34a24.55,24.55,0,0,1-24.53,24.53H85a24.53,24.53,0,0,1-24.53-24.53V220A24.5,24.5,0,0,1,74,198.05l323.9-162a24.55,24.55,0,0,1,21.94,0l323.9,162A24.52,24.52,0,0,1,757.35,220ZM708.27,721.79V235.15L408.9,85.46,109.53,235.15V721.79h31.9V316.31A24.57,24.57,0,0,1,166,291.75H651.84a24.55,24.55,0,0,1,24.53,24.56V721.79Zm-81,0V340.84H190.52v381h31.9V559.22A24.53,24.53,0,0,1,247,534.69h56.43V397.27a24.56,24.56,0,0,1,24.56-24.53h162a24.54,24.54,0,0,1,24.53,24.53V534.69h56.43a24.56,24.56,0,0,1,24.55,24.53V721.79Zm-81,0v-138H433.45v138Zm-81-187.1V421.82H352.47V534.69Zm-81,187.1v-138H271.5v138Z" transform="translate(-60.47 -33.49)"/><rect class="cls-3" x="163.98" y="170.45" width="365.59" height="50.02"/><path class="cls-6" d="M604.18,132.64a123.38,123.38,0,0,0-95.4,201.73A123.4,123.4,0,0,0,682.46,160.69,123,123,0,0,0,604.18,132.64Zm0,222.25a98.52,98.52,0,0,1-77.78-38.13A98.65,98.65,0,1,1,664.81,178.32a98.65,98.65,0,0,1-60.63,176.57Z" transform="translate(-60.47 -33.49)"/><path class="cls-7" d="M587,362.43A123.47,123.47,0,1,1,710.51,239,123.6,123.6,0,0,1,587,362.43Zm0-222.24A98.78,98.78,0,1,0,685.81,239,98.87,98.87,0,0,0,587,140.19Z" transform="translate(-60.47 -33.49)"/><path class="cls-7" d="M740.35,404.61a12.26,12.26,0,0,1-8.72-3.62l-72-72a12.34,12.34,0,0,1,17.45-17.46l72,72a12.34,12.34,0,0,1-8.73,21.07Z" transform="translate(-60.47 -33.49)"/></svg>