<?xml version="1.0" encoding="utf-8"?>
<!-- Generator: Adobe Illustrator 24.1.1, SVG Export Plug-In . SVG Version: 6.00 Build 0)  -->
<svg version="1.1" id="Layer_1" xmlns="http://www.w3.org/2000/svg" xmlns:xlink="http://www.w3.org/1999/xlink" x="0px" y="0px"
	 viewBox="0 0 713.6 781.4" style="enable-background:new 0 0 713.6 781.4;" xml:space="preserve">
<style type="text/css">
	.st0{fill:#FFFFFF;}
	.st1{fill:#B8CA43;}
	.st2{fill:#231C1C;}
	.st3{fill:#E1E0A6;}
	.st4{fill:#16AABC;}
	.st5{fill:#FFC10D;}
</style>
<path class="st0" d="M191.9,292h326l-46.7-145.3l-121.2,38.8c-12.9,4.1-24.9-4.2-28.3-14.5l-39-121.6L151.3,91.5
	c-11.8,3.8-18.3,16.4-14.6,28.3c0,0,0,0,0,0L191.9,292z"/>
<path class="st1" d="M358.3,394.1c-4.1,4.8-11.3,5.4-16.1,1.3l-252-214.6c-4.8-4.1-5.4-11.3-1.3-16.1L199.9,34.4
	c4.1-4.8,11.3-5.4,16.1-1.3l252,214.6c4.8,4.1,5.4,11.3,1.3,16.1L358.3,394.1z"/>
<path class="st2" d="M338.5,399.7l-252-214.6c-7.2-5.9-8.2-16.5-2.3-23.7c0.1-0.2,0.3-0.3,0.4-0.5l111-130.4
	c5.9-7.2,16.5-8.2,23.7-2.3c0.2,0.1,0.3,0.3,0.5,0.4l252,214.5c7.2,5.9,8.2,16.5,2.3,23.7c-0.1,0.2-0.3,0.3-0.4,0.5l-111,130.4
	c-5.9,7.2-16.5,8.2-23.7,2.3C338.9,400,338.7,399.9,338.5,399.7z M212.3,37.4c-2.1-2.1-5.6-2-7.6,0.2c-0.2,0.2-0.3,0.3-0.4,0.5
	l-111,130.4c-2.1,2.1-2,5.6,0.2,7.6c0.2,0.1,0.3,0.3,0.5,0.4l252,214.6c2.1,2.1,5.6,2,7.6-0.1c0.2-0.2,0.3-0.3,0.4-0.5L465,260
	c2.1-2.1,2-5.6-0.1-7.6c-0.2-0.2-0.3-0.3-0.5-0.4L212.3,37.4z"/>
<path class="st1" d="M362.5,345.2l59.2-69.5c-9.6-8.2-10.7-22.6-2.5-32.2L227.9,80.7c-8.2,9.6-22.6,10.7-32.2,2.5l-59.2,69.6
	c9.6,8.2,10.7,22.6,2.6,32.2l191.2,162.8C338.5,338.2,352.9,337,362.5,345.2z"/>
<path class="st2" d="M331,355.8L131.1,185.6l3.7-4.3c6.2-7,5.5-17.6-1.5-23.8c-0.1-0.1-0.3-0.3-0.5-0.4l-4.3-3.7l66.6-78.2l4.3,3.7
	c7,6.2,17.6,5.5,23.7-1.4c0.1-0.2,0.3-0.3,0.4-0.5l3.7-4.3l199.8,170.2l-3.7,4.4c-6.2,6.9-5.5,17.6,1.4,23.7
	c0.2,0.1,0.3,0.3,0.5,0.4l4.3,3.7l-66.6,78.2l-4.3-3.7c-7-6.2-17.6-5.5-23.7,1.4c-0.1,0.2-0.3,0.3-0.4,0.5L331,355.8z M146.8,184
	l183.4,156.1c8.9-7.2,21.4-8.2,31.4-2.5l52.5-61.7c-7.2-9-8.2-21.4-2.5-31.4L228.1,88.4c-9,7.2-21.4,8.2-31.4,2.5l-52.5,61.7
	C151.4,161.5,152.4,174,146.8,184L146.8,184z"/>
<path class="st3" d="M222.6,166.2c-28.6,33.6-26.5,82.4,4.7,108.9S307,296,335.6,262.4c28.6-33.6,26.5-82.4-4.7-108.9
	S251.3,132.5,222.6,166.2z"/>
<path class="st2" d="M223.6,279.4c-33.5-28.5-36-80.9-5.3-117s82.9-41.9,116.3-13.3s36,80.9,5.3,117S257.1,307.9,223.6,279.4z
	 M327.2,157.7c-28.7-24.4-73.6-19.2-100.2,12.1s-24.6,76.5,4,100.9s73.6,19.2,100.2-12.1C357.9,227.4,355.9,182.2,327.2,157.7
	L327.2,157.7z"/>
<path class="st2" d="M326.6,149.7l8.7,7.4L231.7,278.8l-8.7-7.4L326.6,149.7z"/>
<path class="st2" d="M238.4,262c-7.3-6.1-11.7-15-12.1-24.5c-0.3-8.6,2.7-17.1,8.2-23.7l8.7,7.4c-3.7,4.4-5.6,10.1-5.2,15.8
	c0.5,6.4,3,12.3,7.8,16.4c9.5,8.3,23.9,7.4,32.2-2s7.4-23.9-2-32.2c-0.2-0.2-0.4-0.3-0.6-0.5c-14.4-12.3-16.1-33.9-3.9-48.3
	c12.3-14.4,33.9-16.1,48.3-3.9c14.4,12.3,16.1,33.9,3.9,48.3l-8.7-7.4c8.2-9.6,7-24-2.6-32.2c-9.6-8.2-24-7-32.2,2.6
	c-8.2,9.6-7,24,2.6,32.2c0,0,0,0,0,0c14.5,12.2,16.3,33.8,4.1,48.3c-12.2,14.5-33.8,16.3-48.3,4.1
	C238.6,262.2,238.5,262.1,238.4,262L238.4,262z"/>
<path class="st0" d="M388.3,295.9h272.2l-39-121.3L520.3,207c-10.8,3.5-20.8-3.5-23.6-12.1L464.1,93.4l-109.6,35.2
	c-9.9,3.2-15.3,13.7-12.1,23.6c0,0,0,0,0,0L388.3,295.9z"/>
<path class="st1" d="M527.3,381.1c-3.4,4-9.4,4.5-13.4,1.1L303.5,203.1c-4-3.4-4.5-9.4-1.1-13.4l92.6-108.8c3.4-4,9.4-4.5,13.4-1.1
	l210.4,179.1c4,3.4,4.5,9.4,1.1,13.4L527.3,381.1z"/>
<path class="st2" d="M510.8,385.8L300.4,206.7c-6-4.9-6.9-13.8-2-19.8c0.1-0.1,0.2-0.3,0.3-0.4l92.6-108.8c4.9-6,13.8-6.9,19.8-1.9
	c0.1,0.1,0.3,0.2,0.4,0.3l210.4,179.1c6,4.9,6.9,13.8,1.9,19.7c-0.1,0.1-0.2,0.3-0.3,0.4l-92.6,108.8c-4.9,6-13.8,6.9-19.7,2
	C511,386.1,510.9,385.9,510.8,385.8L510.8,385.8z M405.4,83.4c-1.8-1.7-4.6-1.6-6.3,0.2c-0.1,0.1-0.2,0.2-0.3,0.4l-92.7,108.8
	c-1.7,1.8-1.7,4.7,0.1,6.4c0.1,0.1,0.3,0.2,0.4,0.3l210.4,179.1c1.8,1.7,4.6,1.6,6.3-0.2c0.1-0.1,0.2-0.2,0.3-0.4l92.7-108.8
	c1.7-1.8,1.7-4.6-0.1-6.4c-0.1-0.1-0.3-0.2-0.4-0.4L405.4,83.4z"/>
<path class="st1" d="M530.8,340.3l49.4-58c-8-6.8-9-18.8-2.2-26.9L418.4,119.5c-6.8,8-18.8,8.9-26.9,2.2l-49.4,58
	c8,6.8,9,18.8,2.2,26.9l159.6,135.9C510.7,334.4,522.8,333.5,530.8,340.3z"/>
<path class="st2" d="M504.4,349.2l-166.8-142l3.1-3.6c5.1-5.8,4.6-14.7-1.2-19.8c-0.2-0.1-0.3-0.3-0.5-0.4l-3.6-3.1L391,115l3.6,3.1
	c5.8,5.1,14.7,4.6,19.8-1.2c0.1-0.1,0.2-0.3,0.3-0.4l3.1-3.6l166.8,142l-3.1,3.6c-5.1,5.8-4.6,14.7,1.2,19.8
	c0.1,0.1,0.3,0.2,0.4,0.3l3.6,3.1L531.3,347l-3.6-3.1c-5.8-5.1-14.7-4.6-19.8,1.2c-0.1,0.1-0.2,0.3-0.3,0.4L504.4,349.2z
	 M350.7,205.7l153,130.3c7.5-6,17.9-6.8,26.2-2.1l43.9-51.5c-6-7.5-6.8-17.9-2.1-26.2L418.6,125.9c-7.5,6-17.8,6.8-26.1,2.1
	l-43.9,51.5C354.6,187,355.5,197.4,350.7,205.7L350.7,205.7z"/>
<path class="st3" d="M414,190.8c-23.9,28-22.1,68.8,3.9,90.9c26,22.2,66.5,17.4,90.4-10.6c23.9-28,22.1-68.8-3.9-90.9
	S437.9,162.8,414,190.8L414,190.8z"/>
<path class="st2" d="M414.9,285.4c-27.9-23.8-30.1-67.5-4.5-97.6s69.2-34.9,97.1-11.2c27.9,23.8,30.1,67.5,4.5,97.6
	S442.8,309.2,414.9,285.4z M501.3,183.8c-23.9-20.4-61.4-16-83.7,10.1s-20.6,63.8,3.4,84.2c23.9,20.4,61.4,16,83.7-10.1
	C526.9,241.9,525.3,204.2,501.3,183.8L501.3,183.8z"/>
<path class="st2" d="M500.8,177.1l7.3,6.2l-86.5,101.6l-7.3-6.2L500.8,177.1z"/>
<path class="st2" d="M427.2,270.9c-6.1-5.1-9.7-12.5-10.1-20.5c-0.2-7.2,2.2-14.3,6.9-19.8l7.3,6.2c-3.1,3.7-4.7,8.4-4.3,13.2
	c0.4,5.4,2.5,10.3,6.5,13.7c7.8,7.1,19.9,6.5,26.9-1.3c7.1-7.8,6.5-19.9-1.3-26.9c-0.3-0.3-0.6-0.5-0.9-0.8
	c-12-10.2-13.5-28.3-3.3-40.3c10.2-12,28.3-13.5,40.3-3.3c12,10.2,13.5,28.3,3.3,40.3c0,0,0,0,0,0l-7.3-6.2c6.8-8,5.9-20-2.1-26.9
	c-8-6.8-20-5.9-26.9,2.1s-5.9,20,2.1,26.9c0,0,0,0,0,0c11.7,10.6,12.6,28.7,2,40.4C456.1,278.9,439,280.3,427.2,270.9L427.2,270.9z"
	/>
<polygon class="st4" points="227.8,679.6 164.8,431.4 531.8,431.4 468.8,679.6 "/>
<path class="st0" d="M265,657.4c12.4,0,22.5-10,22.6-22.4c0,0,0-0.1,0-0.1V472.8c0-12.4-10.1-22.5-22.5-22.5
	c-12.4,0-22.5,10.1-22.5,22.5v161.9C242.4,647.1,252.5,657.3,265,657.4C265,657.4,265,657.4,265,657.4z"/>
<path class="st0" d="M348.1,657.4c12.4,0,22.5-10,22.5-22.5c0,0,0,0,0-0.1V472.8c0-12.4-10.1-22.5-22.5-22.5
	c-12.4,0-22.5,10.1-22.5,22.5v161.9c-0.1,12.5,9.9,22.6,22.4,22.7C348,657.4,348.1,657.4,348.1,657.4z"/>
<path class="st0" d="M431.3,657.4c12.4,0,22.5-10,22.5-22.5c0,0,0,0,0-0.1V472.8c0-12.4-10.1-22.5-22.5-22.5
	c-12.4,0-22.5,10.1-22.5,22.5v161.9c-0.1,12.5,9.9,22.6,22.4,22.7C431.2,657.4,431.2,657.4,431.3,657.4z"/>
<path class="st5" d="M620.7,296h-545c-12.4,0-22.5,10.1-22.5,22.5c0,12.4,10.1,22.5,22.5,22.5h544.9c12.4,0,22.6-10,22.6-22.5
	C643.2,306.2,633.1,296,620.7,296z"/>
<path class="st4" d="M152.8,250.8H75.6C38.3,250.7,8,281,7.9,318.3c0,31.2,21.3,58.4,51.7,65.7l84.8,334.4c7.6,30,34.6,51,65.5,51
	h276.3c31,0.1,58-21,65.5-51l84.8-334.4c36.2-8.8,58.5-45.3,49.7-81.5c-7.3-30.3-34.5-51.7-65.7-51.6h-46.8 M526.4,251.2H200.3
	 M508.1,707.6c-2.5,10-11.6,17-21.9,16.9H210c-10.3,0-19.3-7-21.9-16.9l-81.5-321.3h482.9L508.1,707.6z M620.6,341.3h-545
	c-12.4,0-22.5-10.1-22.5-22.5s10.1-22.5,22.5-22.5h544.9c12.4,0,22.6,10,22.6,22.5C643.2,331.1,633.1,341.2,620.6,341.3L620.6,341.3
	z"/>
<rect x="155.9" y="386.3" class="st0" width="380.3" height="32.5"/>
</svg>
