<svg id="Layer_1" data-name="Layer 1" xmlns="http://www.w3.org/2000/svg" viewBox="0 0 881.05 881.05"><defs><style>.cls-1,.cls-7{fill:#fff;}.cls-1{fill-opacity:0.01;}.cls-2{fill:#2f88ff;}.cls-3,.cls-4{fill:none;}.cls-3{stroke:#000;}.cls-3,.cls-4,.cls-5,.cls-6{stroke-linecap:round;stroke-linejoin:round;stroke-width:66.67px;}.cls-4,.cls-6{stroke:#16aabc;}.cls-5,.cls-6{fill:#67d839;}.cls-5{stroke:#67d839;}</style></defs><rect class="cls-1" width="881.05" height="881.05"/><path class="cls-2" d="M214.45,501.27H728.39V721.54H214.45V501.27Z" transform="translate(42.52 31.03)"/><path class="cls-2" d="M214.45,97.46H728.39V317.72H214.45V97.46Z" transform="translate(42.52 31.03)"/><path class="cls-3" d="M214.45,207.59V317.72H728.39V97.46H214.45Zm0,0H67.61V611.4H214.45m0,0V721.54H728.39V501.27H214.45Z" transform="translate(42.52 31.03)"/><path class="cls-4" d="M214.45,207.59H67.61V611.4H214.45" transform="translate(42.52 31.03)"/><path class="cls-5" d="M214.45,501.27H728.39V721.54H214.45V501.27Z" transform="translate(42.52 31.03)"/><path class="cls-6" d="M214.45,97.46H728.39V317.72H214.45V97.46Z" transform="translate(42.52 31.03)"/><path id="Shape" class="cls-7" d="M236.31,634a12,12,0,0,0-18.11,0,15.16,15.16,0,0,0,0,20l59,65a11.93,11.93,0,0,0,9.06,4.13h.63a13.83,13.83,0,0,0,9.37-5.16L444,522.84a15.59,15.59,0,0,0-1.56-20,12.34,12.34,0,0,0-18.12,1.72L285.35,688Z" transform="translate(42.52 31.03)"/></svg>