<svg id="Layer_1" data-name="Layer 1" xmlns="http://www.w3.org/2000/svg" viewBox="0 0 712.89 712.89"><defs><style>.cls-1{fill:#16aabc;}.cls-2{fill:#7e8488;}.cls-3{fill:#e7eced;}.cls-4{fill:#afb6bb;}.cls-5{fill:#9b9b9b;}.cls-6{fill:#0e8f99;}.cls-7{fill:#9ea5aa;}.cls-8{fill:#fff;}.cls-9{fill:#fdb51e;}.cls-10{fill:#ffd311;}.cls-11{fill:#67d839;}.cls-12{fill:#4fad23;}</style></defs><rect class="cls-1" x="62.47" y="62.47" width="587.95" height="323.37"/><path class="cls-2" d="M409.48,493.53a29.4,29.4,0,1,1-29.4,29.39A29.48,29.48,0,0,1,409.48,493.53Z" transform="translate(-53.04 -63.59)"/><polygon class="cls-3" points="503.43 643.07 518.13 701.86 194.76 701.86 209.46 643.07 246.2 643.07 466.68 643.07 503.43 643.07"/><rect class="cls-4" x="246.2" y="540.18" width="220.48" height="102.89"/><path class="cls-3" d="M115.51,449.43H754.9V589.07a14.75,14.75,0,0,1-14.7,14.7H78.76a14.75,14.75,0,0,1-14.7-14.7V449.43Zm294,44.1a29.4,29.4,0,1,0,29.4,29.39A29.48,29.48,0,0,0,409.48,493.53Z" transform="translate(-53.04 -63.59)"/><path class="cls-5" d="M754.9,89.31V449.43H703.46V126.06H115.51V449.43H64.06V89.31a14.75,14.75,0,0,1,14.7-14.7H740.2A14.74,14.74,0,0,1,754.9,89.31Z" transform="translate(-53.04 -63.59)"/><polygon class="cls-6" points="62.47 62.47 62.47 385.84 135.96 385.84 459.33 62.47 62.47 62.47"/><rect class="cls-7" x="246.2" y="540.18" width="220.48" height="51.44"/><polygon class="cls-8" points="124.94 246.2 102.89 246.2 102.89 110.24 180.06 110.24 180.06 132.29 124.94 132.29 124.94 246.2"/><rect class="cls-8" x="102.89" y="268.25" width="22.05" height="29.4"/><polygon class="cls-8" points="610 345.42 532.83 345.42 532.83 323.37 587.95 323.37 587.95 282.95 610 282.95 610 345.42"/><rect class="cls-9" x="268.25" y="238.85" width="44.1" height="146.99"/><rect class="cls-10" x="224.16" y="238.85" width="44.1" height="146.99"/><polygon class="cls-3" points="268.25 135.96 312.35 238.85 268.25 238.85 224.16 238.85 268.25 135.96"/><polygon class="cls-11" points="356.44 327.05 356.44 253.55 356.44 180.06 356.44 121.27 488.73 121.27 488.73 385.84 356.44 385.84 356.44 327.05"/><rect class="cls-12" x="437.29" y="121.26" width="51.44" height="264.58"/><path d="M409.48,482.5a40.42,40.42,0,1,0,40.42,40.42A40.47,40.47,0,0,0,409.48,482.5Zm0,58.8a18.38,18.38,0,1,1,18.37-18.38A18.39,18.39,0,0,1,409.48,541.3Z" transform="translate(-53.04 -63.59)"/><path d="M740.2,63.59H78.76A25.75,25.75,0,0,0,53,89.31V589.07a25.75,25.75,0,0,0,25.72,25.72H288.22v80.84H253.89l-20.21,80.85H585.29l-20.21-80.85H530.75V614.79H740.2a25.75,25.75,0,0,0,25.73-25.72V89.31A25.77,25.77,0,0,0,740.2,63.59Zm-661.44,22H740.2a3.73,3.73,0,0,1,3.68,3.67v349.1h-29.4V115h-610V438.4H75.08V89.31A3.73,3.73,0,0,1,78.76,85.64Zm341.75,316h40.42V379.61H420.51V328.17H483V306.12H420.51V254.67h40.42v-22H420.51V195.88H530.75V438.41H420.51V401.66ZM398.46,173.83V438.41h-22V300.18L321.29,171.57,266.17,300.18V438.41H126.53V137.08h565.9V438.41H552.79V173.83ZM293.91,291.42l27.38-63.88,27.38,63.88Zm-5.69,22.05h22V438.41h-22Zm44.09,0h22.05V438.41H332.31Zm224.74,441H261.91l9.19-36.75H547.86Zm-48.35-58.8H310.26V614.79H508.7v80.84ZM740.2,592.74H78.76a3.73,3.73,0,0,1-3.68-3.67V460.45h668.8V589.07A3.73,3.73,0,0,1,740.2,592.74Z" transform="translate(-53.04 -63.59)"/></svg>