<svg id="Layer_1" data-name="Layer 1" xmlns="http://www.w3.org/2000/svg" viewBox="0 0 492.1 431.22"><defs><style>.cls-1{fill:#16aabc;}.cls-2{fill:#e7eced;}.cls-3{fill:#36c63f;}.cls-4{fill:#ccd1d2;}.cls-5{fill:#00af4d;}.cls-6{fill:#13757c;}.cls-7{fill:#51565a;}.cls-8{fill:#fff;}</style></defs><rect class="cls-1" x="327.22" y="210.54" width="91.32" height="101.46"/><rect class="cls-1" x="200.39" y="210.54" width="91.32" height="101.46"/><rect class="cls-1" x="73.56" y="210.54" width="91.32" height="101.46"/><rect class="cls-1" x="327.22" y="149.66" width="91.32" height="60.88"/><rect class="cls-1" x="200.39" y="149.66" width="91.32" height="60.88"/><rect class="cls-1" x="73.56" y="149.66" width="91.32" height="60.88"/><path class="cls-2" d="M256,145.82H53.07v274H458.93V145.82Zm81.17,96.39V181.33h91.32V343.67H337.17Zm-126.83,0V181.33h91.32V343.67H210.34Zm-126.83,0V181.33h91.32V343.67H83.51Z" transform="translate(-9.95 -31.67)"/><polygon class="cls-2" points="484.49 78.64 484.49 423.61 246.05 423.61 246.05 388.1 448.98 388.1 448.98 114.15 246.05 114.15 246.05 78.64 484.49 78.64"/><rect class="cls-3" x="246.05" y="7.61" width="238.44" height="71.02"/><polygon class="cls-4" points="246.05 388.1 246.05 423.61 7.61 423.61 7.61 78.64 246.05 78.64 246.05 114.15 43.12 114.15 43.12 388.1 246.05 388.1"/><rect class="cls-5" x="7.61" y="7.61" width="238.44" height="71.02"/><rect class="cls-6" x="73.56" y="149.66" width="45.66" height="60.88"/><rect class="cls-7" x="73.56" y="210.54" width="45.66" height="101.46"/><rect class="cls-6" x="200.39" y="149.66" width="45.66" height="60.88"/><rect class="cls-7" x="200.39" y="210.54" width="45.66" height="101.46"/><rect class="cls-6" x="327.22" y="149.66" width="45.66" height="60.88"/><rect class="cls-7" x="327.22" y="210.54" width="45.66" height="101.46"/><rect class="cls-8" x="38.05" y="35.51" width="20.29" height="15.22"/><rect class="cls-8" x="68.49" y="35.51" width="20.29" height="15.22"/><rect class="cls-8" x="433.76" y="35.51" width="20.29" height="15.22"/><path d="M10,31.67V462.89h492.1V31.67ZM486.83,46.89v55.8H25.17V46.89ZM25.17,447.67V117.91H486.83V447.67Z" transform="translate(-9.95 -31.67)"/><path d="M45.46,427.38H466.54V138.21H45.46ZM60.68,153.43H451.32V412.16H60.68Z" transform="translate(-9.95 -31.67)"/><path d="M309.27,173.72H202.73V351.28H309.27V173.72Zm-15.22,15.22V234.6H218V188.94ZM218,336.06V249.82h76.1v86.24Z" transform="translate(-9.95 -31.67)"/><path d="M436.1,173.72H329.56V351.28H436.1Zm-15.22,15.22V234.6h-76.1V188.94Zm-76.1,147.12V249.82h76.1v86.24Z" transform="translate(-9.95 -31.67)"/><path d="M182.44,173.72H75.9V351.28H182.44Zm-15.22,15.22V234.6H91.12V188.94ZM91.12,336.06V249.82h76.1v86.24Z" transform="translate(-9.95 -31.67)"/><rect x="63.41" y="339.9" width="81.17" height="15.22"/><rect x="154.73" y="339.9" width="20.29" height="15.22"/><rect x="190.24" y="339.9" width="81.17" height="15.22"/><rect x="281.56" y="339.9" width="20.29" height="15.22"/><rect x="317.07" y="339.9" width="81.17" height="15.22"/><rect x="408.39" y="339.9" width="20.29" height="15.22"/><rect class="cls-8" x="377.95" y="273.95" width="20.29" height="15.22"/><rect class="cls-8" x="347.51" y="273.95" width="20.29" height="15.22"/><rect class="cls-8" x="251.12" y="273.95" width="20.29" height="15.22"/><rect class="cls-8" x="220.68" y="273.95" width="20.29" height="15.22"/><rect class="cls-8" x="124.29" y="273.95" width="20.29" height="15.22"/><rect class="cls-8" x="93.85" y="273.95" width="20.29" height="15.22"/></svg>