<svg id="Layer_1" data-name="Layer 1" xmlns="http://www.w3.org/2000/svg" viewBox="0 0 757.97 658.62"><defs><style>.cls-1,.cls-4{fill:#f2f2f2;}.cls-2{fill:#16aabc;}.cls-3,.cls-6{fill:#67d839;}.cls-4,.cls-5,.cls-6,.cls-7{fill-rule:evenodd;}.cls-5{fill:#b3b3b3;}.cls-7{fill:#ff7c24;}</style></defs><rect class="cls-1" x="11.87" y="13.29" width="663.21" height="561.28"/><path d="M714.32,663.62H27.37V75.78H527.54v26.57H51.12v534.7H690.58V102.34H614.26V75.77H714.32ZM587.58,102.34H558.13V75.77h29.45Z" transform="translate(-27.37 -75.77)"/><rect class="cls-2" x="11.87" y="153.58" width="663.21" height="420.98"/><path d="M714.32,663.62H27.37V216.07h687ZM51.12,637.05H690.58V242.64H51.12Z" transform="translate(-27.37 -75.77)"/><rect class="cls-3" x="54" y="53.64" width="60.17" height="65.03"/><rect class="cls-3" x="161.66" y="52.8" width="60.17" height="65.02"/><rect class="cls-3" x="266.83" y="52.8" width="60.17" height="65.02"/><path class="cls-4" d="M519.46,283.53c72.23,0,130.77,65.51,130.77,146.37S591.69,576.25,519.46,576.25,388.7,510.74,388.7,429.9s58.54-146.37,130.76-146.37Z" transform="translate(-27.37 -75.77)"/><path d="M519.46,589.54c-78.65,0-142.62-71.61-142.62-159.64s64-159.65,142.62-159.65S662.09,341.87,662.09,429.9,598.11,589.54,519.46,589.54Zm0-292.71c-65.55,0-118.88,59.69-118.88,133.07S453.91,563,519.46,563,638.35,503.27,638.35,429.9,585,296.83,519.46,296.83Z" transform="translate(-27.37 -75.77)"/><path class="cls-5" d="M636.27,495.74l40.34,46.62-62.48,67.77L573.54,563.2c27.15-13.79,49.33-37.73,62.73-67.46Z" transform="translate(-27.37 -75.77)"/><path d="M613.86,628.92l-60.57-70,15.35-7.79c24.58-12.48,44.84-34.26,57-61.32l7.52-16.68,60.21,69.56Zm-20.78-62.26,21.31,24.65,45.44-49.26-21.17-24.46A152.15,152.15,0,0,1,593.08,566.66Z" transform="translate(-27.37 -75.77)"/><polygon class="cls-6" points="658.95 639.85 576.93 544.89 659.11 455.95 741.14 550.91 658.95 639.85"/><path d="M686.08,734.4,587.55,620.34l99.27-107.41L785.34,627ZM621.13,621l65.51,75.84,65.12-70.47-65.51-75.84Z" transform="translate(-27.37 -75.77)"/><polygon points="93.09 432.72 77.81 412.39 174.9 321 280.18 392.07 360.33 330.06 451.2 375.52 537.32 319.09 549.32 342.02 452.66 405.35 362.85 360.42 281.06 423.69 177.17 353.56 93.09 432.72"/><path class="cls-7" d="M203.41,383.57c14.53,0,26.34,13.22,26.34,29.5s-11.81,29.53-26.34,29.53-26.36-13.21-26.36-29.53,11.78-29.5,26.36-29.5Z" transform="translate(-27.37 -75.77)"/><path d="M203.41,455.88c-21.08,0-38.22-19.22-38.22-42.82s17.14-42.78,38.22-42.78,38.21,19.19,38.21,42.78S224.49,455.88,203.41,455.88Zm0-59c-8,0-14.48,7.27-14.48,16.21s6.49,16.25,14.48,16.25,14.46-7.3,14.46-16.25S211.39,396.85,203.41,396.85Z" transform="translate(-27.37 -75.77)"/><path class="cls-6" d="M308,449.32c14.54,0,26.34,13.22,26.34,29.54s-11.8,29.49-26.34,29.49-26.39-13.22-26.39-29.49,11.81-29.54,26.39-29.54Z" transform="translate(-27.37 -75.77)"/><path d="M308,521.64c-21.09,0-38.26-19.2-38.26-42.78S286.9,436,308,436s38.22,19.2,38.22,42.82S329.06,521.64,308,521.64Zm0-59c-8,0-14.52,7.28-14.52,16.25s6.52,16.2,14.52,16.2,14.48-7.27,14.48-16.2S316,462.61,308,462.61Z" transform="translate(-27.37 -75.77)"/><path class="cls-7" d="M477.61,431C492.2,431,504,444.19,504,460.52S492.2,490,477.61,490s-26.34-13.22-26.34-29.49S463.07,431,477.61,431Z" transform="translate(-27.37 -75.77)"/><path d="M477.61,503.29c-21.06,0-38.21-19.19-38.21-42.77s17.15-42.83,38.21-42.83,38.22,19.22,38.22,42.83S498.69,503.29,477.61,503.29Zm0-59c-8,0-14.47,7.29-14.47,16.25s6.5,16.19,14.47,16.19,14.47-7.26,14.47-16.19S485.6,444.27,477.61,444.27Z" transform="translate(-27.37 -75.77)"/><path class="cls-7" d="M570.69,376.84c14.54,0,26.35,13.18,26.35,29.5s-11.81,29.48-26.35,29.48-26.35-13.21-26.35-29.48,11.81-29.5,26.35-29.5Z" transform="translate(-27.37 -75.77)"/><path d="M570.69,449.11c-21.07,0-38.22-19.18-38.22-42.77s17.15-42.78,38.22-42.78,38.22,19.19,38.22,42.78S591.76,449.11,570.69,449.11Zm0-59c-8,0-14.48,7.27-14.48,16.21s6.5,16.19,14.48,16.19,14.47-7.26,14.47-16.19S578.67,390.13,570.69,390.13Z" transform="translate(-27.37 -75.77)"/><path class="cls-6" d="M112.82,468.84c14.53,0,26.34,13.22,26.34,29.49s-11.81,29.55-26.34,29.55-26.35-13.23-26.35-29.55,11.81-29.49,26.35-29.49Z" transform="translate(-27.37 -75.77)"/><path d="M112.82,541.15c-21.07,0-38.22-19.21-38.22-42.83s17.15-42.76,38.22-42.76S151,474.74,151,498.32,133.88,541.15,112.82,541.15Zm0-59c-8,0-14.48,7.26-14.48,16.19s6.49,16.26,14.48,16.26,14.47-7.29,14.47-16.26S120.8,482.13,112.82,482.13Z" transform="translate(-27.37 -75.77)"/></svg>