<svg id="Layer_1" data-name="Layer 1" xmlns="http://www.w3.org/2000/svg" viewBox="0 0 757.76 626.1"><defs><style>.cls-1{fill:#39b6cc;}.cls-2{fill:#f2f2f2;}.cls-3{fill:#16aabc;}.cls-4{fill:#67d839;}.cls-5{fill:#ff7c24;}</style></defs><rect class="cls-1" x="44.54" y="13.02" width="652.21" height="409.86"/><path d="M730.08,522.85H53.44V87H730.07v435.9Zm-652.22-26H705.65V113H77.86Z" transform="translate(-21.12 -86.95)"/><rect class="cls-2" x="98.79" y="68.42" width="547.04" height="354.46"/><path d="M679.16,522.85H107.69V142.35H679.15v380.5Zm-547-26H654.73V168.39H132.12Z" transform="translate(-21.12 -86.95)"/><rect class="cls-1" x="12.21" y="422.87" width="718.47" height="96.65"/><path d="M764,619.49H21.12V496.81H764Zm-718.48-26H739.58v-70.6H45.53Z" transform="translate(-21.12 -86.95)"/><rect class="cls-2" x="278.48" y="458.16" width="185.87" height="26.04"/><rect class="cls-3" x="386.77" y="144.51" width="358.78" height="468.57"/><path d="M778.87,713.05H395.67V218.44H778.88V713.05ZM420.09,687H754.45V244.48H420.09Z" transform="translate(-21.12 -86.95)"/><rect class="cls-2" x="436.26" y="205.16" width="247.56" height="350.54"/><path d="M717.15,655.67h-272V279.09h272V655.67Zm-247.56-26H692.73V305.13H469.59Z" transform="translate(-21.12 -86.95)"/><rect class="cls-4" x="148.73" y="262.56" width="199.42" height="118.99"/><rect x="497.04" y="261.87" width="136.47" height="26.04"/><rect x="496.61" y="322.06" width="91.21" height="26.04"/><rect class="cls-5" x="496.61" y="396.51" width="134.18" height="85.26"/><rect x="608.78" y="322.06" width="24.73" height="26.04"/><rect x="497.04" y="261.87" width="136.47" height="26.04"/><rect x="496.61" y="322.06" width="91.16" height="26.04"/><rect x="608.78" y="322.06" width="24.73" height="26.04"/><rect x="173.31" y="138.17" width="150.26" height="26.04"/><rect x="172.89" y="198.36" width="100.37" height="26.04"/><rect x="298.85" y="198.36" width="24.72" height="26.04"/></svg>