<svg id="Layer_1" data-name="Layer 1" xmlns="http://www.w3.org/2000/svg" viewBox="0 0 715.3 720.09"><defs><style>.cls-1,.cls-5{fill:#f2f2f2;}.cls-2{fill:#ff7c24;}.cls-3{fill:#67d839;}.cls-4{fill:#16aabc;}.cls-4,.cls-5{fill-rule:evenodd;}</style></defs><rect class="cls-1" x="11.67" y="11.85" width="550.8" height="696.39"/><path d="M622.15,777.92H48V57.83H622.15ZM71.33,754.23H598.81V81.53H71.33Z" transform="translate(-48 -57.83)"/><rect class="cls-2" x="321.33" y="257.13" width="147.53" height="104.75"/><rect x="106.1" y="245.29" width="159.95" height="23.69"/><rect x="107.86" y="303.17" width="127.89" height="23.69"/><rect x="108.65" y="361.62" width="127.88" height="23.7"/><rect x="107.86" y="422.05" width="279.09" height="23.69"/><rect x="107.86" y="479.93" width="231.02" height="23.69"/><rect class="cls-3" x="74.31" y="74.81" width="424.99" height="137.78"/><path class="cls-4" d="M477.57,527.67l16-29.94,21.38,6.79c3.64-4.49,9.17-11.75,13.38-15.69l-7.72-21.47,30-19.54,16.19,16.65a121.12,121.12,0,0,1,21-6.08l3.56-22.27H629.6l3.55,22.27a120.86,120.86,0,0,1,21,6.08l16.94-15.56,28.08,17.74-6.53,22.18A120.63,120.63,0,0,1,704.05,501l22.62-4.54L742,524.9l-16.1,16.52a122.6,122.6,0,0,1,3.76,15l22,5.45v34.68l-22,5.91a118.22,118.22,0,0,1-3.59,14.42l16.43,16-14.94,28.06-23.12-3.53a127.12,127.12,0,0,1-11.77,12.67l6.53,22.14L673,708.75,654.18,694.4a116.75,116.75,0,0,1-21,6.08l-3.54,22.32H591.38l-3.55-22.32a117.23,117.23,0,0,1-21-6.08l-17.93,15-27.08-17.16,6.53-22.14A119.23,119.23,0,0,1,517,657.88l-22.43,5-16.1-29.9,16.68-15.44a120.21,120.21,0,0,1-3.76-15l-22-6V563.52l22-7.09a118.58,118.58,0,0,1,3.6-14.47Z" transform="translate(-48 -57.83)"/><path d="M639.53,734.65h-58.1l-3.87-24.34c-2.85-.73-5.67-1.57-8.46-2.49l-19.29,16.11-41.74-26.44,7-23.93c-.83-.86-1.64-1.74-2.45-2.62l-24.21,5.34-24.69-45.85,18.08-16.72c-.15-.56-.29-1.12-.42-1.67l-23.73-6.54V554.85l23.65-7.63c.08-.32.15-.65.23-1l-18.88-15.57,25.18-47.16,23,7.31c1.27-1.6,2.64-3.23,4-4.81l-8.44-23.49,45.84-29.85,17.63,18.13c2.51-.81,5.07-1.55,7.66-2.22l3.87-24.31h58.1l3.87,24.31c2.74.72,5.45,1.5,8.09,2.36l18.3-16.81,43.11,27.23-7.06,24c.88.91,1.72,1.82,2.56,2.74l24.4-4.88,23.6,43.75L739,544.77c.16.63.31,1.26.47,1.89l23.79,5.91v53.09l-23.77,6.39c-.1.41-.19.82-.3,1.23L757,630.55l-23.08,43.31-24.87-3.79q-1.56,1.75-3.19,3.45l7.06,23.94-40.48,25.6-20.23-15.39c-2.91,1-5.84,1.85-8.79,2.6ZM601.29,711h18.38l3.27-20.57,8-1.54a107.16,107.16,0,0,0,19-5.48l6-2.37,17.66,13.42,11.8-7.46-6.05-20.56,5.35-5a114.27,114.27,0,0,0,10.67-11.47l4.19-5.19L721.18,648,728,635.2l-15.27-14.85,2.23-7.06a112.08,112.08,0,0,0,3.24-13l1.36-7.34,20.4-5.5V571.2l-20.37-5.06-1.39-7.5a108.55,108.55,0,0,0-3.39-13.52l-2.22-6.88,15-15.39-7-13L699.47,514,695,508.58a111.32,111.32,0,0,0-10.28-11l-5.37-5,6.05-20.62-13-8.24-15.74,14.47-6.7-2.64a110.94,110.94,0,0,0-19-5.5l-8-1.57L619.66,448H601.28L598,468.45,590,470a111.47,111.47,0,0,0-19,5.5l-7.13,2.8L548.94,463l-14.2,9.24,7.19,20-5.73,5.35a133.75,133.75,0,0,0-10,11.64c-.82,1-1.58,2-2.29,2.86l-5,6.17-19.72-6.28-6.79,12.72,16,13.21L506,545.59a106.58,106.58,0,0,0-3.23,13l-1.28,7L481,572.19v15.19L501.42,593l1.36,7.3a107.27,107.27,0,0,0,3.37,13.52l2.36,7.29L493,635.42l7.51,14,20.84-4.59,4.53,5.57a111.48,111.48,0,0,0,10.28,11l5.38,5L535.51,687l12.41,7.87,16.71-14,6.35,2.49a106.73,106.73,0,0,0,19,5.49L598,690.4Z" transform="translate(-48 -57.83)"/><path class="cls-5" d="M610.47,526.75c28.66,0,51.9,23.61,51.9,52.71s-23.24,52.71-51.9,52.71-51.9-23.61-51.9-52.71,23.26-52.71,51.9-52.71Z" transform="translate(-48 -57.83)"/><path d="M610.47,644c-35.05,0-63.56-29-63.56-64.55s28.51-64.57,63.56-64.57,63.57,29,63.57,64.57S645.53,644,610.47,644Zm0-105.43c-22.18,0-40.24,18.34-40.24,40.87s18.06,40.87,40.24,40.87,40.24-18.34,40.24-40.87S632.67,538.59,610.47,538.59Z" transform="translate(-48 -57.83)"/><rect x="107.86" y="535.28" width="243.16" height="23.69"/><rect x="107.86" y="593.15" width="269.55" height="23.69"/><rect x="252.38" y="303.17" width="26.6" height="23.69"/></svg>