<svg id="Layer_1" data-name="Layer 1" xmlns="http://www.w3.org/2000/svg" viewBox="0 0 726.65 658.83"><defs><style>.cls-1{fill:#39b6cc;}.cls-2,.cls-3{fill:#f2f2f2;}.cls-2,.cls-4{fill-rule:evenodd;}.cls-4{fill:#67d839;}.cls-5{fill:#ffd833;}</style></defs><rect class="cls-1" x="11.46" y="11.64" width="703.73" height="511.01"/><path d="M756,604.36H52.27a11.55,11.55,0,0,1-11.46-11.63v-511A11.56,11.56,0,0,1,52.27,70.07H756a11.53,11.53,0,0,1,11.45,11.64v511A11.54,11.54,0,0,1,756,604.36ZM63.72,581.09H744.55V93.34H63.72Z" transform="translate(-40.81 -70.07)"/><polygon class="cls-2" points="227.84 586.95 498.81 586.95 475.17 522.65 251.44 522.65 227.84 586.95"/><path d="M539.62,668.65h-271a11.41,11.41,0,0,1-9.4-5A11.82,11.82,0,0,1,257.92,653l23.6-64.29a11.47,11.47,0,0,1,10.73-7.57H516a11.47,11.47,0,0,1,10.73,7.56l23.63,64.29A11.78,11.78,0,0,1,549,663.65,11.43,11.43,0,0,1,539.62,668.65ZM285.15,645.38h238l-15.08-41H300.21Z" transform="translate(-40.81 -70.07)"/><rect class="cls-1" x="160.54" y="586.94" width="405.52" height="60.26"/><path d="M606.87,728.91H201.35a11.55,11.55,0,0,1-11.46-11.64V657a11.55,11.55,0,0,1,11.46-11.63H606.87A11.54,11.54,0,0,1,618.33,657v60.26A11.54,11.54,0,0,1,606.87,728.91ZM212.8,705.64H595.43v-37H212.8Z" transform="translate(-40.81 -70.07)"/><rect class="cls-3" x="11.46" y="86.02" width="703.73" height="361.22"/><path d="M756,528.94H52.27a11.55,11.55,0,0,1-11.46-11.63V156.09a11.55,11.55,0,0,1,11.46-11.63H756a11.53,11.53,0,0,1,11.45,11.63V517.31A11.54,11.54,0,0,1,756,528.94ZM63.72,505.67H744.55v-338H63.72Z" transform="translate(-40.81 -70.07)"/><path class="cls-4" d="M152.94,231.3c-2.47,17.21-1.59,66-.61,84.89,2.44,46.78,26.23,84.47,56.32,113.71,5.84,5.69,39.42,34.64,48.74,35.38,16.94,1.28,69.93-50.21,87-81.14,21.32-38.55,25.06-97.95,19.71-152-6.85-2-97.55-21.83-105.06-21.83Z" transform="translate(-40.81 -70.07)"/><path d="M258,477h0c-.5,0-1,0-1.48-.05-4.94-.4-12.17-2.87-31.81-18.22-10.19-8-20.49-16.95-24-20.37-37.4-36.35-57.53-77.23-59.84-121.51-.9-17.8-2-68.17.71-87.18l1.19-8.16L258,198.66h1.1c10.09,0,103.07,20.76,108.24,22.29l7.44,2.19.78,7.82c3.78,38.24,6.08,109.74-21.13,158.89C338.55,418.53,283.91,477,258,477ZM163.49,241.06c-1.28,20.07-.6,57.47.28,74.52,2,38.16,19.75,73.8,52.8,105.92,8,7.79,34.12,29.15,41.84,32.1,3.31-.75,15.17-6.62,36-26.63,17.07-16.39,32.78-35.44,40-48.52,16.79-30.38,23.63-80,19-137-22-5.07-83.13-18.17-93.74-19.47Z" transform="translate(-40.81 -70.07)"/><path class="cls-3" d="M241.69,372.31A11.36,11.36,0,0,1,233,368.2l-31.26-37.48a11.76,11.76,0,0,1,1.34-16.4,11.31,11.31,0,0,1,16.13,1.36l22.23,26.64,54.41-69.79a11.32,11.32,0,0,1,16.08-1.91A11.75,11.75,0,0,1,313.76,287L250.67,367.9a11.41,11.41,0,0,1-8.79,4.41Z" transform="translate(-40.81 -70.07)"/><rect class="cls-5" x="397.86" y="144.3" width="219.74" height="73.32"/><rect x="397.86" y="245.23" width="219.74" height="23.27"/><rect x="397.86" y="301.69" width="156" height="23.27"/><rect x="397.86" y="358.7" width="156.94" height="23.27"/><rect x="573.9" y="301.69" width="31.98" height="23.27"/><rect class="cls-3" x="642.98" y="471.84" width="27.54" height="23.27"/></svg>