<svg id="svg5" xmlns="http://www.w3.org/2000/svg" viewBox="0 0 758.83 741.22"><defs><style>.cls-1{fill:#67d839;}.cls-1,.cls-2,.cls-3,.cls-4,.cls-5,.cls-6,.cls-7{fill-rule:evenodd;}.cls-2{fill:#e7e7e7;}.cls-3{fill:#fafafa;}.cls-4{fill:#16aabc;}.cls-5{fill:#f2a50c;}.cls-6{fill:#fcca3d;}.cls-7{fill:#fff;}</style></defs><g id="layer1"><path id="path25783" class="cls-1" d="M168.24,26.4C227.61,50.89,307.3,68,408.29,44.41l-120,198.22Z" transform="translate(-13.38 -26.4)"/><path id="path25785" class="cls-2" d="M65.37,422.82V712.38l-52,54.48H563.57l-52.4-54.48V422.82c0-129.37-99.8-234.25-222.9-234.25S65.37,293.45,65.37,422.82Z" transform="translate(-13.38 -26.4)"/><path id="path80031" class="cls-3" d="M283.79,188.68C162.77,191.2,65.37,295,65.37,422.82V712.37l-52,54.49H245.66C345.21,706,407.15,590.3,407.48,464.48,407.45,356.22,361.7,254.2,283.79,188.68Z" transform="translate(-13.38 -26.4)"/><path id="path76006" class="cls-4" d="M230.66,278.56c-11.08,0-20.06,8.52-20.07,19v41.47c-38.79,8.39-68.43,40.49-68.43,79.19,0,45.15,40.33,81.34,88.5,81.34,27.4,0,48.36,19.61,48.36,43.27s-21,43.19-48.36,43.19-48.36-19.54-48.36-43.19c0-10.53-9-19.07-20-19.08h0c-11.08,0-20.06,8.52-20.07,19.05v0c0,38.69,29.64,70.79,68.43,79.19v41.43c0,10.53,9,19.06,20,19.07h0c11.08,0,20.07-8.52,20.08-19V622.06c38.79-8.4,68.43-40.5,68.43-79.19,0-45.16-40.34-81.34-88.51-81.34-27.4,0-48.36-19.62-48.36-43.27s21-43.19,48.36-43.19S279,394.61,279,418.26c0,10.52,9,19.06,20,19.07h0c11.08,0,20.07-8.52,20.08-19v0c0-38.7-29.64-70.8-68.43-79.19V297.63c0-10.52-9-19.06-20.05-19.07Z" transform="translate(-13.38 -26.4)"/><path id="path25801" class="cls-5" d="M466.55,386.62c0,88.42,68.42,160.1,152.83,160.1S772.21,475,772.21,386.62s-68.42-160.1-152.83-160.1S466.55,298.2,466.55,386.62Z" transform="translate(-13.38 -26.4)"/><path id="path74900" class="cls-6" d="M572.93,234.06c-61.69,20.6-106.38,81.11-106.38,152.56,0,88.42,68.42,160.1,152.83,160.1a146.8,146.8,0,0,0,76.23-21.34A191.52,191.52,0,0,0,727.7,418.71C727.7,324,660.24,245.9,572.93,234.06Z" transform="translate(-13.38 -26.4)"/><path id="path25803" class="cls-7" d="M619.38,259.71c-10.59,0-19.18,8.91-19.18,19.89v17.71a56.5,56.5,0,0,0-36.71,52.84c0,31.35,25.67,56.37,55.89,56.37,10.33,0,17.5,7.67,17.5,16.57s-7.17,16.49-17.5,16.49-17.5-7.59-17.5-16.49c0-11-8.57-19.92-19.18-19.94h0c-10.61,0-19.19,9-19.17,19.94a56.49,56.49,0,0,0,36.71,52.84v17.71c0,11,8.59,19.88,19.18,19.9s19.21-8.91,19.22-19.9V475.9a56.53,56.53,0,0,0,36.71-52.81c0-31.35-25.71-56.36-55.93-56.36-10.33,0-17.5-7.68-17.5-16.58s7.17-16.49,17.5-16.49,17.5,7.59,17.5,16.49c0,11,8.57,19.92,19.18,19.94h0c10.61,0,19.22-8.91,19.22-19.9v0a56.51,56.51,0,0,0-36.71-52.8V279.6C638.59,268.61,630,259.7,619.38,259.71Z" transform="translate(-13.38 -26.4)"/><path id="path74959" class="cls-5" d="M517.87,452.83C436.34,475.72,388,563.51,409.8,648.91S515.45,785,597,762.12,726.9,651.45,705.05,566,599.4,430,517.87,452.83Z" transform="translate(-13.38 -26.4)"/><path id="path74961" class="cls-6" d="M686.07,521c-35-57.09-102.32-86.65-168.2-68.16C436.34,475.72,388,563.51,409.8,648.91a161.25,161.25,0,0,0,39.41,71.61,169.23,169.23,0,0,0,106.66,4.86c87.3-24.5,141.89-113,130.2-204.39Z" transform="translate(-13.38 -26.4)"/><path id="path74965" class="cls-7" d="M557.43,480.56c-10.6,0-19.18,8.92-19.18,19.9v17.7A56.53,56.53,0,0,0,501.53,571c0,31.35,25.67,56.36,55.9,56.36,10.33,0,17.5,7.68,17.5,16.57s-7.17,16.5-17.5,16.5-17.5-7.6-17.5-16.5c0-11-8.57-19.91-19.18-19.93h0c-10.61,0-19.2,8.94-19.18,19.93a56.53,56.53,0,0,0,36.72,52.85V714.5c0,11,8.58,19.87,19.18,19.89s19.21-8.9,19.21-19.89V696.75a56.52,56.52,0,0,0,36.72-52.81c0-31.35-25.71-56.36-55.93-56.36-10.33,0-17.5-7.67-17.5-16.57s7.17-16.5,17.5-16.5,17.5,7.6,17.5,16.5c0,11,8.56,19.91,19.17,19.93h0c10.61,0,19.21-8.9,19.22-19.89v0a56.53,56.53,0,0,0-36.72-52.81V500.46C576.64,489.46,568,480.56,557.43,480.56Z" transform="translate(-13.38 -26.4)"/></g></svg>