<svg id="Layer_1" data-name="Layer 1" xmlns="http://www.w3.org/2000/svg" viewBox="0 0 675.05 727.96"><defs><style>.cls-1{fill:#fff;}.cls-2{fill:#67d839;}.cls-3{fill:#231f20;}.cls-4{fill:#16aabc;}.cls-5{fill:#545454;}.cls-6{fill:#ffcd40;}</style></defs><path class="cls-1" d="M736.28,156.15v579.4c0,8.17-6.2,14.85-13.78,14.85H102.56c-7.58,0-13.78-6.68-13.78-14.85V156.15Z" transform="translate(-75 -37.3)"/><path class="cls-2" d="M736.28,67v89.14H88.78V67c0-8.17,6.2-14.85,13.78-14.85H722.5C730.08,52.16,736.28,58.84,736.28,67Z" transform="translate(-75 -37.3)"/><path class="cls-3" d="M722.5,37.3H102.56C87.36,37.3,75,50.63,75,67V735.55c0,16.38,12.36,29.71,27.56,29.71H722.5c15.19,0,27.55-13.33,27.55-29.71V67C750.05,50.63,737.69,37.3,722.5,37.3Zm0,29.71v74.28H102.56V67ZM102.56,735.55V171H722.5V735.55Z" transform="translate(-75 -37.3)"/><rect class="cls-3" x="55.11" y="52" width="48.22" height="29.71"/><rect class="cls-3" x="123.99" y="52" width="48.22" height="29.71"/><rect class="cls-3" x="571.72" y="52" width="48.22" height="29.71"/><path class="cls-4" d="M598.51,393.85v59.43c0,8.17-6.2,14.85-13.78,14.85H551.12a159,159,0,0,1-11.3,29.57l23.7,25.7a15.64,15.64,0,0,1,0,21l-39,42a13,13,0,0,1-19.42,0l-23.84-25.55A136.08,136.08,0,0,1,453.86,573v36.25c0,8.17-6.2,14.85-13.78,14.85H385c-7.58,0-13.78-6.68-13.78-14.85V573a136.17,136.17,0,0,1-27.42-12.18L320,586.39a13,13,0,0,1-19.42,0l-39-42a15.61,15.61,0,0,1,0-21l23.69-25.7a159.65,159.65,0,0,1-11.29-29.57H240.32c-7.58,0-13.77-6.68-13.77-14.85V393.85c0-8.17,6.19-14.85,13.77-14.85h33.62a159.65,159.65,0,0,1,11.29-29.57l-23.69-25.7a15.61,15.61,0,0,1,0-21l39-42a13,13,0,0,1,19.42,0l23.83,25.55a136.17,136.17,0,0,1,27.42-12.18V237.86c0-8.17,6.2-14.86,13.78-14.86h55.1c7.58,0,13.78,6.69,13.78,14.86v36.25a136.08,136.08,0,0,1,27.41,12.18l23.84-25.55a13,13,0,0,1,19.42,0l39,42a15.64,15.64,0,0,1,0,21l-23.7,25.7A159.14,159.14,0,0,1,551.12,379h33.61C592.31,379,598.51,385.68,598.51,393.85Z" transform="translate(-75 -37.3)"/><path class="cls-3" d="M440.08,639H385c-15.2,0-27.56-13.33-27.56-29.71V583.72q-5.64-2.24-10.94-4.83l-16.82,18a26.1,26.1,0,0,1-38.88,0l-39-42a31.31,31.31,0,0,1,0-42l16.69-18.1q-2.42-5.7-4.48-11.8H240.32c-15.19,0-27.55-13.33-27.55-29.71V393.85c0-16.38,12.36-29.71,27.55-29.71H264q2.07-6.09,4.48-11.8l-16.72-18.13a31.31,31.31,0,0,1,0-41.93l39-42a26.1,26.1,0,0,1,38.91,0l16.79,18q5.29-2.6,10.94-4.84V237.86c0-16.38,12.36-29.71,27.55-29.71h55.11c15.19,0,27.55,13.33,27.55,29.71V263.4q5.65,2.24,10.94,4.84l16.82-18a26.12,26.12,0,0,1,38.88,0l39,42a31.32,31.32,0,0,1,0,42l-16.69,18.11q2.4,5.7,4.48,11.8h23.68c15.2,0,27.56,13.33,27.56,29.71v59.42c0,16.39-12.36,29.72-27.56,29.72H561.05q-2.07,6.09-4.48,11.79l16.72,18.14a31.34,31.34,0,0,1,0,41.93l-39,42a26.09,26.09,0,0,1-38.9,0l-16.8-18q-5.28,2.6-10.93,4.83v25.55C467.63,625.65,455.27,639,440.08,639Zm-96.29-93a13,13,0,0,1,6.62,1.83,123.25,123.25,0,0,0,24.75,11C381,560.67,385,566.46,385,573v36.25h55.1V573c0-6.56,4-12.35,9.82-14.23a123.25,123.25,0,0,0,24.75-11A13,13,0,0,1,491,550.3l23.83,25.55,39-42-23.73-25.67a15.75,15.75,0,0,1-2.31-17.61,144.3,144.3,0,0,0,10.18-26.69c1.75-6.29,7.12-10.59,13.2-10.59h33.61V393.85H551.12c-6.08,0-11.45-4.3-13.2-10.59a144.3,144.3,0,0,0-10.18-26.69A15.75,15.75,0,0,1,530.05,339l23.7-25.7-39-42L491,296.83a13,13,0,0,1-16.34,2.49,123.25,123.25,0,0,0-24.75-11c-5.83-1.88-9.82-7.67-9.82-14.23V237.86H385v36.25c0,6.56-4,12.35-9.82,14.23a122.69,122.69,0,0,0-24.75,11,13.05,13.05,0,0,1-16.34-2.49l-23.83-25.55-39,42L295,339a15.75,15.75,0,0,1,2.32,17.62,144.46,144.46,0,0,0-10.19,26.69c-1.74,6.29-7.11,10.59-13.19,10.59H240.32v59.42h33.62c6.08,0,11.44,4.31,13.19,10.59a144.46,144.46,0,0,0,10.18,26.69A15.73,15.73,0,0,1,295,508.17l-23.69,25.7,39,42,23.8-25.58A13.27,13.27,0,0,1,343.79,546Z" transform="translate(-75 -37.3)"/><path class="cls-1" d="M412.53,364.14c30.44,0,55.1,26.59,55.1,59.42S443,483,412.53,483s-55.11-26.59-55.11-59.43S382.08,364.14,412.53,364.14Z" transform="translate(-75 -37.3)"/><path class="cls-3" d="M412.53,497.85c-38,0-68.88-33.33-68.88-74.29s30.9-74.28,68.88-74.28,68.88,33.33,68.88,74.28S450.51,497.85,412.53,497.85Zm0-118.86c-22.79,0-41.33,20-41.33,44.57s18.54,44.57,41.33,44.57,41.33-20,41.33-44.57S435.32,379,412.53,379Z" transform="translate(-75 -37.3)"/><rect class="cls-5" x="523.51" y="222.84" width="27.55" height="29.71"/><rect class="cls-5" x="564.84" y="222.84" width="27.55" height="29.71"/><rect class="cls-5" x="606.17" y="222.84" width="27.55" height="29.71"/><rect class="cls-5" x="41.33" y="519.97" width="27.55" height="29.71"/><rect class="cls-5" x="82.66" y="519.97" width="27.55" height="29.71"/><rect class="cls-5" x="123.99" y="519.97" width="27.55" height="29.71"/><rect class="cls-6" x="89.55" y="638.82" width="495.95" height="29.71"/></svg>